<?xml version="1.0" encoding="utf-8"?>
<!-- Generator: Adobe Illustrator 25.2.3, SVG Export Plug-In . SVG Version: 6.00 Build 0)  -->
<svg version="1.1" id="Layer_1" xmlns="http://www.w3.org/2000/svg" xmlns:xlink="http://www.w3.org/1999/xlink" x="0px" y="0px"
	 width="5760px" height="2520px" viewBox="0 0 5760 2520" style="enable-background:new 0 0 5760 2520;" xml:space="preserve">
<path d="M3187.43,1257.14c0,0,27.65,28.19,58.15,56.49c15.17,14,30.91,28.58,42.97,38.56c12.2,9.51,20.33,15.86,20.33,15.86
	l0.01-0.03l0.02,0.03c0,0,30.98-28.46,59.19-56.88c14.19-14.23,27.83-28.34,37.79-39.04c9.74-11.63,16.23-19.38,16.23-19.38
	s-7.72-5.65-19.31-14.12c-11.54-9.35-26.63-22.17-41.15-34.87c-29.23-25.47-55.72-50.98-55.72-50.98s-6.85,7.1-17.14,17.74
	c-10.42,10.48-24.68,22.6-39.51,35.58C3219.81,1231.66,3187.43,1257.14,3187.43,1257.14z"/>
<path d="M3080.76,1228.96l-1.11,0.03c1.6-5.16,2.53-10.61,3.21-16.29c2.46-29.93-23.25-56.94-57.36-60.33
	c-34.11-3.39-63.94,21.49-66.58,55.58c-0.7,6.34,0.3,12.51,2.27,18.33l-1.1-0.08c-34.27-1.11-61.71,27.11-61.07,63.02
	c0.32,17.81,7.58,33.64,19.05,44.37c12.47,10.71,28.72,16.36,45.81,14.97c13.24-1.07,24.86-6.24,34.15-13.74
	c6.56-3.91,12.46-9.44,17.52-16.05c0,0-0.2,5.71,0.49,11.36c0.64,5.65,1.29,11.3,1.29,11.3c0.02,0.29,0.04,0.59,0.06,0.97
	c0.59,6.36-16.36,16.98-20.74,22.35l0.38,3.33l58.92-5.89l-0.13-1.16c-4.28-3.03-25.36-12.17-27.12-20.87c0,0-0.68-5.92-1.36-11.84
	c-0.48-5.93-0.39-11.9-0.39-11.9c6.25,8.23,15.4,15.06,26.01,17.66c9.52,3.93,20.18,5.7,31.24,4.81
	c17.09-1.4,31.85-8.67,41.93-18.86c11.07-10.3,17.87-23.53,17.65-37.81C3143.33,1253.9,3115.03,1230.07,3080.76,1228.96z"/>
<path d="M2493.36,1312.82c-23.19,13.26-43.93,29.67-56.29,55.22c-8.44-17.91-21.58-30.88-36.43-42.79
	c-15.11-11.93-31.39-22.74-45.13-36.4c-22.21-22.71-20.19-60.14-7.34-89.26c9-19.47,29.53-30.8,48.07-29.19
	c25.69,2.78,37.63,26.88,48,49.6c7.13-13.99,19.89-24.54,34.09-29.25c13.96-4.78,28.94-3.8,42.17,4.61
	c23.83,16.6,32.3,52.39,20.86,78.1C2532.09,1292.17,2512.02,1302.15,2493.36,1312.82z"/>
<path d="M2798.15,1240.66c-27.91-23.83-63.93-41.75-72.96-76.41c-8.59,10.04-19.16,17.89-30.45,24.72
	c-10.72,6.92-22.64,12.75-35.01,18.56c-19.05,8.93-39.45,18.26-49.32,38.51c-5.91,13.98-7.68,30.86-3.77,45.89
	c4.75,15.09,14.21,28.2,28.23,34.98c24.57,11.31,50.26,0.09,65.69-18.55l-0.32,28.67c-0.02,0.36-0.04,0.75-0.07,1.22
	c-0.25,8.08-10.96,19.4-17.31,25.54l-4.57,4.26l57.66-0.46l-1.67-1.45c-4.82-4.35-18.78-18.25-19.63-29.32l0.32-29.91
	c11.22,15.83,27.01,28.66,48.14,28.13c19.27-0.72,36.06-11.44,43.85-26.25C2818.25,1286.38,2820.97,1260.16,2798.15,1240.66z"/>
</svg>
