<?xml version="1.0" encoding="utf-8"?>
<!-- Generator: Adobe Illustrator 25.2.3, SVG Export Plug-In . SVG Version: 6.00 Build 0)  -->
<svg version="1.1" id="Layer_1" xmlns="http://www.w3.org/2000/svg" xmlns:xlink="http://www.w3.org/1999/xlink" x="0px" y="0px"
	 width="612px" height="792px" viewBox="0 0 612 792" style="enable-background:new 0 0 612 792;" xml:space="preserve">
<style type="text/css">
	.st0{fill:none;}
	.st1{fill:none;stroke:#168C44;stroke-miterlimit:10;}
	.st2{fill:#168C44;}
</style>
<g>
	<g>
		<path class="st0" d="M310.21,377.15c0,0,1.37,0.41,2.15-0.27s1.28-2.56,1.28-2.56s-0.92,0.92-1.63,1.42
			C311.3,376.24,310.21,377.15,310.21,377.15z"/>
		<path class="st0" d="M308.43,377.15c0,0-1.09-0.92-1.8-1.42c-0.72-0.5-1.63-1.42-1.63-1.42s0.5,1.88,1.28,2.56
			S308.43,377.15,308.43,377.15z"/>
		<path class="st1" d="M426.12,398.36c-4.22-12.15-13.2-41.98-35.91-67.6s-46.21-28.25-49.9-28.78c-0.44-0.06-0.87-0.11-1.3-0.15
			c-3.03-0.34-8.65,0.08-11.98,0.08c-4.21,0-14.68,7.56-13.25,11.29s1.49,5.77,12.1,6.05c0,0-8.47-1.75-5.23-6.38
			c2.38-3.41,5.18-3.54,10.25-4.19c0.79,0.21,2.7,0.08,6.45,0.32c0.23,0.04,0.46,0.08,0.7,0.12l0.02-0.08
			c1.07,0.08,2.28,0.18,3.64,0.33c12.25,1.32,14.42,5.02,16.01,10.3c1.58,5.28,2.11,15.58-5.02,31.16
			c-4.33,9.47-13.73,16.29-20.44,20.2c-0.07,1.16-0.27,2.34-0.62,3.67c-1.08,4.18-0.93,6.65-1.39,9.9
			c-0.46,3.25-2.32,6.03-2.32,6.03s0.77,2.01,0.77,6.03c0,4.02-6.34,15.77-6.65,19.33c-0.13,1.48,0.06,3.22,0.33,4.75
			c5.06,3.04,7.6,10.63,7.6,10.63s7.39-7.92,13.99-6.87c6.6,1.06,10.03,9.77,10.03,9.77s12.15-5.02,20.86-3.43
			c8.71,1.58,10.83,13.99,10.83,13.99s9.51-2.38,16.63,0.53c7.13,2.9,9.24,10.83,9.24,10.83s8.19-1.58,13.73,3.7
			c5.54,5.28,11.09,26.14,11.09,26.14C439.32,469.12,430.34,410.5,426.12,398.36z"/>
		<path class="st1" d="M297.65,416.26c-0.21-2.54-6.87-16.29-7.08-18.69c-0.21-2.41,0.96-5.15,0.62-5.64
			c-0.34-0.48-2.27-2.75-3.3-5.77s-0.55-6.12-0.69-8.52c-0.01-0.12-0.02-0.25-0.02-0.38c-1.45-0.6-21.03-8.99-27.9-23.99
			c-7.13-15.58-6.6-25.88-5.02-31.16c1.58-5.28,3.76-8.98,16.01-10.3c1.36-0.15,2.57-0.25,3.64-0.33l0.02,0.08
			c0.24-0.04,0.47-0.08,0.7-0.12c3.75-0.23,5.66-0.11,6.46-0.32c5.07,0.65,7.87,0.77,10.25,4.19c3.23,4.63-5.23,6.38-5.23,6.38
			c10.61-0.29,10.67-2.32,12.1-6.05c1.43-3.73-9.04-11.29-13.25-11.29c-3.32,0-8.94-0.42-11.98-0.08c-0.43,0.04-0.86,0.09-1.3,0.15
			c-3.7,0.53-27.2,3.17-49.9,28.78c-22.71,25.61-31.69,55.45-35.91,67.6c-4.22,12.15-13.2,70.76-10.3,87.66
			c0,0,5.54-20.86,11.09-26.14c5.54-5.28,13.73-3.7,13.73-3.7s2.11-7.92,9.24-10.83c7.13-2.9,16.63-0.53,16.63-0.53
			s2.11-12.41,10.83-13.99c8.71-1.58,20.86,3.43,20.86,3.43s3.43-8.71,10.03-9.77s13.99,6.87,13.99,6.87s9.66-10.22,15.24-13.94
			C297.53,418.4,297.72,417.06,297.65,416.26z"/>
		<path class="st2" d="M330.42,362.79c-2.16-4.95-3.69-7.84-5.48-8.87c-1.79-1.03-3.51-1.99-4.26-2.61
			c-0.76-0.62-2.89-1.72-3.51-1.58c-0.62,0.14-2.68,2.06-2.54,2.75c0.14,0.69,1.65,0.89,1.65,0.89s-1.58-0.21-1.99-0.07
			c-0.41,0.14-0.96,0.89,0,1.86c0.96,0.96,1.24,1.1,2.34,1.24c1.1,0.14,2.13,0.89,3.02,0.89s1.72-0.34,2.41,0.34
			c0.69,0.69,0.82,3.37,1.31,4.06c0.48,0.69-0.76,4.4-0.69,6.46s1.31,4.06,1.1,5.15c-0.21,1.1-2.47,2.82-3.23,5.77
			c-0.76,2.96-1.1,4.95-1.1,4.95s-0.74,0.49-1.61,1.16l-0.08,0.11c-0.82-2.11-3.85-5.59-3.85-5.59c0.41-0.32,1.69-1.65,2.2-2.15
			c0.5-0.5,1.1-1.97,1.69-2.38c0.6-0.41,2.2-0.5,1.6-0.96c-0.6-0.46-2.47,0-2.47,0c1.24-0.5,1.92-2.38,2.15-3.34
			c0.23-0.96-2.84-4.4-2.84-4.4s0.37,2.29,0,3.34c-0.37,1.05-2.06,2.88-3.39,2.2c-1.33-0.69-2.71-1.35-4.17-1.24
			c-3.66,0.27-4.81,2.15-4.81,2.15c-1.65-0.23-3.43-0.92-3.94-2.2c-0.5-1.28,0.82-4.03,0.82-4.03s-1.74,1.24-2.66,2.88
			c-0.92,1.65-0.55,2.75-0.5,3.75c0.05,1.01,2.84,2.2,2.84,2.2c-1.97,0-2.15,0.92-2.15,0.92s1.01-0.18,1.74,0.18
			c0.73,0.37,1.19,1.14,1.79,2.11s2.52,1.83,2.52,1.83c-0.32,0.37-3.48,4.62-3.48,4.62l-0.13-0.12c-0.82-0.66-1.73-1.29-2.59-1.68
			c0,0-1.37-6.67-2.61-8.52c-1.24-1.86-0.96-2.34-0.62-3.99s0.76-3.57,0.62-5.36c-0.14-1.79,0.48-5.91,0.89-6.8
			c0.41-0.89,0.89-0.34,1.58-0.89c0.69-0.55,2.27-1.65,2.75-2.34c0.48-0.69,1.24-0.69,1.58-1.03c0.34-0.34,0-1.03-1.51-0.69
			c0,0,0.41-0.96,0.07-1.86c-0.34-0.89,0.21-1.1-0.76-1.51c-0.96-0.41-1.17-0.78-2.13-0.7c-0.96,0.08-3.23,1.39-3.78,2.49
			c-0.55,1.1-1.72,2.2-2.34,2.96c-0.62,0.76-1.24,1.99-1.51,3.57c0,0-0.27,1.31-0.69,2.41c-0.41,1.1-1.92,3.09-2.47,6.87
			c-0.52,3.59-0.18,6.86-0.02,9.24c0.01,0.13,0.02,0.26,0.02,0.38c0.14,2.41-0.34,5.5,0.69,8.52s2.96,5.29,3.3,5.77
			c0.34,0.48-0.82,3.23-0.62,5.64c0.21,2.41,6.87,16.15,7.08,18.69c0.06,0.8-0.13,2.13-0.42,3.59c-0.64,3.2-1.78,6.99-1.78,6.99
			h28.94l-1.08-2.2c0,0-0.53-1.75-0.91-3.91c-0.27-1.53-0.46-3.27-0.33-4.75c0.31-3.56,6.65-15.31,6.65-19.33
			c0-4.02-0.77-6.03-0.77-6.03s1.86-2.78,2.32-6.03c0.46-3.25,0.31-5.72,1.39-9.9c0.34-1.33,0.55-2.51,0.62-3.67
			C332.42,368.54,331.9,366.17,330.42,362.79z M305,374.31c0,0,0.92,0.92,1.63,1.42c0.72,0.5,1.8,1.42,1.8,1.42
			s-1.37,0.41-2.15-0.27S305,374.31,305,374.31z M310.89,380.88c-0.95-0.3-1.26-0.9-1.81-0.8c-0.55-0.1-0.85,0.5-1.81,0.8
			s-0.71-1.06-0.4-1.51c0.67-0.97,1.41-0.55,1.96-0.45c0,0,0.25,0.04,0.5,0c0.56-0.08,1.29-0.51,1.96,0.45
			C311.61,379.82,311.85,381.18,310.89,380.88z M312.36,376.88c-0.78,0.69-2.15,0.27-2.15,0.27s1.09-0.92,1.8-1.42
			c0.72-0.5,1.63-1.42,1.63-1.42S313.14,376.19,312.36,376.88z"/>
	</g>
	<g>
		<path class="st2" d="M307,378.75c0,0-0.27,1.2,0.76,1.53c0,0-0.45-0.92,0-1.53H307z"/>
		<path class="st2" d="M310.97,378.75c0,0,0.27,1.2-0.76,1.53c0,0,0.45-0.92,0-1.53H310.97z"/>
	</g>
</g>
</svg>
