<?xml version="1.0" encoding="utf-8"?>
<!-- Generator: Adobe Illustrator 25.2.3, SVG Export Plug-In . SVG Version: 6.00 Build 0)  -->
<svg version="1.1" id="Layer_1" xmlns="http://www.w3.org/2000/svg" xmlns:xlink="http://www.w3.org/1999/xlink" x="0px" y="0px"
	 width="5760px" height="2520px" viewBox="0 0 5760 2520" style="enable-background:new 0 0 5760 2520;" xml:space="preserve">
<style type="text/css">
	.st0{fill:#FFFFFF;}
</style>
<g>
	<ellipse cx="2814.79" cy="1266.63" rx="233.93" ry="290"/>
	<g>
		<g id="Calque_2_00000003820343449282546020000014911979458281380741_">
			<g id="Calque_1-2_00000040562653499611006390000006940609031939114646_">
				<g id="Bv5sdG.tif">
					<path d="M3170.36,1300.73c5.44-7.21,4.43-17.39-2.31-23.39c-4.07-4.15-9.63-6.48-15.44-6.49c-1.8-0.08-3.6-0.26-5.38-0.56v-1.3
						l8.78-4.87l-8.14-4.96c3.46-0.53,6.53-0.79,9.52-1.47c7.35-1.36,13.34-6.67,15.57-13.8c2.52-7.52,0-14.16-5.47-19.16
						c-10.47-10.08-24.92-14.91-39.34-13.16c-5.53,0.64-10.87,2.82-16.29,4.31c2.67-2.63,5.66-4.91,8.9-6.79
						c3.82-2.76,8.81-3.33,13.16-1.5c7.3,2.4,15.15,2.6,22.57,0.56c-4.17-5.51-9.93-6.21-14.76-8.93c2.2-0.48,4.43-0.77,6.68-0.87
						c2.75-0.47,7.28-0.86,7.75-2.35c1.39-4.36,5.4-5.19,7.94-7.82c1.67-1.75,3.29-3.55,5.34-5.79c-4.96-2.78-9.06-1.88-13.16-1.41
						c-2.05,0.23-4.65,1.54-6.04,0.71c-4.72-2.76-7.67,0.19-10.91,2.52c-1.88,1.32-3.52,2.8-6.36,5.1
						c3.29-5.96,4.95-10.87,1.62-17.04l-12.77,11.28c1.17-3.08,2.39-6.15,3.52-9.25c2.22-6.07,5.04-12.04,6.43-18.3
						c2.58-11.57-1-21.59-9.7-29.68c-1.5-1.41-3.16-2.65-4.96-4.16c3.31-6.51,0.47-10.55-3.93-14.73
						c-5.23-4.96-9.31-10.81-8.41-18.9c0.36-5.24-1.17-10.44-4.31-14.65c-6.71-10.22-15.38-19.01-25.5-25.88
						c-1.5-1.16-2.93-2.42-4.27-3.76c3.91-6.28,2.37-11.28-2.37-16.3c-1.99-2.09-2.6-5.64-3.65-8.48c-0.66-1.88-0.98-3.76-1.47-5.64
						c-9.76,3.76-10.72,10.96-8.56,19.46c-16.32-3.76-22.4-12.51-22.34-24.32c0-9.4,4.53-14.88,12.98-16.25c0,8.16,1,9.8,6.92,11.55
						c5.92,1.75,12.79-0.75,14.16-5.06c1.22-3.76-2.43-10.49-7.62-12.28c-3.92-1.34-8.05-1.98-12.19-1.88
						c-14.14,0.41-22.57,9.53-22.21,23.68c0,2.44,0,4.87,0,7.69c-5.17-4.15-9.18-9.56-11.66-15.7c-3.08-7.52-2.54-10.04,3.48-15.78
						c1.59-1.35,3.05-2.84,4.36-4.46c3.1-4.36,6.13-8.82,5.64-14.89c-8.29,1-13.03,6.64-18.99,12.79
						c1.75-6.77,5.53-11.87,2.73-17.06c-8.41-2.71-7.18-14.05-16.36-16.3l-6.04,17.11l-3.76,0.66l3.33,11.28
						c-5.64-1.69-10.83-4.96-17.21-2.56c2.8,7.39,8.14,12.11,14.46,15.85c8.91,5.07,16.4,12.29,21.8,21.01
						c-14.2-7.52-28.49-14.86-42.05-23.43c-10.07-6.47-19.62-13.71-28.57-21.66c-8.18-7.17-8.29-16.93-1.37-25.11
						c5.27-6.26,12.76-10.24,20.89-11.11c8.8-0.73,17.2,3.79,21.44,11.53c1.51,2.56,1.07,5.81-1.05,7.88
						c-2.24,2.46-4.51,1.88-6.94,0.19c-1.71-1.19-3.56-2.17-5.51-2.91c-4.34-1.43-9.12,0.02-11.94,3.61
						c-2.44,3.59-2.03,8.41,1,11.53c2.19,2.53,5.08,4.35,8.31,5.23c4.86,0.87,9.83,0.87,14.69,0c5.83-1.05,10.61-4.38,12.19-10.72
						c2.73-11.02-0.66-19.9-10.02-26.59c-15.25-10.91-36-9.16-50.27,3.76c-6.41,5.54-9.76,13.83-9.01,22.27
						c0.13,2.26,0.32,4.49,0.55,7.69c-33.53-14.93-67.61-24.18-103.43-23.77c-36.06,0.46-71.6,8.65-104.22,24.02
						c0.23-2.41,0.3-3.61,0.45-4.81c1.94-13.99-3.89-23.96-16-30.92c-16.15-9.4-37.86-6.19-48.9,7.79
						c-5.01,5.9-6.5,14.03-3.91,21.33c4.12,11.7,26.74,15.04,34.73,5.64c3.08-3.65,3.76-9.22,1.47-12.32
						c-2.89-3.52-7.6-4.95-11.96-3.65c-1.72,0.61-3.35,1.44-4.85,2.48c-2.54,1.69-4.96,3.1-7.62,0.34
						c-2.44-2.24-2.73-5.98-0.68-8.58c1.89-2.79,4.26-5.21,7.01-7.15c12.26-8.01,33.74-0.45,38.5,13.48
						c2.42,5.98,1.15,12.83-3.25,17.55c-2.83,3.05-5.9,5.89-9.16,8.48c-17.77,14.27-37.61,25.12-57.85,35.45
						c-1.27,0.55-2.58,1.02-3.91,1.39c6.02-7.37,10.85-15.38,19.82-19.46c7.05-3.29,12.58-9.15,15.46-16.38
						c-10.21-1.88-17.34,2.65-23.9,9.12c2.86-6.04,10.1-9.53,8.76-17.85c-2.92-0.15-4.66-1.34-4.59-5.04
						c0.06-4.64-1.94-9.08-5.45-12.11c-8.33,2.56-7,13.8-15.05,16.08c-3.91,6.49,2.07,11.83,2.33,17.87
						c-5.38-8.67-9.84-11.89-19.39-13.37c0.91,7.26,4.55,13.91,10.17,18.6c2.86,2.37,5.64,4.59,5.79,8.76
						c0.17,6.11-6.79,18.2-12.75,22c-0.23-4.62-0.76-9.22-1.58-13.77c-3.31-13.73-22.57-21.57-34.6-14.14
						c-2.38,1.58-4.33,3.74-5.64,6.28c-2.35,4.4-0.7,8.05,3.95,10.08c4.15,1.78,8.9,1.46,12.77-0.87c4.38-2.29,2.75-6.62,3.2-11.47
						c3.27,1.75,6.06,2.6,7.94,4.38c4.89,4.65,6.02,10.72,5.1,17.23c-1.88,12.81-11.74,17.06-22.08,21.51
						c0.68-15.99,0-17.49-8.76-20.16c-1.56,4.38-2.13,9.57-4.89,12.88c-4.74,5.64-6.07,11.15-2.78,17.88
						c-1.41,0.98-2.48,1.65-3.48,2.43c-9.23,7.2-18.81,14.01-25.6,23.87c-3.33,4.85-6.43,10.08-5.15,15.91
						c1.88,8.63-2.44,14.69-7.71,19.77c-4.61,4.48-7.32,8.63-4.78,15.44c-1.49,1.22-2.95,2.31-4.29,3.52
						c-8.93,7.99-11.98,18.13-9.99,29.66c1.09,4.81,2.6,9.51,4.49,14.07c1.43,3.99,3.08,7.92,4.65,11.85l-11.7-9.27
						c-3.76,4.78-1.66,9.4-1.26,13.03l-10.98-5.25c-5.21,3.55-10.55-0.45-15.83,0.24c-2.16,0.28-4.33,0.47-7.39,0.79
						c0.8,1.42,1.75,2.75,2.84,3.97c3.01,2.44,7.75,4.12,8.95,7.2c2.63,6.86,7.64,5.64,12.69,5.81c1.35,0.23,2.67,0.61,3.93,1.13
						c-11.49,4.8-11.49,4.8-14.39,9.4c8.43,0.23,16.68,1.88,24.71-1.88c1.88-0.75,3.97-0.75,5.85,0c4.18,1.88,8.07,4.46,12.52,7.01
						c-1.13,0.6-1.39,0.87-1.58,0.83c-1.52-0.22-3.01-0.56-4.48-1.02c-15.21-5.53-29.22-2.24-42.37,6.07
						c-3.27,2.12-6.2,4.73-8.67,7.75c-6.13,7.41-5.53,16.27,0.98,23.34c3.44,3.95,8.18,6.55,13.37,7.32
						c1.88,0.26,3.61,0.85,6.68,1.6l-7.69,4.78c2.07,0.88,3.22,1.47,4.42,1.88c5.83,2.07,12.81,2.75,17.26,6.47
						c6.11,5.12,10.83,2.09,16.15,0.3c1.88-0.64,3.55-2.2,5.45-3.01c1.68-0.57,3.4-1,5.15-1.28c-13.28,8.39-15.16,10.85-13.5,18.94
						c11-1.2,18.49-9.55,27.65-14.59c4.46,10.1,3.91,13.37-3.18,19.13c-8.39,6.68-17.86,11.88-28,15.38
						c-3.03,0.84-6.12,1.47-9.23,1.88c-1.35-4.36-2.5-7.96-7.2-8.95c-4.25-1.04-8.41-2.44-12.43-4.17c-2.73-1.07-4.57-0.7-5.64,2.11
						c-0.37,1.23-0.66,2.49-0.87,3.76c-7.37-5.64-8.97-11.1-5.44-17.53c3.16-5.74,7.28-7.22,14.22-4.98
						c-0.28,0.71-0.63,1.38-1.05,2.01c-1.88,2.33-3.39,4.74-1.32,7.71c1.83,2.69,5.21,3.86,8.31,2.88c2.54-0.5,4.97-1.48,7.15-2.88
						c4.46-3.16,5.02-7.84,1.88-12.3c-2.64-3.96-7.05-6.4-11.81-6.53c-9.4-0.36-16.93,1.88-22.21,11
						c-3.93,6.69-3.89,11.96-0.11,18.02c3.5,5.21,8.37,9.36,14.07,12c3.57,1.88,7.22,3.57,11.53,5.64l-12.73,1.37l-0.32,1.88
						l13.31,7.71c-2.65,0.28-5.77,0.49-8.84,1c-1.77,0.3-4.89,0.98-4.95,1.67c-0.49,5.81-6.39,5.51-9.14,8.63
						c-1.45,1.64-2.95,3.23-4.44,4.83l0.6,1.64c4.04,0,8.09,0,12.11,0c2.07,0,4.48-1.03,6.15-0.3c5.23,2.29,8.86,0.19,12.34-3.33
						c0.96-0.61,2.01-1.09,3.1-1.41c-0.34,5.08-3.48,9.53-0.21,14.24c6.38-3.39,10.85-7.8,12.92-14.33
						c2.24-7.13,12.02-16.46,21.57-19.41c-6.3,8.56-11.42,16.59-17.64,23.66c-7.41,8.08-12.5,18.02-14.73,28.75
						c-1.96,7.99,0.15,16.44,5.64,22.57c3.76,4.23,8.24,8.61,6.56,15.7c-0.43,1.88,1.88,4.55,3.4,6.47
						c5.28,6.49,11.45,12.49,9.61,22.1c0.03,1.04,0.25,2.06,0.64,3.03c2.41,11.77,9.69,20.54,17.88,28.66
						c3.76,3.76,8.16,7.17,11.66,10.19c0,5-1.5,10.1,0.32,13.31c3.35,5.85,6.47,11.53,7.07,18.43c10.04-4.46,10.61-5.64,9.59-20.42
						c3.76,2.13,7.07,4.06,10.42,5.77c7.62,3.86,10.49,10.64,11.1,18.52c0.73,9.4-5.43,16.93-14.05,17.68
						c0.41-6.64-0.34-8.8-3.76-10.76c-5.19-2.97-14.01-1.45-16.3,2.82c-2.29,4.27,1.49,11.7,7.79,14.16
						c1.71,0.63,3.5,1.01,5.32,1.13c2.34,0.17,4.69,0.17,7.03,0c13.16-0.75,21.65-9.59,21.8-22.77c0-2.5,0-5,0-8.29
						c5.51,3.89,7.65,9.25,10.04,14.27c4.42,9.4,3.67,12.13-4.08,18.81c-5.63,4.49-9.39,10.91-10.53,18.02
						c8.84-0.71,14.44-5.49,19.67-11.28c-2.31,5.38-4.66,10.57-2.84,15.82c8.2,3.22,6.34,14.5,15.46,17.25
						c2.13-4.02,3.94-8.2,5.4-12.51c0.81-3.03,1.88-5.02,4.4-5.38c1.67-7.73-5.21-11-8.37-17.66c11.28,9.91,15.8,11.6,23.55,9.12
						c-3.04-7.27-8.59-13.21-15.65-16.72c-8.76-4.51-13.56-12.71-19.39-20.07c17.38,9.06,34.51,18.35,50.14,29.98
						c6.89,5.15,13.38,10.81,19.43,16.93c6.62,6.68,6.71,15.27,1.03,22.68c-5.6,7.46-14.3,11.96-23.62,12.21
						c-8.73,0.41-15.5-3.76-19.93-11.45c-1.74-2.78-1.15-6.41,1.37-8.5c2.43-2.46,4.66-1.24,6.94,0.39
						c1.24,0.95,2.59,1.75,4.02,2.39c5.32,2.16,12.47,0,14.41-4.38s-0.51-10.42-5.36-13.41c-1.29-0.89-2.74-1.53-4.27-1.88
						c-3.11-0.51-6.25-0.79-9.4-0.85c-15.55-0.26-22.81,11.79-17.88,25.99c2.84,8.16,9.4,12.96,16.93,16.23
						c3.25,1.21,6.56,2.26,9.91,3.14c-0.02,0.39-0.09,0.78-0.21,1.15c-0.22,0.46-0.53,0.87-0.92,1.2c-6.25,3.61-9.9,10.46-9.4,17.66
						c0,1.88-1.88,3.95-3.42,5.53c-1.95,1.84-4.03,3.54-6.21,5.1l0.71,1.77c2.11,0,4.61,0.73,6.24-0.13
						c4.57-2.44,8.26-1.5,12.24,1.26c3.79,2.4,8.36,3.27,12.77,2.44c4.6-0.53,8.06-4.45,8.01-9.08c-0.23-3.76-4.18-6.96-8.9-7.03
						c-1.52,0-3.07,0.66-4.61,0.73c-2.16,0.36-4.21-1.1-4.57-3.26c-0.17-1.03,0.07-2.09,0.67-2.95c0.58-1.16,1.45-2.15,2.54-2.86
						c5.27-2.95,10.63-5.3,17.04-4.16c9.19,1.91,17.87,5.76,25.46,11.28c1.28,0.83,2.24,2.09,2.69,3.55c0.73,3.52,3.22,5.1,6,6.66
						c1.88,1.02,3.46,2.37,6.56,4.55c-2.96-0.01-5.92,0.17-8.86,0.56c-1.88,0.39-4.46,1.26-4.87,2.52
						c-0.26,1.94,0.44,3.89,1.88,5.21c3.11,2.3,6.51,4.2,10.1,5.64c8.11,3.33,16.23,1.88,24.82-1.52c-1.18,2.01-1.99,3.22-2.6,4.49
						c-2.41,5-1.13,7.94,4.16,9.1c1.79,0.3,3.61,0.35,5.42,0.15c9.23-0.6,16.93-5.12,23.9-10.55s6.79-6.92,1-14.22l7.62-4.42
						l-3.33,7.07l11.28,3.27c-1.05,1.77-1.88,3.55-3.12,5.17c-2.48,3-4.79,6.14-6.92,9.4c-0.96,1.73-1.43,5.04-0.43,6.21
						c1.77,1.39,4.09,1.86,6.26,1.28c3.62-1.39,7.13-3.06,10.49-4.98c1.88-0.92,3.87-1.77,5.79-2.65c0.08,1.57-0.39,3.11-1.34,4.36
						c-2.48,3.33-5.25,6.49-7.52,9.97c-1.77,2.73-2.39,5.81,0.36,8.56c2.04,2.59,5.79,3.05,8.41,1.03c1.82-0.96,3.7-1.77,5.64-2.44
						c0,7.52-0.94,14.74,3.23,20.89h7.82c5.64-6.24,2.29-14.27,3.91-22.1c2.01,1.32,3.52,2.2,4.93,3.22
						c2.69,2.37,6.79,2.13,9.18-0.55c2.69-2.56,2.39-5.64,0.4-8.46c-1.32-1.88-2.78-3.76-4.1-5.64s-2.61-4.06-3.91-6.11l1.22-1.47
						c2.65,1.28,5.27,2.63,7.96,3.76c2.5,1.32,5.17,2.3,7.94,2.91c4.8,0.64,7.01-2.48,4.81-6.7c-1.54-2.95-3.99-5.42-5.83-8.24
						c-1.58-2.43-4.55-4.25-4.14-7.52l9.82-2.95l-0.81-5.64l6.06,3.12c-6.49,6.15-6.53,8.56,0.3,13.6c4.4,3.22,9.08,6.03,13.99,8.41
						c4.87,2.61,10.51,3.45,15.93,2.37c5.42-1.24,6.49-4.31,3.48-9.01c-0.77-1.22-1.52-2.44-2.73-4.38
						c1.88,0.15,3.01-0.11,3.76,0.36c6.71,4.36,14.18,2.69,21.34,2.43c2.87-0.18,5.56-1.45,7.52-3.55c2.46-2.96,4.27-6.4,5.3-10.1
						c3.59-13.05,12.26-21.27,23.68-22.1c5.13-0.15,10.24-0.83,15.23-2.01c4.02-1.15,5.96,1.09,7.96,3.2
						c2.31,2.41,2.01,5.19-0.86,7.52c-2.21-0.42-4.45-0.71-6.7-0.88c-4.29-0.13-8.24,2.6-9.01,5.94c-0.92,4.01,1.49,7.52,6.28,9.4
						c5.36,2.05,10.38,0.68,14.93-2.05c3.76-2.31,7.3-3.35,11.57-1.13c1.88,0.98,4.44,1.97,6.77-1.35c-1.25-1.43-2.62-2.73-4.1-3.91
						c-3.89-2.6-6.19-5.25-5.64-10.76c0.55-5.51-2.91-10.23-7.88-13.39c-1.15-1.06-2.15-2.28-2.97-3.61
						c14.26-4.53,24.77-11.81,27.31-25.95c-1.45-5.85-4.91-10.19-9.1-14.73c-0.41-0.42-0.67-0.95-0.77-1.52
						c-6.48-3.51-14.23-3.78-20.93-0.71c-5.4,2.54-8.52,9.01-6.51,13.45c1.47,3.23,9.78,4.7,14.18,2.44
						c1.15-0.58,2.14-1.45,3.25-2.09c3.07-1.88,6.34-2.69,9.4-0.28c2.61,2.05,3.01,6.96,1.37,10.76
						c-5.89,13.75-22.1,15.63-32.82,10.59c-4.8-2.45-9-5.92-12.32-10.17c-7.32-8.65-7.52-17.77,1.05-25.56
						c9.76-8.95,20.12-17.22,31.03-24.73c11.57-7.88,24.07-14.37,36.18-21.44c0.84-0.42,1.72-0.78,2.61-1.07l0.94,1.35
						c-7,8.18-13.01,17.21-23.11,22.45c-6.28,3.1-10.97,8.68-12.94,15.4c7.73,0.49,13.63-2.86,19.63-6.64l-5.4,12.86
						c4.7,1.28,4.83,4.12,5.06,7.52c0.92,1.44,1.75,2.93,2.48,4.48l0,0l0.17,0.49c1.08,2.36,1.9,4.82,2.46,7.35l0.13,0.41
						c6.58-5.42,8.95-11.28,10.81-17.38l5.12-0.32l-1.5-12.88c6.13,2.26,9.82,8.88,17.53,6.83c-3.18-7.32-5.81-14.37-13-18.67
						c-4.7-2.82-5.64-7.52-3.46-12.34c2.54-5.64,5.64-11.06,8.74-16.47c0.64-1.13,1.88-1.88,4.04-3.76
						c-0.43,3.46-0.81,5.44-0.92,7.52c-0.49,8.93,2.09,16.72,10.14,21.34c8.69,4.98,17.83,5.47,26.76,0.24
						c1.6-0.91,2.96-2.2,3.95-3.76c1.88-3.03,2.46-6.41,0.11-9.52c-2.35-3.1-9.89-4.1-14.61-2.01c-4.27,1.88-4.89,3.54-3.95,10.23
						c0,0.39-0.41,0.88-0.64,1.32c-7.52-1.34-11.64-4.85-13.16-12.04c-2.78-13.16,3.4-24.45,20.57-28.85
						c-0.39,13.88,0.36,15.36,9.97,18.81c0.9-6.77,2.65-13.16,7.18-18.49c1.2-1.45,0.9-4.44,0.73-6.68
						c-0.36-2.04-0.93-4.03-1.71-5.94c2.05-1.64,3.87-3.1,5.64-4.53c8.59-6.4,15.66-14.62,20.69-24.07
						c2.31-4.53,4.49-9.78,4.49-14.71c0-8.11,3.63-14.41,8.44-19.73c4.06-4.49,6.56-8.46,3.76-14.91c1.36-0.9,2.67-1.89,3.91-2.95
						c7.82-7.64,11.28-16.93,9.22-27.68c-0.95-5.09-2.58-10.04-4.83-14.71c-5.39-10.98-12.28-21.17-20.46-30.26
						c-1.69-1.88-3.89-3.76-4.42-7.71l7.88,7.07c4.44,3.97,8.46,7.94,11,13.78c2.35,5.42,7.07,9.78,14.5,12.84l-1.35-14.48
						c2.3,1.65,4.68,3.17,7.15,4.57c1.6,0.76,3.35,1.14,5.12,1.13c2.99,0,5.96-0.51,8.95-0.58c4.08-0.11,8.18,0,12.41,0
						c-1.09-8.26-11.55-7.52-13.05-15.59l-14.41-2.5c6.66-2.01,9.53-3.95,13.56-9.57l-12.6-1c4.27-2.22,7.62-4.1,11.1-5.64
						C3162.23,1309.75,3166.93,1305.74,3170.36,1300.73z M3121.96,1222.44c3.76-1.37,7.84-2.28,13.16-3.76
						c-0.43,7.64,3.76,8.99,8.71,10.16c4.46,1.07,8.74,2.84,14.03,4.61l2.35-7.17c6.85,5.17,8.93,11.28,5.91,17.17
						c-2.82,5.64-7.67,7.52-14.56,5.64c0.91-1.13,1.7-2.36,2.37-3.65c1.88-4.83-0.13-8.46-5.23-8.8c-2.83-0.22-5.67,0.2-8.31,1.24
						c-6.13,2.65-7.52,8.82-3.54,14.16c1.22,1.62,2.75,2.99,4.87,5.28c-4.21-0.71-6.81,0-9.97-3.61c-2.92-3.31-9.29-0.55-13.56,2.01
						c-2.63,1.58-4.87,3.76-8.9,2.69c6.34-4.63,13.75-7.82,13.5-17.6c-6.28,0.17-10.89,3.76-16.08,5.49
						c-5.19,1.73-7.37,9.06-14.24,8.27c-1.5-3.57-1.67-6.88,1-9.59C3102.06,1236.28,3109.98,1226.73,3121.96,1222.44z M3087.99,1322
						c11.89,10.87,15.04,15.33,9.25,34.6l-14.91-3.2L3087.99,1322z M3082.07,1176.25l10.81-4.1c6.81,10.93,5.4,21.66-5.17,33.47
						L3082.07,1176.25z M3118.49,1192.88c-4.45,5.79-9.41,11.17-14.82,16.08c5.09-8.99,11.09-17.44,17.9-25.2
						C3120.62,1186.84,3120.32,1190.43,3118.49,1192.88z M3105.05,1122.22l-7.67,3.4c3.95,5.1,7.33,9.55,10.85,13.92
						c2.29,2.84,4.61,3.29,11.38,2.63c6.64,10.14,0.26,27.72-13.63,39.72c-0.53-7.95,0-16.02-6.64-21.66
						c-6.64-5.64-13.58-5.75-21.74-1.2l-3.35-10.61c3.76,0.32,6.47,0.77,9.23,0.75c4.25,0.16,8.29-1.84,10.74-5.32
						c2-3.44,1.78-7.72-0.55-10.95c-2.76-2.52-6.77-3.12-10.16-1.52c-1.97,1.15-3.86,2.44-5.64,3.86
						c-3.95-4.31-3.99-6.98-0.24-10.96C3083.93,1117.45,3097.04,1116.47,3105.05,1122.22z M3070.92,1061.76
						c11.62,4.96,18.67,14.76,22.57,26.42c2.39,7.18-4.59,16.17-13.16,18.54c-1.01,0.27-2.04,0.42-3.08,0.45
						c-1.26-0.04-2.51-0.14-3.76-0.3c5.17-9.03,2.14-15.29-7.28-16.76c-5.12-0.81-7.88,0-14.27,4.02l-5.89-10.61
						c2.14-0.51,3.76-0.85,5.38-1.28c4.83-1.3,7.82-4.72,7.52-8.61c-0.3-3.89-3.76-7.15-8.37-7.92c-1.46-0.1-2.92-0.1-4.38,0
						c2.69-3.99,5.85-5.87,9.4-5.81c5.23,0.04,10.79-0.08,15.33,1.86V1061.76z M3073.44,1116.3l-7.65,8.16l-4.57-10.1
						L3073.44,1116.3z M3049.16,1049.25c3.61-1.88,5.64-1.03,8.03,2.05c-4.19,1.39-8.54,2.16-12.13,4.23
						c-3.59,2.07-6.64,5.49-10.46,8.78l-13.28-18.81l1.34-1.54c2.92,1.45,5.96,2.71,8.73,4.4
						C3036.66,1052.01,3043.54,1052.35,3049.16,1049.25z M2993.62,1011.81l37.93,22.04l-16.66,3.07l-22-24.17L2993.62,1011.81z
						 M2632.54,1013.82c1.18-0.38,2.4-0.63,3.63-0.75l-21.4,23.81l-16.93-2.95c12.28-7.13,23.45-13.63,34.66-20.1H2632.54z
						 M2576.82,1047.49c8.27,5.19,16.17,4.98,23.96-0.85c2.23-1.42,4.92-1.94,7.52-1.47l-13.99,20.18
						c-5.1-8.99-12.84-12.77-23.7-13.35L2576.82,1047.49z M2538.27,1082.97c3.8-5.86,8.08-11.38,12.81-16.51
						c5.96-6.32,14.05-7.52,22.34-6.75c3.64,0.03,7.02,1.87,9.03,4.91c-3.4,1.33-6.7,2.9-9.87,4.72c-1.15,0.75-1.58,3.22-1.64,4.91
						c-0.13,5.06,2.86,7.2,12.66,8.93l-5.42,9.97c-4.44-1.18-8.24-3.01-12.09-3.1c-11.02-0.3-15.36,6.56-10.78,16.64
						c-7.52,1.37-12.41-2.31-16.53-7.79C2534.97,1094.34,2534.76,1087.77,2538.27,1082.97z M2568.36,1114.08l-4.14,9.61l-8.39-7.01
						L2568.36,1114.08z M2509.49,1141.72c6.79,2.28,11.02-0.17,14.44-5.98c2.01-3.39,5.64-5.79,9.61-9.63l-8.61-3.95
						c7.88-5.29,18.25-4.95,25.76,0.85c4.42,3.67,4.91,6.45,1.88,12.56c-1.88-1.26-3.61-2.65-5.53-3.76
						c-4.38-2.37-9.61-1.43-11.94,1.97c-2.57,3.9-1.56,9.14,2.28,11.81c2.49,1.78,5.36,2.94,8.39,3.39
						c2.71,0.43,5.64-0.38,9.55-0.75l-3.14,10.34c-7.9-2.9-15.53-4.93-22.17,1.45c-5.92,5.64-6.24,13.37-6.56,21.03
						C2510.75,1172.36,2505.11,1156.47,2509.49,1141.72z M2507.33,1182.44l16.93,22.98
						C2514.05,1198.84,2508.87,1191.48,2507.33,1182.44z M2536.86,1254.32c-1.88-0.45-4.44-0.28-5.49-1.47
						c-6.22-6.94-14.57-9.61-24.17-13.16c-0.58,12.71,8.39,15.57,16.93,19.99c-4.96,0.23-8.2-1.52-11.64-3.2
						c-3.75-1.67-7.66-2.93-11.68-3.76c-1.22-0.3-3.67,0.32-3.99,1.11c-1.64,4.19-5.15,2.18-8.05,2.6c1.4-1.48,2.73-3.04,3.97-4.66
						c3.15-3.9,2.55-9.62-1.35-12.77c-0.77-0.62-1.64-1.12-2.58-1.46c-1.42-0.64-2.94-1-4.49-1.05c-3.33,0-6.92-0.58-9.01,3.08
						c-2.09,3.67,0.53,6.32,2.63,8.93c-5.47,2.67-10.21,1.35-13.78-3.76c-4.02-5.66-2.61-11.66,4.53-18.43l2.95,6.88
						c5.94-1.56,11.79-3.44,17.53-5.64c2.65-1.17,4.44-4.25,6.26-7.03c4.96-1.6,9.74,0.53,14.35,2.8
						c10.49,5.17,18.52,13.35,26.33,21.87c0.97,0.87,1.63,2.03,1.88,3.31c-0.17,1.98-0.54,3.93-1.11,5.83H2536.86z M2535.73,1172.19
						l11.87,3.76l-5.79,29.26c-12.45-9.5-10.27-20.89-6.06-33.02H2535.73z M2541.37,1320.87l6.3,32.38l-15.04,3.33
						c-6.15-13.18-4.4-21.27,8.82-35.71H2541.37z M2507.52,1321.15c-6.32,3.35-11.92,0.43-18.67-2.71
						c12.88,0.1,25.56-3.21,36.75-9.61l0.86,2.03c-6.19,3.42-12.47,6.92-18.81,10.29H2507.52z M2517.58,1406.89l9.7-4.02
						c-4.21-5.4-7.3-10.61-11.62-14.41c-2.5-2.18-7.01-2.05-11.51-3.2c-5.06-16.04,5.12-27.06,15.35-39.36
						c0.46,1.59,0.84,3.2,1.13,4.83c0.23,2.07,0.11,4.17,0.41,6.22c1.88,13.67,12.64,19.93,25.6,15.04
						c1.43-0.55,2.78-1.28,5.12-2.35l3.93,13.56c-4.44-1.22-8.01-2.76-11.77-2.9c-3.59-0.13-7.16,0.61-10.4,2.16
						c-4.4,2.26-6.13,7.65-3.88,12.05c0.01,0.01,0.01,0.03,0.02,0.04c1.88,3.46,7.52,4.78,11.87,2.63c1.97-1.12,3.85-2.38,5.64-3.76
						c3.16,5.64,3.08,7.75-0.71,11.28c-4.86,4.52-11.56,6.48-18.09,5.3C2524.7,1409.23,2521.1,1408.18,2517.58,1406.89z
						 M2561.74,1400.4l6.58,15.57l-18.11-3.44L2561.74,1400.4z M2542.46,1461.75c-4.48-5.36-8.45-11.13-11.85-17.23
						c-3.61-6.9-2.09-11.49,3.65-16.66c5.01-4.57,11.86-6.56,18.54-5.38c-4.27,4.48-4.34,8.99-0.38,13.28
						c3.65,3.95,11.28,5,16.7,2.13c2.33-1.48,4.55-3.14,6.62-4.96c0.98,1.47,2.16,3.05,3.14,4.76c0.98,1.71,1.88,3.76,3.08,6.36
						c-2.48-0.3-4.31-0.64-6.15-0.75c-6.19-0.34-10.51,2.58-11.1,7.37c-0.68,5.64,2.11,8.69,9.16,9.97c0.51,0,0.98,0.3,2.22,0.68
						c-1.05,1.37-2.24,2.63-3.55,3.76C2564.88,1470.29,2549.38,1470.49,2542.46,1461.75z M2570.67,1480.46
						c-3.31,1.62-5.21-0.19-7.88-2.88c12.24-2.54,21.83-7.94,26.33-20.86l18.81,27.83l-0.73,1.32c-5.72-1.27-11.37-2.86-16.93-4.74
						c-6.62-2.58-12.96-3.89-19.54-0.68L2570.67,1480.46z M2614.13,1501.32c-1.02,1.87-1.74,3.89-2.12,5.98
						c-9.4-0.23-15.04-7.26-22.57-11.47c7.78-0.12,15.28-2.96,21.19-8.01l8.59,10.63c-1.84,1-3.97,1.52-5.04,2.88H2614.13z
						 M2655.6,1535.45l-36.47-21.06l8.16-6.94l29.09,27.01L2655.6,1535.45z M2712.88,1599.9c-3.8-1.59-7.98-2.05-12.04-1.32
						c-7.65,1.11-10.66,4.95-12,13.95l-10.21-3.76c13.78-7.41,21.97-17.34,20.93-33.44c2.34-0.3,4.71-0.3,7.05,0
						c6.52,1.97,12.34,5.77,16.76,10.96c6.38,7.32,8.93,15.63-3.07,22.15c-2.37-2.86-4.23-6.98-7.37-8.58L2712.88,1599.9z
						 M2737.24,1643.4c-5.87-1.32-10.66-3.99-12.81-11.68c3.76-0.9,6.92-1.66,10.12-2.46c3.48-0.88,6.17-2.69,6.96-6.47
						c1.26-6.07-0.28-7.95-7.67-9.4c5-7.75,10.36-8.43,16.04-1.67c7.09,8.43,16.3,11.53,26.99,11.49
						C2769.75,1638.34,2752.96,1646.86,2737.24,1643.4z M2736.09,1580.75l17.13,5.13c-2.63,4.16-4.96,8.27-7.77,12.04
						c-0.83,1.09-2.97,1.2-4.4,1.71L2736.09,1580.75z M2761.89,1604.13c10.81-4.61,10-4.04,11.08-13.63l25.63,3.29
						c-3.18,10.74-20.69,17.55-29.39,16.42c-3.67-0.53-7.43-1.07-7.33-6.13L2761.89,1604.13z M2782.58,1641.55
						c4.34-3.76,8.58-7.73,13.16-11.17c1.49-1.11,4.08-0.77,6.43-0.24c-5.1,5.8-11.95,9.8-19.52,11.38L2782.58,1641.55z
						 M2814.38,1674.62c-3.57-3.76-3.76-8.52-3.76-13.01c0-9.84,0.62-19.65,1.26-29.47c0-1.43,1.52-3.76,2.61-3.93
						c2.84-0.45,2.93,1.97,3.01,4.17c0.32,10.61,0.9,21.21,1.03,31.82c0.19,5.25-0.53,6.19-4.08,10.34L2814.38,1674.62z
						 M2826.91,1631.96c2.41-2.97,4.68-3.33,6.7-1.73c5.3,4.19,10.4,8.65,15.57,13.01c-7.84-2.85-15.29-6.67-22.19-11.36
						L2826.91,1631.96z M2867.88,1603.36c0,5.4-3.63,7.03-7.15,6.9c-12.28-0.47-23.41-4.02-31.18-14.44
						c-0.26-0.34-0.11-0.98-0.19-1.88l27.29-3.33c-0.56,7.65,3.2,12.19,11.28,12.68L2867.88,1603.36z M2883.38,1644.32
						c-13.77-1.03-23.3-8.69-30.84-20.2c0.86-0.33,1.76-0.55,2.67-0.64c11.04,1.24,19.2-3.46,25.05-12.43
						c2.33-3.57,5.64-3.12,8.91-3.44c3.76-0.34,4.81,2.39,6.28,5.45c-3.14,1.15-7.15,1.13-7.33,6.06c-0.21,5.64,1.13,8.26,6.51,9.95
						c2.97,0.94,6,1.62,8.99,2.5c0.4,0.11,0.66,0.75,0.96,1.15c-3.35,8.5-10.17,12.36-21.14,11.53L2883.38,1644.32z
						 M2876.33,1586.02l17.17-5.38l-4.74,18.43c-2.52,1.24-4.23-0.11-5.64-2.65c-1.94-3.31-4.14-6.43-6.73-10.44L2876.33,1586.02z
						 M2947.79,1607.04l-6.41,4.02c-3.42-9.4-7.84-12.84-16.64-12.99c-8.35-0.13-11.28,1.88-14.86,10.61
						c-10.38-5.64-11.92-12.19-4.78-21.1c4.2-5.36,9.86-9.38,16.3-11.58c2.83-0.69,5.7-1.17,8.59-1.45
						c-1.02,15.1,5.08,24.99,17.85,32.46L2947.79,1607.04z M2896.41,1566.22c-67.98,26.72-133.82,20.33-196.64-16.46
						c-44.91-26.4-78.05-64.34-103.62-109.28c-24.34-42.82-37.2-89.08-42.3-137.81c-6.59-60.37,2.14-121.42,25.37-177.53
						c24.75-60.07,62.89-109.58,118.95-143.87c37.8-23.11,78.99-34.87,123.42-33.36c44.44,1.5,85.27,15.78,121.9,41.24
						c56.93,39.49,93.41,94.16,115.41,159.08c9.16,26.88,15,54.79,17.4,83.09c0.94,11.4,1.2,22.87,1.62,31.09
						c-1.03,73.34-18.13,138.77-56.57,197.86c-31.01,47.73-71.44,84.89-124.89,105.92L2896.41,1566.22z M3067.42,1400.72
						l10.02,12.09l-16.15,3.14L3067.42,1400.72z M2972.97,1536.69l-0.43-0.6l29.79-28.21l8.33,6.47L2972.97,1536.69z
						 M3016.92,1507.3c0-4.68-1.43-7.99-7.11-8.37l8.95-10.95c6.39,4.61,12.75,7.9,20.69,6.94c-4.33,5.74-14.33,11.4-22.49,12.39
						L3016.92,1507.3z M3061.47,1481.66c-7.79-4.53-15.31-3.5-23.15-0.13c-4.89,2.11-10.32,2.91-15.53,4.31l-1-1.45l17.72-26.16
						c3.76,4.36,6.7,9.4,11,12.62s10.02,4.87,15.57,7.43L3061.47,1481.66z M3099.88,1441.98c-2.9,8.96-8.45,16.83-15.91,22.57
						c-8.76,6.81-23.21,5.1-30.09-3.1c8.65-2.2,11.94-5.45,11.02-10.93c-0.92-5.47-5.47-7.52-17.09-7.05l5.64-10.89
						c1.48,1.54,3.16,2.87,5,3.95c3.29,1.3,6.86,2.9,10.27,2.78c9.7-0.34,13.31-7.71,8.74-16.93c9.01-1.52,18.94,3.29,22.13,11.28
						c1,2.66,1.1,5.57,0.28,8.29V1441.98z M3109.47,1347.59c13.16,8.8,19.6,24.45,15.35,38.29c-1.66-0.24-3.35-0.29-5.02-0.15
						c-2.05,0.15-4.02,0.91-5.64,2.18c-4.01,4.55-7.52,9.52-11.85,15.04l8.52,3.22c-8.31,6.69-20.91,4.27-26.69-0.62
						c-4.53-3.76-4.95-6.41-1.6-12.11c1.78,1.39,3.67,2.65,5.64,3.76c4.68,2.18,9.4,0.87,11.64-2.91c2.35-4.12,0.83-9.14-3.76-12.04
						c-5.04-3.14-10.44-2.67-15.82-1.07c-2.24,0.83-4.44,1.77-6.58,2.82l4.21-14.22c19.05,9.21,30.45,0.81,31.59-22.23V1347.59z
						 M3121.11,1320.59c-5.64-2.71-10.96-5.64-16.44-8.58l0.66-1.88c10.74,4.51,21.42,9.23,34.45,7.92
						c-6.51,4.89-12.45,5.64-18.67,2.52V1320.59z M3153.94,1296.8c-4.07,1.63-8.24,2.98-12.49,4.04c-4.59,0.96-6.02,4.25-7.09,8.78
						c-3.91-0.9-7.52-1.45-10.87-2.58c-8.97-2.95-16.81-8.01-24.67-13.16c-7.86-5.15-8.35-11.58-5.64-20.56
						c9.74,5.25,17.47,13.65,29.45,14.67c0.85-10.68-7.3-14.1-15.04-17.81l1.03-1.5c2.52,0.96,5.02,1.88,7.52,2.88
						c3.76,1.41,7.64,2.97,11.55,4.14c2.22,0.68,3.76,0,5.64-2.07c1.88-2.07,6.73-2.44,10.49-2.6c-2.06,1.51-4.03,3.14-5.89,4.89
						c-4.04,4.25-4.19,9.4-0.64,13.3c3.55,3.89,11.51,5.23,15.04,1.99c1.44-1.69,2.2-3.87,2.11-6.09c0-1.88-1.6-3.61-2.52-5.47
						c7.28-1.28,11.87,0.71,14.48,6.17c2.76,5.79,0.64,11.79-6.73,17.81c0.15-1.34,0.15-2.69,0-4.02c-0.98-3.5-2.35-4.12-5.75-2.82
						L3153.94,1296.8z"/>
					<path d="M2711.72,924.42c-0.23-1.49,0-3.97-0.73-4.29c-4.66-2.09-3.76-5.43-2.26-9.1c-3.01-2.07-5.79-3.91-8.5-5.85
						c-2.71-1.94-5.17-3.86-7.86-5.89c0.32-0.55,1.79-1.88,1.73-3.29c-0.39-1.46-1.49-2.62-2.93-3.08
						c-7.88-1.37-10.93-6.88-13.84-13.6c-1.88-4.49-6.36-7.94-9.63-11.83c4.83-3.59,4.93-3.57,13.92,1.28l1.88-5.06
						c5.49-0.24,7.03,4.31,9.4,8.2l9.67-4.14l2.78,7.97l11.66,0.85l8.78-9.55l-1.34-5.77l9.4-2.09l-4.48-9.61l6.02-1.73l4.12-14.84
						c2.67,1.88,5.02,2.56,5.77,4.1c2.31,4.63,6.26,5.64,11.1,5.77l1.71,7.84l13.8-3.99l-2.07,7.41l8.35,3.37l13.16-10.91
						l-3.27-7.64h12.36l-5.64-13.16l9.01-0.9c2.09-5.38,2.78-11.77,9.16-14.67c5.21,2.52,7.35,7.07,7.88,12.75h7.13
						c0.19,0.23,0.55,0.47,0.51,0.6c-0.98,3.93-1.99,7.86-3.12,12.24c4.85,0.13,9.69-2.75,15.04,0.77l-5.27,6.92l11.96,11.08
						c6.34-1.24,11.02-10.68,20.29-7.18l3.52-7.52l5.89,0.49c3.23-4.91,5.15-11.53,12.88-12.37c5.96,4.83,2.11,10.83,1.37,16.93
						l7.07,1.47l-0.88,6.36c9.06,4.14,9.06,4.14,7.79,10.68c1.13,0.94,2.37,1.88,3.5,2.91c1.13,1.03,1.75,1.88,2.05,2.18h12.92
						l4.57-5.81l6.81,5.64l6.45-10.91c6.22,4.02,11.92-6.07,17.9,0.43c-6.96,7.2-10.19,16.27-12.05,25.99
						c-0.27,3.25-2.87,5.83-6.13,6.06c-1.52,0.15-3.07,0.21-4.78,0.3c-3.54,7.52-8.97,12.79-17.96,14.35
						c2.93,6.11,1.77,10.78-4.12,13.33c3.42,11.75,3.27,12.34-3.57,15.4c-2.95-4.7,1.47-9.23,0.83-14.01
						c-5.64,1.26-7.52,3.16-7.35,7.3c0.13,3.76,1.67,5.32,6.77,6.45l-0.49,5.81c-21.03-9.85-43.25-11.57-65.43-13.52
						c-20.71-2.02-41.57-1.97-62.27,0.13c-20.69,2.28-41.17,5.51-61.18,13.39c-3.27-4.61-14.1-4.48-9.59-14.82l9.8,9.97
						c3.03-4.48,3.14-6.47,0.32-9.61C2719.18,921.26,2717.08,921.56,2711.72,924.42z M2708.67,915.02l1.2,2.58
						c11.08-3.08,22.04-6.54,33.23-9.14c11.64-2.69,23.39-5.02,35.22-6.6c11.6-1.51,23.28-2.41,34.98-2.71
						c11.7-0.34,23.41-0.1,35.09,0.73c11.93,0.77,23.81,2.26,35.56,4.44c11.28,2.18,22.15,5.85,33.61,8.95
						c-1.32-6.26-1.35-6.54-7.24-8.29c-19.2-5.71-38.98-9.24-58.98-10.51c-24.41-1.64-48.91-1.14-73.23,1.5
						c-21.45,2.51-42.54,7.42-62.89,14.65c-2.36,1.15-4.57,2.6-6.56,4.31V915.02z M2819.04,862.66
						c-0.53,11.06,8.43,19.07,23.15,20.69c13.3,1.45,23.19-2.75,24.69-10.59l-11.96,5l-1.77-9.95l-9.14-9.78l-6.47,1.15l-2.54,6.38
						C2827.6,866.51,2827.6,866.51,2819.04,862.66z M2761.37,879.1c9.95,5.21,18.81,6.94,28.21,5.04
						c9.89-1.99,16.23-10.21,17.09-21.65l-11.43,8.24l-4.89-8.29l-10.21-1.37l-3.52,9.4l3.05,7.3L2761.37,879.1z M2898.65,883.23
						l-12.86-4.7c4.61,11.28,24.45,20.84,30.09,14.82l-4.53-3.42l3.76-9.4l-5.75-6.83l-8.93,2.05L2898.65,883.23z M2813.35,902.04
						c-5.34,0-9.14,3.14-8.99,7.52c0.13,4.79,4.12,8.56,8.91,8.42c0.11,0,0.23-0.01,0.34-0.02c5.3-0.11,8.63-3.29,8.63-8.01
						c-0.26-4.64-4.23-8.19-8.88-7.94L2813.35,902.04z M2737.11,891c-6.19-4.66-12.17-8.82-19.86-10.06l-1.26,6.04l6.36,5.43
						l-8.07,6.45c9.27,0.34,17.04-1.2,22.85-7.88L2737.11,891z M2827.21,890.87l0.19-1.02l-14.8-8.69l-11.04,9.69L2827.21,890.87z
						 M2884.47,896.28L2874.8,885l-13.48,7.67L2884.47,896.28z M2813.12,843.63c-3-0.19-5.58,2.08-5.77,5.08c0,0.01,0,0.01,0,0.02
						c0.07,2.98,2.51,5.37,5.49,5.38c2.88-0.03,5.18-2.39,5.15-5.27c0-0.13-0.01-0.25-0.02-0.38c-0.3-2.78-1.37-5.08-4.85-4.89
						V843.63z M2753.69,867.06c-1.46-1.45-3.16-2.62-5.02-3.48c-2.28-0.68-5.36,2.35-5.15,4.53c0.09,2.71,2.35,4.84,5.06,4.78
						c2.84,0.02,5.15-2.26,5.17-5.1c0-0.26-0.02-0.53-0.06-0.79V867.06z M2879.58,867.74c3.14,0,5.7-2.5,5.77-5.64
						c-0.19-2.41-3.08-5.17-5.32-4.72c-2.67,0.38-4.53,2.85-4.16,5.53c0.01,0.04,0.01,0.08,0.02,0.11c0.19,2.48,0.88,4.74,3.69,4.66
						V867.74z M2753.84,888.97l-6.36,9.01l19.14-4.17L2753.84,888.97z"/>
					<path d="M3048.72,1264.96c0.5,49.14-9.93,97.78-30.52,142.4c-20.8,45.13-50.31,83.16-91.85,111.2
						c-39.23,26.48-82.5,38.06-129.61,33.85c-39.98-3.52-75.49-18.81-106.91-43.65c-39.7-31.26-67.16-71.46-85.55-118.14
						c-16.8-42.78-24.71-88.54-23.24-134.48c1.52-57.26,15.46-111.16,44.63-160.72c22.32-37.91,51.53-69.3,89.82-91.55
						c40.4-23.49,83.95-31.97,130.08-24.75c36.8,5.77,69.26,21.72,98.09,45.25c35.96,29.34,61.21,66.48,78.99,108.93
						c16.55,39.94,25.73,81.32,25.71,124.57C3048.35,1260.28,3048.59,1262.61,3048.72,1264.96z M3043.76,1265.68
						c0.25-20.08-1.44-40.13-5.06-59.88c-7.94-44.63-23.06-86.4-49.1-123.84c-23.43-33.68-52.02-61.68-89.01-80.19
						c-41.52-20.78-84.87-26.97-130.38-15.44c-41.37,10.49-75.86,32.61-104.52,63.72c-52.3,56.74-75.79,125.42-79.93,201.23
						c-1.93,39.11,3.25,78.24,15.27,115.51c10.6,34.71,27.41,67.21,49.63,95.91c26.78,34.02,59.35,60.46,100.44,75.39
						c47.54,17.19,94.61,15.23,140.69-5.44c43.67-19.58,76.71-51.4,102.16-91.34c34.11-53.58,49.33-112.55,49.82-175.65V1265.68z"/>
				</g>
			</g>
		</g>
		<g id="ACXITe.tif_00000129189362118302032230000000464120346791791011_">
			<path class="st0" d="M2802.31,1170.33c1.74,4.65,1.26,9.85-1.3,14.1c-1.45-2.34-2.65-4.56-4.13-6.58
				c-2.57-3.52-5.41-6.58-10.48-5.66c-0.88,0.08-1.76-0.18-2.45-0.72c-4.48-3.67-8.94-2.12-13.02,0.38
				c-5.86,3.6-11.62,7.47-13.4,14.81c-0.27,0.64-0.65,1.24-1.12,1.76c-4.31-1.49-6.98-5.8-6.39-10.32
				c0.59-10.48,5.09-19.35,12.01-27.07c0.74-0.71,1.57-1.32,2.47-1.81c3.46-2.22,6.93-4.41,10.89-6.91l-0.39,7.42
				c1.15-1.65,2.44-2.7,2.7-3.98c2.42-11.83,11.65-17.18,21.51-20.27c12.49-3.92,25.61-2.81,37.95,1.5
				c4.42,1.83,8.23,4.88,10.99,8.79c4.83,6.64,11.38,11.84,18.94,15.04c2.43,1.02,4.76,2.25,6.98,3.67
				c4.81,3.16,7.13,7.54,6.04,13.48c-0.25,2.02-0.38,4.05-0.38,6.09l1.25,0.67l3.69-5.89c6.83,11.52,6.45,22.73-0.56,28.16
				c1.12,4.33,2.81,8.23,3.06,12.26c1.14,18.13-0.8,36.33-5.74,53.81c-5.61,20.08-18.71,34.95-34.94,48.68l0.63-9.87
				c-5.66,11.09-16.85,13.82-26.53,15.58c-11.78,2.2-23.87-1.67-32.19-10.3c-4.94-5.02-5.4-8.03-2.32-14.53
				c-0.2-0.15-0.43-0.44-0.58-0.41c-12.33,3.11-9.3,3.16-15.11-6.29c-3.22-5.68-6.74-11.17-10.57-16.46l0.63,11.09
				c-17.13-25.08-17.86-53.48-18-82.02c3.93,2.32,5.15,5.96,5.61,10.06c0.74,6.43,1.65,12.87,2.35,19.3l1.3-0.15
				c-0.33-4.79-0.56-9.58-1-14.35c-0.57-5.57,0.8-11.18,3.87-15.86c2.29-3.6,4.2-4.3,7.87-1.94c2.07,1.33,3.79,3.21,5.74,4.72
				c5.82,4.47,14.13,3.54,18.81-2.11c1.83-2.68,4.84-4.3,8.08-4.36c1.72-0.11,3.34-0.81,4.61-1.97c4.77-4.82,6.06-15.57,2.9-21.71
				c-4.1-7.92-8.23-9.27-14.32-4.16C2794.28,1163.62,2798.49,1166.38,2802.31,1170.33z M2841,1191.33
				c8.43,6.24,16.46,4.25,24.59-1.45c-2.09,4.19-6.17,7.04-10.83,7.54c-5.27,0.86-10.64-0.64-14.7-4.11
				c-3.62-3.01-6.09-2.68-7.41-0.72c2.96,1.4,6.07,2.73,9.07,4.33c2.3,1.23,4.26,3.39,6.58,4.08c3.08,0.89,6.86,1.78,9.61,0.74
				c4.52-2.01,8.79-4.56,12.69-7.6c3.57-2.48,3.77-4.71,1.07-8.06c-3.09-3.88-6.4-7.57-9.5-11.52c-6.96-8.72-15.19-12.57-25.99-7.03
				c0,0-0.23-0.16-0.35-0.25c2.06-5.32,4.67-6.99,11.04-6.75c4.76,0.18,10.09-0.61,14.09,1.3c4,1.91,6.35,6.58,9.54,10.17
				c0.31-0.64,0.76-1.2,0.64-1.38c-2.53-3.85-4.94-7.77-7.82-11.4c-1.13-0.9-2.54-1.36-3.98-1.3c-5.53-0.31-11.06-0.43-16.6-0.59
				c-5.12-0.15-8.38,1.93-10.01,6.17c-1.45,3.8-2.98,7.57-4.51,11.34c-1.65,4.23-0.95,9.66,2.01,12.59
				c3.47-10.57,11.22-14.93,21.76-14.65c4.94,0.13,7.39,2.3,8.52,6.14c-10.17-5.1-17.03-4.06-22.33,3.41l-4.18,5.66L2841,1191.33z
				 M2822.47,1181.93h-0.84c-0.24,0.48-0.4,1-0.48,1.53c0,8.46,0,16.92,0.26,25.36c0,3.21,0.63,6.4,0.77,9.59
				c0.15,3.51-1.65,6.58-4.94,6.71c-2.61-0.23-4.96-1.68-6.32-3.92c-1.3-2.67-1.14-6.15-1.18-9.3c-0.12-10.14,0-20.27,0-30.4h-1.2
				c-0.4,3.11-0.3,6.4-1.33,9.28c-1.04,2.88-3.29,5.64-5.05,8.62c3.79,1.65,4.25,4.94,4,8.92c-0.11,2.47,0,4.94,0.33,7.39
				c0.64,5.64-1.79,9.99-6.88,11.95c-1.65-4.51-0.94-6.58,3.29-11.52l-2.95-6.27c-0.69,4.51-1.04,8.97-2.09,13.25
				c-1.35,5.45,1.23,9.78,3.77,13.86c3.19,5.12,9.13,1.33,13.63,3.03c1.3,0.49,3.67-1.91,5.58-2.98c2.48,5.5,4.59,5.84,8.34,1.38
				c1.27-1.58,2.46-3.23,3.55-4.94c5.43-8.11,4.71-11.52-4.1-16.77c0.71,1.65,2.32,2.96,2.85,4.56c0.72,2.21,1.65,5.63,0.63,6.83
				c-2.07,2.35-3.75-0.36-4.84-2.22c-1.29-1.75-2.21-3.73-2.72-5.84c-0.92-8.56-1.56-17.15-2.09-25.72
				c-0.23-4.25-0.02-8.34-0.02-12.41L2822.47,1181.93z M2786.11,1271.1c4.51,2.75,7.9,1.43,11.52-0.44c2.95-1.65,6.16-2.76,9.5-3.29
				c4.29-0.34,8.59-0.28,12.87,0.18c2.92,0.23,5.81,0.71,8.64,1.45c3.49,0.87,6.83,2.44,10.33,2.96c1.5,0.21,3.29-1.46,5.55-2.58
				l-8.36-3.51c-0.38,0.48-1.07,1.65-1.25,1.55c-4.77-1.99-9.08-4.64-11.39-8.67c-3.07-0.37-6.16-0.54-9.25-0.49
				c-3.57,0.45-7.12,1.09-10.63,1.91c-1.8,1.81-3.76,3.46-5.84,4.94c-3.57,2.09-7.44,3.8-11.7,5.97L2786.11,1271.1z
				 M2804.99,1282.27c3.55-0.45,7.13-0.58,10.7-0.4c1.65,0.2,2.98,2.57,4.46,3.95c-1.21,1.26-2.5,2.45-3.85,3.55
				c-1.04,0.47-2.15,0.77-3.29,0.89c5.38,1.65,10.83,0.16,12.39-4.18c0.74-2.06-1.48-5.17-2.58-8.48l1.99-2.42
				c-6.58,4.25-13.36,2.93-19.04,1.1L2804.99,1282.27z M2760.82,1166.92c4.14-4.47,10.12-6.78,16.19-6.25
				c2.28,0.45,4.58,0.74,6.9,0.87c1.79-0.37,3.51-1,5.1-1.89c-14.24-4.99-24.04-2.12-28.21,7.24L2760.82,1166.92z"/>
			<path class="st0" d="M2724.5,1230.04c3.49,21.52,9.87,42.48,18.97,62.29c7.45,16.3,18.59,30.65,32.53,41.92
				c17.56,14.33,37.69,15.11,58.57,9.58c23.7-6.27,39.92-21.1,49.02-43.79c0.15-0.41,0.25-0.84,0.31-1.27
				c0-0.12-0.12-0.25-0.51-1.04c-2.55,3.44-5.05,6.58-7.24,9.87c-20.9,31.48-58.83,36.2-86.79,26.48
				c-11.72-4.1-20.24-12.49-28.21-21.59c-15.21-17.39-23.35-38.26-29.62-60.02c-1.78-6.15-2.95-12.49-4.25-18.76
				c-0.96-3.76,0.27-7.73,3.19-10.29c2.38-2.59,4.58-5.34,6.58-8.23c0.25,2.65,0.41,4.25,0.56,5.83
				c1.76,19.75,5.27,39.2,16.01,56.38c10.39,16.55,24.62,30.34,41.47,40.22c17.87,10.33,40.32,8.21,55.95-5.27
				c29.85-26.12,43.43-59.01,40.4-98.74c-0.18-2.47-0.26-4.94-0.38-7.41l1.17-0.58c1.18,2.22,2.44,4.39,3.52,6.58
				c1.65,3.39,3.16,6.81,4.66,10.25c0.55,1.02,0.87,2.14,0.95,3.29c-0.48,17.79-0.35,35.68-5.81,53.04
				c1.09-2.96,2.32-5.88,3.29-8.89c1-3.29,1.65-6.8,2.53-10.2c0.68-3.24,1.58-6.43,2.72-9.54c-0.19,16.86-3.3,33.57-9.18,49.37
				c-5.58,15.73-9.78,32.22-21.97,44.76c14.65-13.56,20.24-31.94,26.33-50.05l1.09,0.35c-1.65,7.04-2.6,14.28-4.94,21.1
				c-3.59,10.6-7.16,21.39-12.33,31.27c-7.43,14.98-21.43,25.63-37.85,28.8c-13.92,2.91-27.98,4.64-42.21,3.42
				c-7.2-0.45-14.11-3-19.88-7.34c-8.9-6.86-17.77-13.81-26.43-20.98c-5.77-4.83-10-11.24-12.18-18.45
				c-3.92-12.38-7.98-24.69-11.31-37.29c-2.21-8.23-3.16-16.88-4.79-25.33c-2.03-10.6-4.13-21.19-6.29-31.76
				C2721.64,1234.87,2721.54,1232.11,2724.5,1230.04z M2813.2,1361.92c-4.94,3.95-9.53,4.66-14.81,2.62
				c-7.99-2.89-15.26-7.5-21.28-13.49c-5.63-5.73-11.52-11.26-17.41-16.67c-1.05-0.95-3.03-0.89-4.57-1.3
				c0.41,1.48,0.36,3.29,1.28,4.36c8.47,9.7,18.48,17.95,29.62,24.42c5.78,3.29,11.98,7.01,18.33,7.77
				c9.17,1.1,18.63-0.3,27.98-0.67c0.31,0,0.61-0.51,0.91-0.79l0.26-1.23C2826.07,1367.68,2818.88,1367.55,2813.2,1361.92
				L2813.2,1361.92z"/>
			<path class="st0" d="M2905,1372.96c-7.77-5.05-8.23-12.13-7.36-20.77c1.76-16.46,4.21-32.91,3.54-49.77
				c-0.41-10.2,2.98-20.51,3.57-30.82c0.97-14.01,4.35-27.75,9.97-40.62c0.92-2.74,2.95-4.97,5.6-6.14
				c3.43-1.82,6.72-3.86,9.87-6.12c2.39,3.69,4.52,7.54,6.39,11.52c5.43,13.92,6.58,28.62,7.7,43.38c0.95,12.9,2.81,25.75,4.3,38.81
				c-3.85-0.87-6.16,2.57-8.64,5.76c-4.39,5.64-8.46,11.52-13.3,16.82c-4.33,4.69-9.63,8.46-14.24,12.92
				c-3.64,3.54-7.03,7.32-10.15,11.32c-0.74,0.95,0,3.08,0.08,4.67c1.48-0.56,2.89-1.27,4.23-2.11c0.78-0.67,1.24-1.65,1.25-2.68
				c-0.41-5.22,3.29-7.65,6.58-10.68c5.71-5.41,11.14-11.12,16.74-16.65c4.36-4.3,8.76-8.59,13.3-12.69
				c1.12-1.05,2.65-1.54,4.16-1.33c1.1,0.49,1.83,2.5,2.11,3.97c0.11,1.59,0.04,3.2-0.21,4.77c-0.53,11.6-1.65,23.22-1.32,34.81
				c0.23,6.86,3.03,13.63,4.59,20.46c1.83,7.96,1.65,15.65-3.14,22.74c-2.29,3.41-5.25,5.53-9.45,5.25
				c-6.25-0.4-12.54-0.63-18.71-1.55c-10.06-1.5-17.13,2.83-19.88,12.72c-1.53,5.53,3.29,11.67,10.01,12.34
				c-6.81-6.4-4.26-13.74-2.09-20.7c1.17-3.75,5.12-4,8.57-3.7c8.56,0.71,17.1,1.65,26.13,2.42c-0.51,1.65-0.95,3.39-1.65,5.09
				c-2.8,7.34-5.86,14.58-8.41,22c-0.97,2.81-2.12,3.93-5.18,3.9c-12.47-0.16-22.53-5.5-30.92-14.25c-1.32-1.54-2.1-3.46-2.24-5.48
				c-0.79-11.19-1.35-22.4-1.91-33.6c-0.32-4.08-0.41-8.17-0.26-12.26c0.44-6.58,2.55-7.64,8.41-4.56c0.64,0.28,1.31,0.51,1.99,0.69
				c5.17,1.53,7.14,5.43,8.52,10.32c0.71,2.5,2.88,4.69,4.69,6.78c2.52,2.91,4.81,2.57,6.14-1.05c0.31-1.63,0.31-3.31,0-4.94
				c-0.12-1.94-0.95-5.27-0.31-5.58c2.01-0.99,4.94-1.76,6.83-0.92c4.94,2.44,9.73,5.19,14.33,8.23c3.42,2.09,2.98,4.08-1.22,5.76
				c1.31,0.95,2.69,1.81,4.11,2.58c1.38,0.53,2.79,0.96,4.23,1.3c0-1.75-0.29-3.48-0.86-5.13c-3.29-5.91-9.02-8.92-14.81-11.87
				C2926.67,1373.08,2915.59,1374.48,2905,1372.96z M2919.51,1333.6c3.87-1.43,5.64-3.72,5.66-7.88c0-26,0.36-52,0.54-78.01
				c0-2.3-0.18-4.62-0.28-6.93h-0.35L2919.51,1333.6z"/>
			<path class="st0" d="M2879.13,1102.66c2.57-3.65,5.76-7.01,7.6-10.99c5.32-11.52,16.56-13.68,25.61-4.71
				c-3.8-0.84-7.65-1.46-11.52-1.86c-4.48-0.25-7.64,2.25-9.71,6.85c6.58-4.82,12.34-2.73,17.64,1.45
				c4.97,3.77,9.66,7.9,14.04,12.36c3.19,3.29,3.72,9.64,10.96,7.9c-1.3,1.06-2.55,2.19-3.74,3.37c-2.89,3.29-5.72,6.61-8.51,9.96
				c-1.38,1.49-2.58,3.15-3.55,4.94c-0.46,0.97,0.15,2.45,0.26,3.69c1.09-0.12,2.52,0.18,3.29-0.39c2.63-2.24,4.94-4.82,7.54-7.14
				c2.07-1.88,5.33-5.46,6.32-4.94c2.88,1.5,4.94,4.66,7.16,7.26c0.25,0.3-0.18,1.18-0.2,1.28c12.89,6.68,24.13,15.01,27.52,29.89
				c1.77,8.88,2.68,17.9,2.7,26.96c0.12,4.41-1.79,8.87-2.35,11.36c-3.11-1.8-6.05-3.89-8.77-6.24c-1.51-1.91-2.4-4.25-2.55-6.68
				c-1.02-8.64-1.09-17.38-4.57-25.64c-0.71-1.65,0.13-4.33,0.97-6.2c1.65-3.83,0.49-6.47-2.55-8.72
				c-7.83-5.81-16.11-5.45-23.2,1.18c-7.46,7.19-17.44,11.15-27.8,11.03h-6.86c-0.2,0.53-0.48,0.89-0.38,1.04
				c5.15,8.01,18.23,9.59,25.08,3.29c3.75-3.46,7.76-6.64,12-9.5c5.94-3.98,11.52-2.85,15.91,2.76c2.09,2.67,4.06,5.41,6.07,8.13
				l-0.97,0.84l-4.94-4.31l-0.91,0.69c2.55,4.33,9.2,6.27,8.23,12.77c-7.54-6.75-13.05-7.24-18.66-1.74
				c-4.02,3.93-4.15,9.4-0.31,14.05c5.51-5.97,10.83-5.74,16.46,0.38c3.52,3.83,7.6,7.18,11.08,11.04c1.99,2.11,3.49,4.63,4.39,7.39
				c4.02,14.33,2.11,27.57-8.44,38.74c-4.15,4.41-8.64,8.49-12.64,12.41l-11.98-43.25c-4.66,3.29-8.39,6.3-12.49,8.69
				c-10.98,6.39-19.35,3.16-23.93-8.64c-1.34-3.84-3.23-7.47-5.6-10.78c-3.72-4.79-4.06-9.4-1.14-14.81
				c11.52,10.14,24.22,11.7,37.93,5.25c-1.09,0.25-2.21,0.43-3.29,0.76c-11.62,3.62-20.93-0.16-28.6-8.99
				c-2.09-2.24-3.89-4.74-5.35-7.44c-0.74-1.5-0.67-4.94,0-5.32c1.98-0.85,4.21-0.93,6.25-0.25c2.22,0.81,3.97,3.29,7.11,0.28
				l-29.95-21.77l0.53-0.63c4.06,0.84,8.15,1.46,12.28,1.86c4.08,0.01,8.17-0.2,12.23-0.64c-0.73-1.53-1.34-3.11-1.83-4.72
				c-0.25-1.73-0.37-3.48-0.36-5.23c-13.4,6.32-25.79,8.03-36.32-6.58c15.98,1.16,31.77-4.08,43.89-14.56
				c-26.03,12.7-51.61,17.76-76.28-3.29c4.21,1.33,8.34,3.41,12.64,3.82c4.62,0.41,9.27-0.05,13.72-1.35
				c4.32-1.37,8.38-3.44,12.01-6.14c3.6-2.92,7-6.09,10.17-9.48L2879.13,1102.66z M2954.56,1234.97c9.59-7.29,10.2-20.95,0.69-30.21
				c-4.66-5.1-12.33-6.05-18.1-2.25c-2.5,1.48-4.61,3.64-7.11,5.09c-2.66,1.74-5.58,3.06-8.64,3.92
				c-8.69,1.86-15.21-2.39-20.85-8.44c-1.73-1.86-3.44-3.74-5.15-5.61l-1.5,1.04c1.06,2.14,2.3,4.19,3.72,6.12
				c2.37,2.76,5.36,4.94,7.67,7.77c5.51,6.68,11.14,8.08,18.78,3.85c3.69-2.04,7.01-4.76,10.57-7.04
				c10.76-6.93,20.39-2.35,21.25,10.48C2956.26,1224.85,2955.02,1230.27,2954.56,1234.97L2954.56,1234.97z"/>
			<path class="st0" d="M2778.74,1422.65c-3.47,0.23-7.32,4.05-9.31-3.46c-1.4,2.22-3.14,3.79-2.93,4.94
				c0.45,1.91,1.63,3.56,3.29,4.59c1.65,0.77,3.56,0.72,5.17-0.13c6.91-5.15,6.88-9.25-0.28-14.27c-5.13-3.6-10.68-6.58-16.03-9.87
				c-4.54-2.8-6.73-6.68-5.18-9.02c1.18-1.78,6.78-1.65,10.2,0.95c3.42,2.6,6.34,5.53,9.74,8.15c-1.94-5.76-6.12-9.69-11.32-12.64
				c-3.62-2.04-7.08-3.67-11.06,0.13c-2.68,2.57-5.38,0.92-5.73-3c-0.38-4.21-0.79-8.44-0.94-12.67
				c-0.16-8.93-1.83-17.76-4.94-26.13c-1.18-3.6-1.85-7.34-1.99-11.12c-0.79-9.38-1.32-18.79-1.19-28.44
				c1.27,4.82,3.21,9.58,3.65,14.47c1.25,13.69,7.42,24.41,16.05,35.07c11.35,14.48,27.2,24.76,45.04,29.23
				c40.17,10.38,73.56-7.83,88.36-48.14c3.29-8.76,6.06-17.63,9.87-26.33c-1.09,8.52-2.35,17.02-3.29,25.56
				c-1.2,11.52-2.12,22.94-3.13,34.41c-0.18,2.04,0,4.1-0.18,6.14c-0.44,9.63-4.03,16.88-13.51,21.1
				c-6.72,3.18-13.1,7.01-19.07,11.44c-3.73,2.5-4.76,7.52-2.34,11.29c0.89,1.3,3.59,2.96,4.23,2.55c1.99-1.54,3.74-3.37,5.2-5.43
				c0.13-0.16-0.43-1.32-0.72-1.35c-0.77,0.06-1.53,0.2-2.27,0.41c-1.91,0.29-3.83,0.44-5.76,0.46c-0.2,0-0.86-2.62-0.44-2.95
				c1.34-1.34,3.07-2.23,4.94-2.55c5.13,0,8.23,2.9,8.89,7.34c0.79,5.56-2.02,12.31-6.11,13.38c-2.09,0.47-4.28,0.16-6.16-0.89
				c-3.8-2.35-7.19-5.35-11.11-8.34c-3.85,5.32-10.09,4.62-16.16,4.54c-6.86-0.08-13.74-0.33-20.59,0
				c-7.82,0.38-14.81-1.27-19.88-6.78c-3.85,3.48-7.9,6.74-12.13,9.76c-3.47,2.21-7.98,1.94-11.16-0.67
				c-3.38-2.49-5.16-6.61-4.64-10.78c0.3-3.82,3.7-6.39,8.52-6.58C2775.71,1416.75,2777.72,1418.4,2778.74,1422.65z
				 M2877.88,1386.13c-8.43,5.12-17.39,10.4-26.13,16.05c-1.91,1.23-2.93,3.83-3.9,5.15c4.1-2.57,8.23-5.78,12.75-7.83
				C2867.44,1396.64,2873.4,1392.03,2877.88,1386.13z"/>
			<path class="st0" d="M2708.29,1294.51c0.59,6.96,1.43,13.89,1.73,20.87c0.3,6.98,0,13.58,0,20.42
				c-11.52-6.3-18.81-15.17-18.76-29.34c0-11.39-0.87-22.76-1.37-34.15c0-4.16-1.93-8.07-5.23-10.6c-4.05-3.13-7.82-6.58-12-9.56
				c-10.94-7.72-10.07-32.57,0.2-40.65c4.02-3.16,8.39-4.23,13.17-2.19c10.88,4.72,22.1,3.72,33.21,1.78
				c3.7-0.64,6.99-3.64,10.37-5.51c1.73,5.2,0,9.45-6.68,14.14l2.9,0.54c-2.34,7.9-11.83,11.52-18.33,6.4
				c-5.46-4.31-11.52-3.67-17.39-3.79c-6.93-0.13-10.45,5.22-8.84,11.93c1.05,4.36,2.12,8.8,6.17,11.22c0-4.61-0.3-9.22,0.08-13.76
				c0.38-4.54,3.42-5.96,8.79-5.45c4.41,0.41,5.15,3.01,4.66,6.71c-0.89,6.13,0.23,12.38,3.18,17.82c2.34,4.56,3.1,9.77,2.16,14.81
				c-0.41,3,1.42,6.3,2.24,9.46l1.74-0.35c0-11.4,0-22.81,0-34.23c0.12-1.66,0.38-3.31,0.76-4.94c1.5,0.92,3.42,1.51,4.43,2.81
				c3.98,5.12,6.25,10.94,5.32,17.56c-1.17,8.23,0.76,15.9,3.7,23.5c7.42,18.49,10.79,38.37,9.87,58.27c-0.35,6.58,0,13.07,0,19.11
				c-3.92-3.74-8.39-7.77-12.54-12.13c-1.13-1.47-1.79-3.24-1.91-5.09c-0.97-9.73-1.65-19.5-2.65-29.23
				c-0.41-3.77-1.33-7.46-2.75-10.98c-0.95-2.35-3.19-4.18-4.85-6.24L2708.29,1294.51z"/>
			<path class="st0" d="M2879.13,1102.66l-0.66,0.58c-6.27,4.94-12.29,3.9-18.32-0.61c-4.08-3.06-8.41-5.78-12.56-8.76
				c-7.8-5.6-13.53-4.59-19.55,2.91c-0.87,1.09-4.13,1.05-5.92,0.44c-2.53-0.86-4.21-3.29-2.53-5.96
				c6.04-9.68,12.97-18.42,25.24-21.53c-2.19-0.25-4.4-0.22-6.58,0.1c-6.32,1.79-10.8,6.02-14.4,11.52
				c-1.57,1.91-3.34,3.65-5.28,5.18c-0.23-2.19-0.59-4.38-0.67-6.58c-0.2-4.81-0.26-9.63-0.36-14.43c-0.26-5.09,2.34-9.9,6.75-12.46
				c8.05-5.13,16.64-5.45,25.71-3.52c13.84,2.95,25.52,9.87,35.99,18.99c4.13,3.64,8.13,7.42,12.7,11.6
				c-6.34,1.86-10.38,4.94-12.98,10.45c-0.95,1.99-4.33,3.01-6.78,3.98c-1.56,0.31-3.17,0.34-4.74,0.1l-0.12,1.28l7.92,0.82
				L2879.13,1102.66z M2870.47,1102.2l0.35-0.54c-2.53-3.19-5.1-6.37-7.62-9.59c-1.91-2.47-4.13-3.21-7.42-1.65L2870.47,1102.2z"/>
			<path class="st0" d="M2709.79,1401.28c9.43-4.82,9.87-13.76,10.12-22.55c3.44-0.95,6.73-1.65,9.87-2.8
				c4.36-1.27,7.29-5.34,7.11-9.87c0-4.66,0.44-9.31,0.69-13.96l1.18-0.3c1.04,4.08,2.8,8.13,3,12.24
				c0.51,10.61,0.31,21.25,0.49,31.88c0.19,1.57,0.52,3.12,0.97,4.64c1.51,7.88,3.29,15.8-1.48,23.29
				c-0.26,0.35-0.46,0.75-0.58,1.17c-1.94,10.88-10.52,13.17-19.37,14.25c-6.99,0.55-14,0.65-21,0.28c-3.42,0-5.48-1.46-4.41-5.6
				c0.47-1.83,0.2-3.76-0.74-5.4c-4.77-6.5-2.19-13.07-0.97-20.37c6.75,4.61,13.68,4.54,20.97,3.52
				c5.96-0.84,13.92,4.43,15.44,10.12c0.71,2.68-0.31,5.81-0.54,8.66c9.28-2.34,11.93-10.94,5.23-17.95
				c-6.06-6.32-12.8-7.45-20.69-3.51c-7.59,3.82-20.19,0.41-24.27-7.11c-1.28-2.73-1.61-5.8-0.94-8.74
				c1.65-7.37,11.52-14.73,19.04-14.63c3.1-0.09,5.71,2.3,5.89,5.4C2715.76,1390.42,2714.67,1396.35,2709.79,1401.28z"/>
			<path class="st0" d="M2753.64,1081.81c4.16,2.52,7.7,1.27,11.32-0.2c6.09-2.45,12.15-5.04,18.4-6.99
				c6.51-2.11,13.62-1.19,19.39,2.5c2.01,1.18,4.1,2.24,6.24,3.18c4.1,1.86,5.69,5.15,5.74,9.66l-7.39-5.96l-1.3,1.25
				c7.54,4.59,10.84,11.37,11.67,19.44l-1.14,0.87c-1.08-0.74-2.09-1.57-3.03-2.48c-2.95-3.44-5.4-7.41-8.75-10.35
				c-2.32-2.04-5.78-2.91-8.84-3.97c-0.69-0.25-1.89,0.79-2.8,1.33c-2.16,1.27-4.16,3.49-6.42,3.72c-6.97,0.89-13.67,3.3-19.6,7.08
				c-3.59,2.23-7.42,4.04-11.42,5.41c-6.71,2.16-11.77-0.46-15.6-6.37c-2.73-3.87-5.75-7.53-9.05-10.93
				c-1.65-1.79-2.8-3.29-0.89-5.6c15.17-18.94,34.36-30.77,58.83-32.35c11.7-0.76,11.65,1.83,16.34,11.09
				c1.65,3.29,0,6.42-2.37,8.71s-4.81,0.54-7.11-0.87c-1.38-1.06-3.03-1.73-4.76-1.94c-13.31,0.44-26.33,2.09-36.44,12.16
				C2754.29,1080.7,2753.94,1081.24,2753.64,1081.81z M2740.48,1087.95l-0.74,1.55c0.98,1.49,2.11,2.87,3.37,4.13
				c3.74,3,8.76,3.88,13.3,2.32c10.05-2.96,19.99-6.4,29.97-9.66c0.2,0,0.28-0.46,0.53-0.86l-3.29-4.31
				c-4.79,8.72-13.79,8.43-20.85,11.73c-8.48,3.95-15.14-1.63-22.27-4.9H2740.48z"/>
			<path class="st0" d="M2673.42,1161.03l-7.11,11.87l0.77,0.51l6.25-8.49c4.1,4.59,4.76,8.54,2.02,13.17
				c-2.93,4.94-6.15,9.59-9.35,14.3c-0.49,0.72-1.94,1.65-2.24,1.51c-1.06-0.67-1.91-1.65-2.42-2.8
				c-2.53-6.83-2.14-13.92-0.63-20.77c1.36-5.19,3.26-10.22,5.68-15.01c2.68-5.83,5.73-11.52,8.85-17.08
				c3.13-5.56,7.39-6.58,12.52-2.29c2.41,2.14,4.62,4.51,6.58,7.08c13.17,16.11,29.38,20.49,48.96,13.17
				c1.09-0.39,2.19-0.76,3.29-1.14c0.51,5.36-9.22,15.3-22.02,22.68c6.58,0.81,13.66-4.33,25.44-18.63
				c-3.62,14.17-11.36,23.91-24.69,27.42c-23.71,6.27-39.83-4.36-50.34-25.66L2673.42,1161.03z M2710.94,1167.29l0.72-2.01
				c-2.3-0.65-4.51-1.58-6.58-2.76c-8-5.97-17.3-10.43-22.76-19.47c-1.91-3.16-4.59-3.04-6.58,0c-2.28,3.55-4.26,7.28-5.92,11.16
				c-0.79,1.89-0.43,4.28-0.59,6.45c0.84-0.06,1.61-0.48,2.12-1.15c5.78-8.05,11.52-9.12,19.75-3.47c3.29,2.34,6.37,5.22,9.87,7.22
				c3.22,1.59,6.55,2.92,9.97,4V1167.29z"/>
			<path class="st0" d="M2688.24,1387.97c0.49-3.03,0.95-5.13,1.19-7.29c0.87-7.95,1.65-15.93,2.5-23.88
				c0.63-5.48,1.09-11.03,2.21-16.46c1.28-6.14,7.39-8.59,12.46-4.72c7.9,6,15.48,12.43,22.69,19.24c3.97,3.79,7.54,8.77,4.74,14.81
				c-2.8,6.04-8.49,5.28-13.72,5.51c-1.31,0.12-2.62,0.12-3.93,0c-9.13-1.33-16.6,1.86-23.04,8.23
				C2691.91,1384.81,2690.4,1386.13,2688.24,1387.97z"/>
			<path class="st0" d="M2770.56,1130.88c-1.6,5.08-5.68,8.99-10.83,10.37c-9.37,3.16-19.54,3.04-28.83-0.33
				c-11.12-3.69-21.45-9.44-30.45-16.95c-6.22-5.36-7.04-5.45-14.14-1.09c-2.43,1.8-4.97,3.45-7.6,4.94
				c1.12-2.22,1.79-4.94,3.46-6.58c6.39-6.58,13.51-12.03,22.73-14.12c3.42-0.95,7.07,0.15,9.4,2.83
				c14.61,14.51,31.93,22.2,52.91,20.65c0.72,0,1.46,0,2.19,0C2769.79,1130.66,2770.18,1130.75,2770.56,1130.88z M2695.95,1112.57
				c3.46,1.15,6.84,2.51,10.12,4.08c6.09,3.42,11.88,7.39,17.97,10.83c4.46,2.52,9.2,4.53,13.81,6.76
				c-11.7-7.39-23.52-14.49-35.46-21.3C2700.85,1112.12,2698.5,1112.7,2695.95,1112.57z"/>
			<path class="st0" d="M2769.15,1137.8l12.77-11.85c-9.3,0.44-16.46-4.44-24.21-6.68c-3.29,8.06-5.86,9.35-13.97,5.32
				c-4.94-2.42-9-6.3-13.33-9.71c-1.96-1.55-3.49-3.57-5.33-5.22c-9.07-8.23-18.93-6.68-28.96-2.21c-1.94,0.87-3.75,2.06-5.91,3.29
				c2.14-4.34,9.07-9.31,18.46-11.52c7.08-1.65,14.56-1.38,21.71-1.96c-2.42-6.91-8.99-10.07-16.21-7.26
				c-3.06,1.2-6.12,2.42-9.17,3.64l-0.53-1.37c4.79-1.84,9.48-4.05,14.4-5.43c4.66-1.32,8.51,0.61,11.39,4.61
				c3.14,4.39,6.48,8.64,9.76,12.95c4.24,5.52,10.61,9.01,17.54,9.61c3.34,0.29,6.62,1.05,9.74,2.27
				c6.01,2.76,12.64,3.88,19.22,3.24c1.59-0.22,3.2-0.17,4.77,0.13c0.49,0.12,1.09,2.47,0.79,2.68
				c-7.06,5.32-14.22,10.47-21.39,15.65C2770.17,1137.98,2769.65,1137.91,2769.15,1137.8z"/>
			<path class="st0" d="M2662.29,1212c3.62-11.24,11.52-19.27,19.48-27.43c18.56,11.12,36.9,12.23,56.36-0.41
				c-4.53,7.29-8.23,14.48-13.07,20.7c-4.43,5.61-10.81,5.68-18.43,2.47c-6.58-2.8-13.45-5.35-20.32-7.54
				c-8.33-2.63-15.19-0.44-20,7.24C2665.09,1208.77,2663.74,1210.43,2662.29,1212z"/>
			<path class="st0" d="M2749.71,1147.34c-0.5,0.68-1.05,1.33-1.65,1.93c-10.3,7.5-29.03,6.99-38.85-1.12
				c-5.17-4.28-10.09-8.89-15.42-12.93c-3.36-2.26-6.87-4.28-10.5-6.07c4.57-5.22,6.71-5.09,13.17-1.53
				c5.28,3.05,10.03,6.94,14.05,11.52c5.48,5.91,12.9,7.78,20.64,8.23C2737.01,1147.51,2742.83,1147.34,2749.71,1147.34z"/>
			<path class="st0" d="M2851.23,1115.46c-4.23,3.54-8.31,2.22-12.61,0.91c-5.96-1.84-12.05-3.29-18.1-4.94
				c-10.22-2.73-19.57,1.12-29.06,3.85c-2.63,0.87-5.32,1.56-8.05,2.06c-2.53,0.27-5.09,0.15-7.59-0.38
				C2790.65,1105.18,2836.95,1103.78,2851.23,1115.46z"/>
			<path class="st0" d="M2791.05,1188.93c-7.36,5.07-14.98,6.19-22.92,2.75c-1.63-1.03-3.1-2.29-4.36-3.75
				C2774.99,1175.3,2786.56,1177.36,2791.05,1188.93z"/>
			<path class="st0" d="M2760.56,1185.55c0-0.81-0.35-1.88,0-2.39c6.58-8.39,17.05-15.16,28.34-7.5c3.09,2.18,5.83,4.82,8.11,7.83
				c2.47,3.16,1.14,5.69-2.96,6.76c-0.49-6.58-7.72-13.61-14.04-13.96c-8.11-0.44-13.17,5.15-18.51,10.02L2760.56,1185.55z"/>
			<path class="st0" d="M2867.34,1110.41c-2.65,2.8-5.38,1.65-8.23,0c-3.13-1.83-6.19-3.82-9.45-5.35
				c-3.96-2.04-8.63-2.14-12.67-0.26c-2.78,1.32-4.94,0.58-6.02-2.22c-1.14-3.09,1.09-4.94,3.55-5.33c2.7-0.45,5.46-0.19,8.03,0.76
				c5.36,2.19,10.45,4.94,15.63,7.64C2861.22,1107.17,2864.13,1108.73,2867.34,1110.41z"/>
			<path class="st0" d="M2787.77,1099.5c5.43-3.9,10.91-4.38,16.05,0.1c1.38,1.2,1.93,3.37,2.83,5.04
				C2798.5,1107.56,2792.3,1106.64,2787.77,1099.5z"/>
			<path class="st0" d="M2790.11,1191.44c-8.74,9.53-21.81,9.1-27.98-0.91C2771.3,1196.99,2780.57,1198.41,2790.11,1191.44z"/>
			<path class="st0" d="M2841.06,1191.21c-2.62-2.37-4.76-4.94-2.62-8.69c7.44-4.94,14.98-4.94,22.58-0.41c3.9,2.3,4,4.94,0.58,7.85
				c-4.94,4.36-10.53,4.38-16.46,2.57L2841.06,1191.21z"/>
		</g>
	</g>
	<polygon points="2714.27,928.57 2702.64,938.86 2706.43,947.78 2721.48,938.86 	"/>
	<polygon points="2910.35,938.86 2922.05,947.78 2925.42,941.2 2910.59,933.31 	"/>
</g>
</svg>
