<?xml version="1.0" encoding="utf-8"?>
<!-- Generator: Adobe Illustrator 25.2.3, SVG Export Plug-In . SVG Version: 6.00 Build 0)  -->
<svg version="1.1" id="Layer_1" xmlns="http://www.w3.org/2000/svg" xmlns:xlink="http://www.w3.org/1999/xlink" x="0px" y="0px"
	 width="612px" height="792px" viewBox="0 0 612 792" style="enable-background:new 0 0 612 792;" xml:space="preserve">
<style type="text/css">
	.st0{fill:#010101;}
	.st1{fill:#1B1B1B;}
</style>
<g id="YhqljX.tif">
	<path class="st0" d="M44.77,348.36l17.09-14.14c0.68-0.57,1.3-1.18,2.47-2.24c-5.49,0.97-9.99,4.1-15.13,2.73l-0.49-0.94
		c1.75-1.48,3.62-2.81,5.59-3.98c7.94-3.98,15.98-7.75,23.99-11.62c3.61-1.72,7.23-3.39,10.79-5.21c1.13-0.7,2.21-1.49,3.23-2.36
		c-7.54-2.73-7.73-3.68-2.83-9.59c9.64-11.67,22.32-18.15,36.65-22.01c2.19-0.56,4.24-1.56,6.03-2.95
		c11.35-9.06,23.9-16.5,37.31-22.08c3.71-1.3,6.89-3.79,9.05-7.07c3.57-5.47,8.9-9.56,15.11-11.59h6.6
		c4.29,2.1,9.43,2.92,12.18,7.42c0.16,0.26,0.68,0.35,1.06,0.4c4.76,0.75,8.93,3.59,11.36,7.75v2.99c-1.04-0.14-2.36,0-3.11-0.49
		c-3.49-2.62-8.29-2.62-11.78,0c-1.52,0.82-3.09,1.53-4.71,2.12c-2.41,1.04-4.17,3.18-4.71,5.75c-3.46,11.62-5.44,23.73-12.68,34.03
		c-3.58,5.09-6.88,10.13-12.09,13.86c-4.7,3.35-9.06,7.15-13.03,11.34c-3.94,4.69-3.99,11.52-0.12,16.26
		c3.23,3.75,7.83,6.04,12.77,6.36c2.77,0.26,5.56,0.38,8.34,0.35c3.91,0.16,5.89,2.36,4.9,5.63c-1.32-3.18-3.49-3.58-6.79-2.36
		c1.7,1.37,2.99,2.52,4.41,3.53c2.12,1.48,1.98,2.88,0.8,3.91c-2.99-3.06-5.77-6.2-9.83-7.07c-7.07-1.41-11.26,3.65-16.17,7.49
		l1.86,2.36h-2.36c-2.22-3.98-1.84-5.18,2.36-7.45c1.51-0.77,2.96-1.64,4.34-2.62c1.44-1.08,1.48-2.36-0.26-3.28
		c-2.22-1.23-4.6-2.16-7.07-2.76c-6.39-1.01-9.69-6.1-6.9-11.78c1.04-2.23,1.09-4.8,0.14-7.07l-21.21,3.32
		c-0.16,1.06,1.79,3.13-1.01,4.05c-0.16,0-0.19,0.73-0.16,1.11c0.1,3.9,3.34,6.99,7.24,6.89c0.09,0,0.18-0.01,0.28-0.01
		c1.6,0,3.18-0.42,4.71-0.38c1.87-0.05,3.74,0.22,5.51,0.8c1.51,0.61,3.28,1.74,2.78,3.84l-5.68-2.36l-0.54,0.64
		c2.78,0.97,3.51,2.59,2.36,4.57c-0.78-0.57-1.51-1.56-2.36-1.6c-6.27-0.38-12.42-3.94-18.85-0.16c-2.36,1.32-4.71,1.63-3.3,5.37
		c-1.37-1.25-2.71-2.57-2.69-3.89s1.41-2.52,2.57-3.2c1.45-0.68,2.99-1.13,4.57-1.34c2.03-0.47,2.99-1.51,2.36-3.65
		c-0.49-1.51-0.9-3.09-1.51-4.55c-0.24-0.54-1.18-1.34-1.41-1.23c-2.62,1.23-2.88-1.08-3.49-2.36c-0.62-1.71-1.1-3.47-1.44-5.26
		c-1.79,0.8-3.53,1.46-5.21,2.36c-3.11,1.58-6.17,3.3-9.29,4.9c-12.51,6.43-24.96,13.01-37.71,19.21c-5.04,2.36-9.97,6.9-16.31,3.02
		c-0.16,0-0.4,0-0.59,0l-8.06-2.69L44.77,348.36z"/>
</g>
<g id="xe0DVo.tif">
	<path class="st0" d="M468.85,366.73c-6.16-5.01-12.26-10.06-18.49-14.98c-4.18-3.29-8.59-6.3-12.73-9.64
		c-0.93-0.76-1.22-2.23-1.78-3.54c-2.67-5.74-5.3-11.53-7.99-17.27c-3.06-7.37-6.64-14.51-10.73-21.36
		c-4.45-6.68-8.41-13.53-12.64-20.3c-0.37-0.64-0.85-1.2-1.42-1.67c-6.68-5.07-8.72-12.71-11.13-20.23
		c-1.85-5.52-6.83-9.4-12.64-9.81c-6.5-0.8-12.06-4.16-18.27-5.67h-4.45l-5.74,3.09c8.1,2.54,14.09,7.54,20.56,12.37l-17.54-6.54
		l2.09,3.43l-6.68,0.38v0.56c2.92,1.67,5.95,3.16,9.06,4.45c6.08,2.07,7.94,5.81,4.72,11.26c-3.36,5.1-4.75,11.24-3.92,17.29
		c0.98,6.34,0.8,12.86,4.25,18.65c1.4,2.36,2.23,5.1,3.72,7.34c2.65,4.26,5.68,8.28,9.06,12c5.37,4.87,8.06,12.03,7.25,19.23
		c-0.84,3.85-2.06,7.62-3.63,11.24c-0.53,1.6-1.42,1.82-2.96,1.16c-1.2-0.27-2.43-0.37-3.65-0.29l2.05,3.03
		c-3.83-0.8-7.05-1.38-10.21-2.23c-1.91-0.49-3.4-0.45-4.45,1.94l1.69-0.29c1.94,3.67,5.72,1.25,8.12,2.96
		c-2.05,1.09-5.56-1.45-6.25,2.85c0.56-0.16,1.16-0.47,1.31-0.33c1.89,1.87,3.87,0.93,5.85,0.27c5.65-1.74,11.65-2.05,17.45-0.89
		c1.25,0.03,2.5-0.12,3.72-0.42V364l1.54,1.07c0.62-2.36,0-3.34-2.23-3.16c-1.84,0.06-3.69-0.01-5.52-0.22
		c-2-0.16-2.98-1.11-2.49-3.29c1.24-6.85,4.1-13.31,8.35-18.83l16.47,3.43l-0.56,8.28c-0.29,4.21-1.47,4.78-5.05,2.51
		c-0.38-0.24-0.71-0.6-1.09-0.85c-1.89-1.27-3.23-0.82-3.94,1.13l4.05,3.25c-2.1,0.36-4.26,0.3-6.34-0.16
		c-2.23-0.45-3.69,0-4.16,1.91c0.97-0.04,1.94,0.02,2.89,0.18c1,0.27,1.91,1.16,2.87,1.2c5.41,0.18,10.88-0.31,15.98,2.23
		c0.73,0.19,1.48,0.23,2.23,0.13l2.54,0.13c0.31-1.94-0.22-3.16-2.74-3c-1.22-0.09-2.43-0.33-3.58-0.73l2.23-4.74l-2.76-0.78
		l1.09-9.28c3.78,0.85,3.69,5.5,7.37,6.03c-0.02,2.45,1.06,4.79,2.96,6.34c2.47,2.23,4.01,5.5,6.68,7.5
		c3.06,2.45,6.53,4.33,10.26,5.54c3.92,0.82,7.92,1.25,11.93,1.29l6.68,0.56h2.76c2.56-1.74,6.68-0.27,8.3-3.87L468.85,366.73z"/>
</g>
<g id="Calque_2_00000132059983599406138900000011123412982096461233_">
	<g id="Calque_1-2_00000096763981315809710820000009977534947429774491_">
		<path class="st1" d="M130.41,430c-2.72-1.55-4.56-3.41-5.56-5.85c-1.08-2.66-2.93-3.64-5.65-3.78c-2.56-0.12-5.05-0.09-7.42,0.98
			c-0.77,0.35-1.48,0.83-2.61,1.47c2.23,0.56,4.12,0.77,5.73,1.53c1.71,0.78,3.26,1.87,4.57,3.21c1.27,1.33,2.07,3.12,3.18,4.87
			c2.64-0.13,4.53,1.35,6.09,3.53c0.71,0.95,1.54,1.8,2.48,2.52c1.81,1.43,3.6,1.38,5.35-0.16c0.77-0.68,1.46-1.44,2.05-2.28
			c1.52-2.2,3.44-3.67,6.32-3.58c2.18-5.95,6.57-8.86,13.18-9.2c-1.07-1.21-2.49-2.07-4.06-2.47c-2.71-0.76-5.47-0.61-8.21-0.14
			c-1.43,0.24-2.24,1.29-3.01,2.46c-1.34,2.04-2.81,3.98-4.27,5.94c-0.44,0.44-0.92,0.85-1.43,1.21c-0.11-1.3-0.35-2.21-0.22-3.05
			c0.34-2.16,0.15-4.1-1.61-5.49c-0.08-1.48,0.69-2.22,1.75-2.94c4.45-3.02,9.43-3.08,14.37-2.26c11.54,1.91,19.12,8.71,23.01,19.66
			c0.34,0.96,0.65,1.94,0.91,2.93c2.27,8.42,7.57,14.58,14.54,19.49c1.8,1.39,4.23,1.62,6.26,0.59c2.45-1.14,3.13-2.94,2.05-5.42
			c-0.48-1.08-1.05-2.11-1.75-3.5c0.67,0.14,1.34,0.33,1.98,0.57c2.92,1.35,5.1,3.9,5.98,7c0.6,1.99,0.33,4.15-0.74,5.93
			c-1.61,2.77-3.63,3.66-6.77,2.83c-2.12-0.56-4.21-1.27-6.83-2.06c1.23,2.39,2.61,4.15,4.78,4.61c6.59,1.39,12.86,0.78,18.16-3.98
			c0.35-0.32,0.67-0.68,0.96-1.06c2.16-2.78,1.49-5-1.88-6.12c-0.36-0.12-0.75-0.18-1.43-0.34c0.68-1.6,1.22-3.14,1.96-4.58
			c1.11-2.14,3.07-2.97,5.57-2.54s4,1.78,4.33,4.26c0.48,3.52,0.75,7.05,1.15,10.58c0.18,1.11-0.24,2.23-1.1,2.95
			c-2.23,2-4.38,4.09-6.61,6.07c-1.78,1.59-3.99,2.23-6.32,2.34c-4.96,0.25-9.93,0.4-14.89,0.65c-2.06,0.11-3.32-0.65-4.26-2.57
			c-6.4-12.92-12.87-25.81-19.42-38.66c-1.64-3.21-3.79-6.17-5.7-9.25c-0.6-0.96-1.46-1.32-2.93-1.22c0.38,0.96,0.53,1.84,1,2.47
			c6.33,8.46,8.7,18.25,9.62,28.52c0.3,3.38,0.48,6.77,0.89,10.13c0.21,1.4,0.59,2.77,1.14,4.07c0.32,0.84,1.09,1.52,2.05,1.15
			c0.96-0.37,1.03-1.27,0.75-2.2c-0.59-1.96-1.12-3.94-1.73-5.89c-0.25-0.82-0.24-1.43,1-1.56l6.33,10.1l-6.36,8.22
			c-0.36,0.03-0.56,0.12-0.66,0.05c-2.71-1.76-4.87-4.24-6.25-7.17c-0.43-0.92-0.28-2.16-0.22-3.25c0.43-7.09,0.78-14.18-0.3-21.25
			c-0.96-6.37-2.65-12.5-6.69-17.68c-0.76-0.96-1.43-2.11-2.94-2.21c-0.61,0.79-0.23,1.53,0.22,2.14c1.91,2.55,2.29,5.49,2.19,8.53
			c-0.34,10.09-0.7,20.17-1.08,30.26c-0.27,6.78-0.62,13.55-0.96,20.32c-0.05,1.08-0.05,2.22-1.25,2.91
			c-1.14-1.05-0.85-2.36-0.76-3.55c0.19-2.28-0.61-4.15-2.17-5.83c-1.89,0.59-3.34,2.12-3.82,4.04c-1.86,6.28-2.13,12.74-2.39,19.2
			c-0.41,10.24-0.91,20.49-1.05,30.73c-0.07,5.03,0.58,10.06,0.96,15.09c0.15,0.88,0.37,1.75,0.65,2.6
			c0.55-0.63,0.99-0.96,1.18-1.38c1.36-3.27,1.79-6.51-0.48-9.62c-0.29-0.35-0.44-0.8-0.41-1.25c0.85-3.68,1.49-7.44,3.74-10.63
			c0.42-0.5,0.86-0.98,1.33-1.43c-0.19,3.6-0.35,6.8-0.53,9.99c-0.27,5.04-0.54,10.08-0.82,15.12c-0.03,0.55-0.04,1.1-0.11,1.65
			c-0.28,2.1-1.05,3.02-2.59,3.13c-1.73,0.13-3.35-0.82-3.71-2.64c-0.59-2.69-0.96-5.42-1.11-8.17c-0.17-4.17-0.03-8.36,0-12.53
			c0.09-7.1,0.23-14.19,0.29-21.29c0.01-1.5-0.11-2.99-0.35-4.47c-0.14-0.87-0.63-1.69-1.01-2.66c-1.43,1.1-1.27,2.39-1.27,3.64
			c0,11.51,0.01,23.03,0.03,34.54c0,5.05-0.07,10.09-0.06,15.14c0,1.48-0.24,2.87-1.19,4c-3,3.54-6.06,7.02-9.2,10.65
			c-0.66-0.56-1.15-0.92-1.57-1.35c-2.81-2.87-5.53-5.85-8.44-8.6c-1.37-1.3-1.62-2.72-1.62-4.45c0.03-16.72,0.03-33.44,0-50.18
			c0-1.19,0.06-2.39-1.27-3.46c-0.38,0.84-0.89,1.55-0.99,2.31c-0.26,1.79-0.38,3.6-0.38,5.41c0.09,9.78,0.29,19.55,0.35,29.33
			c0,2.83-0.23,5.67-0.48,8.5c-0.14,1.99-0.96,3.87-2.3,5.34c-1.53,1.69-3.44,1.4-4.24-0.75c-0.53-1.32-0.85-2.71-0.96-4.13
			c-0.34-7.8-0.57-15.6-0.84-23.42c0.06-0.26,0.16-0.5,0.28-0.74c0.96,1.43,1.88,2.68,2.39,4.14c0.6,1.71,1.1,3.46,1.66,5.18
			c0.58,1.66,0.4,3.49-0.48,5.01c-1.87,3.41-1.06,6.69,0.68,9.88c0.06,0.11,0.26,0.14,0.62,0.32c0.71-2.16,1.14-4.4,1.28-6.66
			c0.96-12.9,0.56-25.84-0.16-38.77c-0.4-7.24-1.29-14.45-2.66-21.57c-0.33-1.72-0.57-3.43-2.35-4.4c-1.52-0.83-2.64-0.69-3.27,0.9
			c-0.39,1.19-0.57,2.43-0.54,3.68c-0.09,2.53-0.03,2.54-1.04,4.3c-1.19-0.62-1.12-1.75-1.16-2.81c-0.32-7.96-0.65-15.91-0.96-23.89
			c-0.32-8.43-0.56-16.86-0.92-25.29c-0.14-3.29,0.08-6.42,1.94-9.31c0.56-0.88,1.27-2.01,0.42-3.44c-0.46,0.3-0.9,0.63-1.32,0.99
			c-4.86,4.93-7.27,11.06-8.15,17.75c-0.61,4.67-0.63,9.42-0.75,14.15c-0.07,2.83,0.11,5.68,0.29,8.51
			c0.16,2.23-0.53,4.43-1.94,6.16c-1.1,1.44-2.28,2.82-3.52,4.14c-1.09,1.12-1.74,1-2.66-0.3c-1.68-2.39-3.35-4.78-5.04-7.23
			c3.25-6.82,5.16-9.51,7.25-10.06c0.26,1.03-0.43,1.79-0.75,2.6c-0.69,1.78-1.28,3.58-1.03,5.51c0.14,0.49,0.36,0.96,0.64,1.39
			c0.5-0.27,1.13-0.43,1.49-0.83c1.38-1.55,1.73-3.46,1.84-5.49c0.19-3.78,0.33-7.56,0.76-11.32c1.03-9.08,3.64-17.57,9.08-25.05
			c0.77-1.07,1.73-2.11,1.31-3.74c-0.96-0.38-1.75-0.04-2.39,0.76c-2.17,2.6-4.34,5.19-5.84,8.29
			c-6.05,12.49-12.18,24.94-18.25,37.42c-2.52,5.19-3.32,5.64-8.96,5.21c-4.48-0.34-8.97-0.62-13.46-0.87
			c-1.03,0.01-2.02-0.36-2.79-1.04c-2.91-2.66-5.85-5.29-8.82-7.88c-0.76-0.58-1.13-1.55-0.96-2.49c0.5-3.37,0.86-6.71,1.38-10.06
			c0.62-4.01,4.81-6.04,8.43-4.1c0.6,0.36,1.08,0.89,1.38,1.52c0.72,1.57,1.29,3.2,1.97,4.96c-0.55,0.26-1.1,0.53-1.65,0.77
			c-3.17,1.4-3.59,3.13-1.38,5.86c2.97,3.66,6.92,5.36,11.52,5.7c1.43,0.11,2.87-0.04,4.25,0.08c3.91,0.34,6.11-2.18,8.8-5.09
			c-0.67,0.02-1.34,0.1-2,0.22c-1.58,0.48-3.13,1.08-4.72,1.56c-2.39,0.72-4.69,0.88-6.59-1.13c-2.02-2-2.68-4.98-1.71-7.65
			c1.26-3.89,4.13-6.13,8.12-7.78c-0.79,1.49-1.43,2.63-2.01,3.82c-0.96,1.91-0.67,3.21,0.92,4.62c2.16,1.91,4.64,2.11,7.17,0.48
			c6.73-4.3,11.6-10.13,14.29-17.68c0.69-1.91,1.24-3.9,1.91-5.83c4.68-13.38,18.97-21.53,32.59-18.49c1.75,0.44,3.42,1.15,4.96,2.1
			c1.43,0.83,1.75,2.15,0.68,3.17c-1.71,1.63-1.39,3.51-1.32,5.44C130.43,428.19,130.41,428.89,130.41,430z M157.17,431.17
			c-0.42,0.43-0.9,0.7-0.96,1.03c-0.08,0.78-0.08,1.57,0,2.36c0.43,7.79,0.83,15.59,1.3,23.38c0.19,2.93-0.47,5.85-1.91,8.4
			c-4.49,8.24-8.87,16.52-13.4,24.74c-1.45,2.54-2.15,5.43-2.02,8.35c0.19,4.56,0.22,9.15,0.09,13.72
			c-0.08,2.66-0.56,5.31-0.91,7.96c-0.15,0.53-0.36,1.05-0.63,1.53c-0.21-0.37-0.34-0.51-0.34-0.64c-0.02-0.71,0-1.42,0.06-2.13
			c0.84-7.72,0.33-15.44-0.19-23.15c-0.3-3.3,0.09-6.62,1.14-9.76c1.26-3.56,2.35-7.17,3.42-10.81c0.2-0.67,0.27-1.77-0.11-2.17
			c-1.4-1.33-2.86-2.6-4.39-3.78c-0.24,1.16-0.28,2.35-0.11,3.53c0.14,1.49,0.35,2.98,0.43,4.47c0.25,3.33-0.66,6.65-2.58,9.39
			c-0.53,0.86-0.81,1.86-0.8,2.87c-0.1,4.26,0,8.52-0.11,12.77c-0.13,2.12-0.37,4.24-0.72,6.33c-0.15,0.55-0.37,1.09-0.64,1.6
			c-1.06-1.16-1.01-2.34-1.05-3.49c-0.16-5.44-0.33-10.88-0.48-16.31c0.05-1.58-0.41-3.14-1.31-4.44c-1.65-2.25-2.18-4.87-2.05-7.62
			c0.09-1.91,0.27-3.78,0.4-5.66c0.07-1.06,0.11-2.13,0.2-3.68c-1.4,1.18-2.39,2.05-3.4,2.87c-1.81,1.43-1.97,1.8-1.3,4.01
			c1.05,3.47,2.08,6.95,3.17,10.4c0.81,2.63,1.17,5.38,1.08,8.13c-0.17,7.88-0.24,15.77-0.35,23.65c0,0.78,0,1.55,0,2.33
			c-1.19-1.81-1.34-3.77-1.36-5.73c-0.06-5.83-0.11-11.67-0.09-17.5c0.03-2.29-0.57-4.54-1.73-6.52
			c-4.41-7.65-8.7-15.36-13.09-23.01c-1.77-3.09-2.76-6.28-2.54-9.9c0.48-7.55,0.78-15.12,1.14-22.68c0.07-1.43,0-2.92,0-4.69
			c-1.5,0.66-2.55,2.05-2.79,3.67c-0.14,0.93-0.2,1.88-0.19,2.82c-0.05,9.3-0.05,18.61-0.16,27.91c-0.05,2.13,0.59,4.22,1.83,5.95
			c4.75,6.88,9.39,13.82,14.12,20.71c1.2,1.67,1.85,3.68,1.87,5.73c0.32,16.16,0.73,32.32,1.11,48.48c0,0.92,0.11,1.84,0.18,2.75
			l0.53,0.12c0.4-0.88,0.96-1.72,1.14-2.64c0.26-1.3,0.21-2.66,0.35-3.99c0.08-0.76,0.28-1.52,0.43-2.28
			c0.6,2.28,0.68,4.53,2.55,6.75c0.29-0.94,0.5-1.9,0.65-2.87c0.11-1.43,0.06-2.83,0.09-4.25c0-1,0.06-2.01,1.33-3
			c0.25,0.93,0.45,1.88,0.6,2.83c0.18,1.88,0.25,3.78,0.41,5.66c0.05,0.64,0.2,1.3,1.36,1.05l1.32-6.05l0.48,0.05
			c0.04,0.76,0.04,1.53,0.14,2.28c0.23,1.79,0.48,3.58,0.82,5.36c0.06,0.33,0.51,0.59,1.13,1.26c0.18-3.35,0.4-6.13,0.48-8.95
			c0.34-13.48,0.69-26.96,0.91-40.43c-0.01-3.24,0.98-6.41,2.83-9.08c4.56-6.62,9.02-13.31,13.53-19.96
			c0.76-1.12,1.39-2.23,1.38-3.67c-0.08-10.17-0.1-20.34-0.17-30.51C159.26,434.95,158.32,433.14,157.17,431.17z M115.86,437.75
			l-0.66,0.08c0,0.55-0.15,1.15,0,1.64c2.87,8.32,6.12,16.43,13.35,22.14c1.22,0.96,1.62,2.22,1.43,3.78
			c-0.06,0.67,0.14,1.33,0.55,1.86c1.09,1.26,1.15,2.66,1.08,4.2c-0.12,2.43-0.1,4.87-0.07,7.32c0,1.69,0.75,3.01,2.59,3.87
			c0.54-0.84,1.4-1.61,1.55-2.49c0.38-1.76,0.46-3.58,0.24-5.37c-0.35-2.02-0.19-4.09,0.48-6.02c0.53-1.48,0.9-3.01,1.1-4.56
			c0.09-0.92,0.54-1.77,1.25-2.36c2.06-2.04,4.23-4.04,5.97-6.34c3.41-4.51,5.35-9.8,7.27-15.05c0.29-0.78,0.12-1.73,0.17-2.6
			l-0.65-0.18c-0.36,0.72-0.74,1.43-1.08,2.16c-1.75,3.7-3.42,7.45-5.26,11.11c-1.48,3.06-3.47,5.84-5.89,8.23
			c-1.17,1.14-2.46,1.62-4.21,0.93c0.38-0.64,0.7-1.25,1.08-1.82c1.68-2.48,3.39-4.94,5.08-7.41s3.46-5.08,5.22-7.6
			c0.57-0.82,0.6-1.43-0.68-1.79l-10.67,12.6l-1.02-5.5c-1.87,1.62-0.76,3.74-2.07,5.17c-1.21-1.43-2.39-2.78-3.54-4.15
			c-1.22-1.43-2.42-2.91-3.67-4.3c-1.15-1.29-2.04-2.87-3.8-3.61c0,1.49,0.71,2.65,1.5,3.77c2.41,3.41,4.84,6.81,7.26,10.21
			c1.01,1.31,1.68,2.85,1.95,4.48c-0.3,0-0.6-0.02-0.89-0.07c-2.73-0.7-5.01-2.56-6.26-5.08c-2.52-4.72-4.9-9.51-7.33-14.29
			C116.72,439.74,116.31,438.74,115.86,437.75z M154.16,442.92l-0.67-0.17c-2.79,3.22-4.32,6.91-3.61,11.33
			c0.64,3.93-0.55,7.32-2.91,10.35c-0.63,0.81-1.61,1.35-2.75,2.27c-0.16-1.83-0.22-3.14-0.4-4.43c-0.11-0.8-0.54-1.68-1.46-1.52
			c-0.52,0.1-1.13,0.84-1.3,1.4c-0.61,1.97-0.59,4.09,0.08,6.05c0.69,2.06,2.39,3.11,4.62,2.87c4.56-0.52,9.1-5.12,8.86-9.53
			c-0.28-5.1-0.09-10.24-0.15-15.35C154.46,445.09,154.27,443.99,154.16,442.92L154.16,442.92z M123.35,466.15
			c-0.85-0.44-1.46-0.63-1.88-1.02c-3.12-2.9-4.89-6.34-4.05-10.73c0.68-3.36-0.05-6.86-2.01-9.68c-0.64-0.82-1.34-1.6-2.08-2.33
			c-0.15,1.09-0.28,1.61-0.29,2.13c-0.09,5.59-0.22,11.19-0.2,16.78c0,4.3,3.4,8.34,7.65,9.46c3.35,0.88,5.29-0.17,6.21-3.56
			c0.3-1.14,0.43-2.31,0.37-3.49c-0.08-0.78-0.38-1.52-0.85-2.14c-0.65-0.92-1.49-0.92-2.13-0.03c-0.38,0.58-0.62,1.23-0.72,1.91
			C123.3,464.35,123.29,465.25,123.35,466.15L123.35,466.15z M138.1,566.68c3.23-1.34,4.81-5.89,3.57-10.4
			C140.44,559.67,137.45,562.45,138.1,566.68L138.1,566.68z M129.98,566.55l-4.42-10.88c-1.29,5.15,0.58,9.88,4.41,10.87
			L129.98,566.55z"/>
		<path class="st1" d="M119.7,397.71c-0.86-0.42-1.68-0.89-2.55-1.21c-1-0.38-2.04-0.43-2.84,0.48c-0.68,0.76-0.48,1.65-0.05,2.43
			c1.28,2.35,2.59,4.67,3.92,7c0.56,0.99,1.55,1.21,2.6,1.39c1.71,0.29,3.4,0.67,5.09,1.05c0.34,0.14,0.66,0.31,0.96,0.51
			c-0.48,0.21-0.66,0.36-0.85,0.36c-7.96,0-15.93,0.16-23.79-1.47c-5.89-1.22-11.24-3.56-15.89-7.44c-3.82-3.18-5.2-7.17-4.28-12.02
			c0.76-4,2.42-7.65,4.46-11.13c1.16-2.03,3.16-3.46,5.46-3.89c7.37-1.51,13.51,0.8,18.51,6.3c0.48,0.55,0.59,1.48,0.86,2.24
			l-0.4,0.43c-0.85-0.21-1.69-0.5-2.49-0.85c-1.39-0.75-2.69-1.65-4.04-2.45c-5.38-3.19-10.68-1.51-13.28,4.2
			c-2.82,6.17-2.52,12.09,1.49,17.68c1.21,1.68,2.63,3.14,4.98,3.11c0.51-1.39-0.11-2.5-0.61-3.65c-1.26-2.83-2.25-5.73-1.99-8.9
			c0.08-1.41,0.36-2.8,0.83-4.14c1.09-2.87,3.9-3.82,6.47-2.23c2.39,1.5,4.72,3.15,7.06,4.75c0.32,0.28,0.61,0.58,0.88,0.91
			c-0.96,0.61-1.65,0.03-2.33-0.12c-3.15-0.73-5.04,0.48-5.66,3.64c-0.35,1.64-0.12,3.34,0.65,4.83c1.96,3.76,5.16,5.67,9.81,6.25
			c-0.71-1.35-1.35-2.73-1.91-4.14c-0.54-1.46-0.9-2.99-1.08-4.54c-0.09-1.62,0.63-3.17,1.91-4.16c1.17-0.99,2.51-1.49,3.92-0.73
			c1.44,0.78,2.8,1.7,4.07,2.74C120.45,395.64,120.61,396.66,119.7,397.71z"/>
		<path class="st1" d="M154.85,405.67c4.58-0.11,10.04-3.67,10.37-8.28c0.07-0.63,0.07-1.26,0.03-1.88
			c-0.43-4.06-1.95-5.17-5.97-4.42c-0.53,0.1-1.06,0.11-2.1,0.21c0.96-1,1.47-1.8,2.21-2.31c1.91-1.39,3.9-2.66,5.95-3.82
			c3.19-1.73,5.73-0.54,6.69,2.96c0.96,3.5,0.56,7.03-0.76,10.43c-0.57,1.47-1.18,2.92-1.75,4.39c-0.26,0.67-0.54,1.36,0.43,1.91
			c1.56-0.35,2.96-1.2,4-2.41c4.07-4.56,5.08-9.83,3.49-15.64c-0.47-1.59-1.11-3.12-1.91-4.56c-1.94-3.63-5.09-5.1-9.08-4.15
			c-1.51,0.43-2.95,1.05-4.3,1.85c-1.99,1.08-3.9,2.3-6,3.55c-0.48-1.51,0.07-2.45,0.74-3.35c3.9-5.09,12.33-8.04,18.49-6.46
			c2.17,0.5,4.09,1.76,5.4,3.56c2.23,2.98,3.76,6.42,4.48,10.06c1.13,6.16-0.89,11.17-5.79,15.02c-2.73,2.16-5.89,3.72-9.27,4.57
			c-3.73,0.93-7.55,1.6-11.35,2.16c-2.27,0.26-4.56,0.36-6.84,0.32c-3.38,0.05-6.76,0-10.14,0l-0.07-0.56
			c1.41-0.36,2.8-0.82,4.23-1.05c3.87-0.64,7.11-5.65,7.5-8.37c0.15-1.05,0.05-2.12-0.87-2.79s-1.97-0.33-2.91,0.13
			c-0.7,0.35-1.34,0.8-2.13,1.28c-0.45-1.43-0.27-2.47,1.04-3.21c1.51-0.85,2.94-1.84,4.5-2.58c1.68-0.79,2.87-0.31,3.69,1.33
			c0.91,1.69,1.11,3.67,0.57,5.51c-0.37,1.28-0.96,2.5-1.43,3.74C155.65,403.75,155.26,404.65,154.85,405.67z"/>
		<path class="st1" d="M204.04,441.38c1.58-1.13,3.08-2.39,4.78-3.35c2.7-1.51,4.78-3.93,5.86-6.83c3.35-8.23,1.81-15.54-3.99-22.13
			c-1.29-1.46-2.77-2.02-4.63-1.61c-3.99,0.87-7.97,1.77-12.17,2.7c0.48-1.11,0.93-2.31,1.47-3.49c1.4-3.17,3.23-6.14,5.45-8.81
			c0.93-1.18,2.32-1.91,3.82-2c1.56-0.15,3.12-0.39,4.66-0.71c2.91-0.53,5.23,0.3,6.61,2.94c2.91,5.58,5.65,11.25,8.37,16.93
			c0.7,1.62,0.73,3.45,0.09,5.09c-1.71,4.99-3.46,9.97-5.26,14.93c-0.52,1.7-1.82,3.04-3.5,3.62c-3.72,1.19-7.49,2.24-11.24,3.35
			L204.04,441.38z"/>
		<path class="st1" d="M63.47,441.9c-0.5-0.02-1.01-0.08-1.5-0.19c-3.38-1.06-6.74-2.17-10.13-3.23c-1.62-0.46-2.9-1.7-3.41-3.3
			c-1.79-4.96-3.61-9.9-5.43-14.85c-0.72-1.86-0.57-3.95,0.42-5.69c3.11-5.83,6.16-11.69,9.27-17.52c0.96-1.82,1.79-2.14,3.86-1.91
			s4.21,0.48,6.33,0.66c1.93,0.07,3.7,1.13,4.67,2.8c2.14,3.68,4.16,7.42,6.41,11.52c-0.96-0.15-1.51-0.19-2.05-0.33
			c-2.66-0.74-5.29-1.58-7.97-2.17c-4.57-1.04-6.32-0.27-9.02,3.6c-5.06,7.28-5.26,15.77-0.44,23.05c0.71,1.08,1.87,1.91,2.92,2.7
			c2.05,1.55,4.17,3.01,6.26,4.5L63.47,441.9z"/>
		<path class="st1" d="M166.26,451.37c0.11,0.96,0.26,1.94,0.31,2.91c0.38,7.24,0.77,14.48,1.08,21.72
			c0.01,1.66,0.68,3.26,1.86,4.43c2.44,2.47,4.78,5.02,7.17,7.53c3.35,3.51,7.37,3.53,11.57,2.03c0.83-0.3,1.43-1.29,2.04-1.87
			c-1.02-2.42-3.14-2.29-4.91-2.87c0.54-1.97,2.17-3.44,4.18-3.78c3.35-0.73,6.56-0.71,9.72,0.66c3.16,1.37,4.3,3.6,3.35,6.85
			c-1.43,4.82-4.38,8.34-9.25,9.99c-7.88,2.58-16.52-0.09-21.58-6.66c-4.7-6.03-7.07-13.55-6.66-21.18
			c0.22-5.26,0.06-10.56,0.11-15.84c0-1.3,0.15-2.61,0.23-3.92L166.26,451.37z"/>
		<path class="st1" d="M81.52,485.35c-1.13,0.32-2.18,0.45-3.07,0.9c-1.54,0.77-1.65,1.81-0.43,2.98c0.44,0.45,0.98,0.79,1.57,1
			c3.91,1.2,7.65,1.12,10.81-1.91c2.28-2.17,4.42-4.5,6.66-6.69c2.16-2.13,2.98-4.75,3.07-7.69c0.2-6.07,0.4-12.13,0.64-18.2
			c0.06-1.56,0.26-3.12,0.4-4.67l0.52-0.08c0.22,0.5,0.37,1.03,0.44,1.58c-0.16,8.91-0.29,17.82-0.59,26.72
			c-0.14,3.74-1.46,7.35-3.75,10.31c-1.99,2.54-4.16,4.94-6.49,7.17c-2.47,2.42-5.62,3.43-9.05,3.52
			c-5.55,0.14-10.4-1.61-14.34-5.55c-1.7-1.69-3-3.67-3.35-6.11c-0.48-3.24,1.14-5.82,4.3-6.61c3.31-0.79,6.74-0.91,10.1-0.36
			C81.05,481.93,81.71,482.98,81.52,485.35z"/>
		<path class="st1" d="M90.96,417.65c-1.29,0.21-2.58,0.45-3.88,0.61c-1.56,0.2-3.15,0.23-4.69,0.52c-2,0.38-2.84,1.61-2.65,3.54
			c0.2,2.03,1.39,3.52,3.2,3.42c2.09-0.12,4.35-0.27,6.21-1.14c3.35-1.56,6.4-3.65,9.56-5.54c0.39-0.27,0.74-0.59,1.04-0.96
			c1.83-1.98,1.78-3.67-0.27-5.48c-0.86-0.69-1.77-1.31-2.73-1.85c-0.72-0.48-1.46-0.86-2.56-1.5c0.77-0.25,1.17-0.51,1.54-0.48
			c1.09,0.08,2.26,0.06,3.25,0.48c5.1,2.03,10.46,2.08,15.81,2.24c2.99,0.09,5.99,0.07,8.98,0.17c4.11,0.14,7.09,2.17,9.51,6.13
			c-0.7-0.19-1.39-0.43-2.06-0.73c-4.56-2.59-9.47-3.35-14.6-2.78c-2.19,0.25-4.35,0.68-6.52,1.09c-3.98,0.69-7.65,2.61-10.48,5.5
			c-4.3,4.34-9.43,7.52-15.12,9.89c-5.91,2.47-11.77-0.74-10.87-8.32c0.34-2.87,1.59-4.93,4.33-5.91c3.56-1.28,7.17-1.74,10.89-0.68
			c0.77,0.28,1.52,0.61,2.25,0.98L90.96,417.65z"/>
		<path class="st1" d="M134.52,417.27c0.58-0.78,1.04-1.7,1.76-2.3c2.39-2.09,5.43-3.29,8.6-3.41c6.37-0.23,12.74-0.54,19.12-0.96
			c1.4-0.17,2.77-0.53,4.07-1.08c1.54-0.54,3.06-1.02,4.68-0.96l0.25,0.48c-1.02,0.77-2.04,1.56-3.07,2.33
			c-0.96,0.71-2.01,1.29-2.81,2.12c-1.26,1.31-1.23,3,0.16,4.18c4.18,3.53,8.54,6.77,14.09,7.83c0.93,0.18,1.87,0.27,2.81,0.27
			c2.19,0,3.28-1,3.5-3.02c0.22-2.11-0.69-3.68-2.69-4.1c-1.52-0.32-3.13-0.25-4.69-0.42c-1.14-0.12-2.26-0.36-3.39-0.54l-0.16-0.59
			c0.67-0.41,1.3-1.01,2.03-1.19c3.77-0.96,7.49-0.9,11.08,0.8c3.05,1.43,4.39,3.63,4.13,6.99c-0.09,1.18-0.33,2.34-0.73,3.45
			c-1.32,3.64-4.6,5.3-8.32,4.3c-0.68-0.19-1.35-0.44-1.99-0.74c-6.59-2.96-12.59-6.79-17.64-12.04c-1.06-1.19-2.46-2.02-4-2.39
			c-3.54-0.75-7.08-1.59-10.66-2.07c-4.49-0.59-9.06,0.19-13.1,2.23c-0.85,0.42-1.71,0.8-2.56,1.19L134.52,417.27z"/>
		<path class="st1" d="M71,427.11l-6.61-0.44c0.45,4.78,4.44,8.6,9.44,9.02c5.73,0.48,10.93-0.87,15.38-4.66
			c0.35-0.3,0.74-0.57,1.12-0.85c0.05-0.04,0.14,0,0.48-0.05c-0.17,0.49-0.39,0.97-0.64,1.43c-4.43,6.76-13.27,10.64-20.43,8.92
			c-4.43-1.02-8.31-3.69-10.83-7.48c-2.37-3.33-3.02-7.58-1.77-11.47c0.42-1.54,1.37-2.87,2.69-3.77c1.22-0.82,2.48-0.96,3.47,0.1
			c2.6,2.72,5.06,5.59,7.53,8.45C70.96,426.44,70.93,426.74,71,427.11z"/>
		<path class="st1" d="M177.03,430.13c0.68,0.48,1.36,0.96,2.05,1.43c3.49,2.39,7.17,4.22,11.56,4.27c3.01,0.08,5.99-0.66,8.6-2.16
			c2.51-1.47,3.82-3.65,3.53-7l-6.3,0.51c0.45-0.86,0.68-1.57,1.13-2.09c1.91-2.2,3.82-4.39,5.86-6.49
			c2.32-2.39,5.51-1.76,6.49,1.43c1.43,4.56,1.25,9.03-1.86,13c-0.58,0.75-1.18,1.48-1.76,2.22c-3.69,4.62-8.56,6.27-14.29,5.47
			c-6.17-0.87-11.02-4.03-14.69-9.02c-0.25-0.43-0.45-0.88-0.61-1.36L177.03,430.13z"/>
		<path class="st1" d="M111.81,511.4l-3.4-1.77c-1.28,1.19-1.48,2.58-1.11,4.14c0.68,2.84,1.29,5.69,2,8.52
			c0.4,1.46,0.18,3.01-0.61,4.3c-1.91,3.26-3.73,6.59-5.69,9.82c-1.51,2.49-3.73,3.78-6.74,3.49c-2.34-0.22-4.03-1.37-4.84-3.58
			c-1.64-4.48-1.62-9.4,0.07-13.86c0.04-0.11,0.24-0.17,0.58-0.39c0.44,2.56,0.85,5.03,1.3,7.48c0.13,0.94,0.37,1.85,0.71,2.74
			c1.04,2.43,3.42,3.2,5.65,1.72c1.09-0.76,2.03-1.72,2.78-2.83c1.25-1.84,1.93-4.01,1.94-6.24c0.03-2.28-0.16-4.57-0.16-6.85
			c0-3.46,0.07-6.93,0.18-10.39c0.04-0.71,0.22-1.4,0.53-2.04c0.58-1.23,1.68-1.63,2.97-1.23c1.79,0.56,4.43,3.92,4.44,5.76
			C112.39,510.52,112.08,510.86,111.81,511.4z"/>
		<path class="st1" d="M158.54,509.6l-3.31,1.84c-1.27-0.72-1.02-1.67-0.67-2.55c0.66-1.71,1.92-3.12,3.55-3.97
			c1.86-0.99,3.7-0.11,4.09,1.97c0.21,1.08,0.31,2.19,0.31,3.29c-0.04,3.7,0,7.41-0.29,11.09c-0.29,3.76,0.12,7.24,2.58,10.25
			c0.2,0.24,0.37,0.51,0.58,0.75c1.35,1.51,2.82,2.93,5.06,2.33c2.07-0.55,2.52-2.46,2.87-4.25c0.51-2.43,0.88-4.89,1.31-7.34
			l0.5-0.09c0.29,0.92,0.63,1.84,0.87,2.77c0.97,3.45,0.73,7.13-0.68,10.42c-1.96,4.55-7.42,5.52-10.3,1.59
			c-2.83-3.86-5.13-8.12-7.54-12.27c-0.37-0.64-0.22-1.69-0.06-2.51c0.53-2.79,1.18-5.55,1.74-8.32
			C159.69,512.08,159.63,512,158.54,509.6z"/>
		<path class="st1" d="M136.59,406.72c-0.43-1.91-0.11-3.47,1.15-4.94s1.09-2.79-0.54-4.02c-1.12-0.85-2.39-1.49-3.82-2.34
			c-1.12,0.78-2.32,1.55-3.37,2.46c-1.33,1.16-1.5,2.09-0.4,3.5c1.23,1.58,1.43,3.24,1.16,5.07c-4.34,0.8-7.91-3.03-6.62-7.09
			c1.49-4.69,4.52-8.23,8.5-11.02c0.78-0.6,1.88-0.57,2.63,0.07c3.67,2.65,6.52,5.94,7.83,10.36c0.86,2.89-0.65,6.44-3.29,7.93
			C138.79,407.28,137.76,407.46,136.59,406.72z"/>
		<path class="st1" d="M191.4,453.55c0.7-1.36,0.56-3-0.36-4.22c-1.27-1.91-2.52-3.79-4.12-6.21c1.1,0.32,1.91,0.33,2.39,0.73
			c3.32,2.67,5.73,5.87,5.55,10.41c0,0.55-0.07,1.1-0.21,1.63c-0.42,1.43-1.35,1.91-2.7,1.34c-0.71-0.34-1.39-0.75-2.02-1.22
			c-4.45-3.02-7.83-7.04-10.75-11.47c-0.78-1.18-1.55-2.39-2.21-3.61c-0.23-0.43-0.13-1.04,0.19-1.82c0.44,0.45,0.92,0.87,1.33,1.35
			c3.15,3.73,6.3,7.46,9.4,11.23C188.73,452.8,190.01,453.47,191.4,453.55z"/>
		<path class="st1" d="M80.31,443.63c-1.32,1.99-2.75,4.14-4.17,6.29c-0.2,0.34-0.39,0.69-0.55,1.05c-0.48,0.96-0.35,1.91,0.5,2.54
			c0.85,0.63,1.64,0.03,2.28-0.61c3.48-3.53,7.1-6.93,9.88-11.08c0.64-0.96,1.33-1.86,2-2.79l0.57,0.28
			c-0.3,0.9-0.38,1.96-0.92,2.69c-2.87,3.85-5.68,7.74-8.8,11.36c-1.34,1.56-3.26,2.71-5.1,3.72c-1.84,1.01-2.94,0.25-3.43-1.78
			c0-0.08-0.04-0.15-0.06-0.23C71.66,450.8,76.19,444.36,80.31,443.63z"/>
		<path class="st1" d="M126.06,388.99c2.41-4.86,4.78-9.75,7.33-14.64c1.53,1.3,7.26,12.46,7.8,15.13
			c-1.48-1.16-2.73-2.04-3.86-3.06c-1.13-1.02-2.06-2.16-3.31-3.46l-7.46,6.39L126.06,388.99z"/>
		<path class="st1" d="M133.73,397.07l2.96,2.74c-1.3,1.28-2.47,2.39-4.22,1.96c-0.65-0.15-1.2-0.56-1.55-1.13
			c-0.18-0.39,0.17-1.21,0.53-1.62C132.17,398.31,132.93,397.66,133.73,397.07z"/>
		<path class="st1" d="M133.98,404.53c1.09,2.79,1.07,4.85-0.11,8.21C132.2,410.64,132.26,406.55,133.98,404.53z"/>
		<path class="st1" d="M133.83,423.44c2.08,1.37,2.22,2.69-0.19,4.6l-2.42-2.23L133.83,423.44z"/>
	</g>
</g>
<g id="Calque_2_00000182508583389888819740000007801220764749390996_">
	<g id="Calque_1-2_00000140008961276970569630000015170543507373146498_">
		<path class="st1" d="M415.44,449.56c-2.72-1.55-4.56-3.41-5.56-5.85c-1.08-2.66-2.93-3.64-5.65-3.78
			c-2.56-0.12-5.05-0.09-7.42,0.98c-0.77,0.35-1.48,0.83-2.61,1.47c2.23,0.56,4.12,0.77,5.73,1.53c1.71,0.78,3.26,1.87,4.57,3.21
			c1.27,1.33,2.07,3.12,3.18,4.87c2.64-0.13,4.53,1.35,6.09,3.53c0.71,0.95,1.54,1.8,2.48,2.52c1.81,1.43,3.6,1.38,5.35-0.16
			c0.77-0.68,1.46-1.44,2.05-2.28c1.52-2.2,3.44-3.67,6.32-3.58c2.18-5.95,6.57-8.86,13.18-9.2c-1.07-1.21-2.49-2.07-4.06-2.47
			c-2.71-0.76-5.47-0.61-8.21-0.14c-1.43,0.24-2.24,1.29-3.01,2.46c-1.34,2.04-2.81,3.98-4.27,5.94c-0.44,0.44-0.92,0.85-1.43,1.21
			c-0.11-1.3-0.35-2.21-0.22-3.05c0.34-2.16,0.15-4.1-1.61-5.49c-0.08-1.48,0.69-2.22,1.75-2.94c4.45-3.02,9.43-3.08,14.37-2.26
			c11.54,1.91,19.12,8.71,23.01,19.66c0.34,0.96,0.65,1.94,0.91,2.93c2.27,8.42,7.57,14.58,14.54,19.49
			c1.8,1.39,4.23,1.62,6.26,0.59c2.45-1.14,3.13-2.94,2.05-5.42c-0.48-1.08-1.05-2.11-1.75-3.5c0.67,0.14,1.34,0.33,1.98,0.57
			c2.92,1.35,5.1,3.9,5.98,7c0.6,1.99,0.33,4.15-0.74,5.93c-1.61,2.77-3.63,3.66-6.77,2.83c-2.12-0.56-4.21-1.27-6.83-2.06
			c1.23,2.39,2.61,4.15,4.78,4.61c6.59,1.39,12.86,0.78,18.16-3.98c0.35-0.32,0.67-0.68,0.96-1.06c2.16-2.78,1.49-5-1.88-6.12
			c-0.36-0.12-0.75-0.18-1.43-0.34c0.68-1.6,1.22-3.14,1.96-4.58c1.11-2.14,3.07-2.97,5.57-2.54s4,1.78,4.33,4.26
			c0.48,3.52,0.75,7.05,1.15,10.58c0.18,1.11-0.24,2.23-1.1,2.95c-2.23,2-4.38,4.09-6.61,6.07c-1.78,1.59-3.99,2.23-6.32,2.34
			c-4.96,0.25-9.93,0.4-14.89,0.65c-2.06,0.11-3.32-0.65-4.26-2.57c-6.4-12.92-12.87-25.81-19.42-38.66
			c-1.64-3.21-3.79-6.17-5.7-9.25c-0.6-0.96-1.46-1.32-2.93-1.22c0.38,0.96,0.53,1.84,1,2.47c6.33,8.46,8.7,18.25,9.62,28.52
			c0.3,3.38,0.48,6.77,0.89,10.13c0.21,1.4,0.59,2.77,1.14,4.07c0.32,0.84,1.09,1.52,2.05,1.15c0.96-0.37,1.03-1.27,0.75-2.2
			c-0.59-1.96-1.12-3.94-1.73-5.89c-0.25-0.82-0.24-1.43,1-1.56l6.33,10.1l-6.36,8.22c-0.36,0.03-0.56,0.12-0.66,0.05
			c-2.71-1.76-4.87-4.24-6.25-7.17c-0.43-0.92-0.28-2.16-0.22-3.25c0.43-7.09,0.78-14.18-0.3-21.25c-0.96-6.37-2.65-12.5-6.69-17.68
			c-0.76-0.96-1.43-2.11-2.94-2.21c-0.61,0.79-0.23,1.53,0.22,2.14c1.91,2.55,2.29,5.49,2.19,8.53c-0.34,10.09-0.7,20.17-1.08,30.26
			c-0.27,6.78-0.62,13.55-0.96,20.32c-0.05,1.08-0.05,2.22-1.25,2.91c-1.14-1.05-0.85-2.36-0.76-3.55c0.19-2.28-0.61-4.15-2.17-5.83
			c-1.89,0.59-3.34,2.12-3.82,4.04c-1.86,6.28-2.13,12.74-2.39,19.2c-0.41,10.24-0.91,20.49-1.05,30.73
			c-0.07,5.03,0.58,10.06,0.96,15.09c0.15,0.88,0.37,1.75,0.65,2.6c0.55-0.63,0.99-0.96,1.18-1.38c1.36-3.27,1.79-6.51-0.48-9.62
			c-0.29-0.35-0.44-0.8-0.41-1.25c0.85-3.68,1.49-7.44,3.74-10.63c0.42-0.5,0.86-0.98,1.33-1.43c-0.19,3.6-0.35,6.8-0.53,9.99
			c-0.27,5.04-0.54,10.08-0.82,15.12c-0.03,0.55-0.04,1.1-0.11,1.65c-0.28,2.1-1.05,3.02-2.59,3.13c-1.73,0.13-3.35-0.82-3.71-2.64
			c-0.59-2.69-0.96-5.42-1.11-8.17c-0.17-4.17-0.03-8.36,0-12.53c0.09-7.1,0.23-14.19,0.29-21.29c0.01-1.5-0.11-2.99-0.35-4.47
			c-0.14-0.87-0.63-1.69-1.01-2.66c-1.43,1.1-1.27,2.39-1.27,3.64c0,11.51,0.01,23.03,0.03,34.54c0,5.05-0.07,10.09-0.06,15.14
			c0,1.48-0.24,2.87-1.19,4c-3,3.54-6.06,7.02-9.2,10.65c-0.66-0.56-1.15-0.92-1.57-1.35c-2.81-2.87-5.53-5.85-8.44-8.6
			c-1.37-1.3-1.62-2.72-1.62-4.45c0.03-16.72,0.03-33.44,0-50.18c0-1.19,0.06-2.39-1.27-3.46c-0.38,0.84-0.89,1.55-0.99,2.31
			c-0.26,1.79-0.38,3.6-0.38,5.41c0.09,9.78,0.29,19.55,0.35,29.33c0,2.83-0.23,5.67-0.48,8.5c-0.14,1.99-0.96,3.87-2.3,5.34
			c-1.53,1.69-3.44,1.4-4.24-0.75c-0.53-1.32-0.85-2.71-0.96-4.13c-0.34-7.8-0.57-15.6-0.84-23.42c0.06-0.26,0.16-0.5,0.28-0.74
			c0.96,1.43,1.88,2.68,2.39,4.14c0.6,1.71,1.1,3.46,1.66,5.18c0.58,1.66,0.4,3.49-0.48,5.01c-1.87,3.41-1.06,6.69,0.68,9.88
			c0.06,0.11,0.26,0.14,0.62,0.32c0.71-2.16,1.14-4.4,1.28-6.66c0.96-12.9,0.56-25.84-0.16-38.77c-0.4-7.24-1.29-14.45-2.66-21.57
			c-0.33-1.72-0.57-3.43-2.35-4.4c-1.52-0.83-2.64-0.69-3.27,0.9c-0.39,1.19-0.57,2.43-0.54,3.68c-0.09,2.53-0.03,2.54-1.04,4.3
			c-1.19-0.62-1.12-1.75-1.16-2.81c-0.32-7.96-0.65-15.91-0.96-23.89c-0.32-8.43-0.56-16.86-0.92-25.29
			c-0.14-3.29,0.08-6.42,1.94-9.31c0.56-0.88,1.27-2.01,0.42-3.44c-0.46,0.3-0.9,0.63-1.32,0.99c-4.86,4.93-7.27,11.06-8.15,17.75
			c-0.61,4.67-0.63,9.42-0.75,14.15c-0.07,2.83,0.11,5.68,0.29,8.51c0.16,2.23-0.53,4.43-1.94,6.16c-1.1,1.44-2.28,2.82-3.52,4.14
			c-1.09,1.12-1.74,1-2.66-0.3c-1.68-2.39-3.35-4.78-5.04-7.23c3.25-6.82,5.16-9.51,7.25-10.06c0.26,1.03-0.43,1.79-0.75,2.6
			c-0.69,1.78-1.28,3.58-1.03,5.51c0.14,0.49,0.36,0.96,0.64,1.39c0.5-0.27,1.13-0.43,1.49-0.83c1.38-1.55,1.73-3.46,1.84-5.49
			c0.19-3.78,0.33-7.56,0.76-11.32c1.03-9.08,3.64-17.57,9.08-25.05c0.77-1.07,1.73-2.11,1.31-3.74c-0.96-0.38-1.75-0.04-2.39,0.76
			c-2.17,2.6-4.34,5.19-5.84,8.29c-6.05,12.49-12.18,24.94-18.25,37.42c-2.52,5.19-3.32,5.64-8.96,5.21
			c-4.48-0.34-8.97-0.62-13.46-0.87c-1.03,0.01-2.02-0.36-2.79-1.04c-2.91-2.66-5.85-5.29-8.82-7.88c-0.76-0.58-1.13-1.55-0.96-2.49
			c0.5-3.37,0.86-6.71,1.38-10.06c0.62-4.01,4.81-6.04,8.43-4.1c0.6,0.36,1.08,0.89,1.38,1.52c0.72,1.57,1.29,3.2,1.97,4.96
			c-0.55,0.26-1.1,0.53-1.65,0.77c-3.17,1.4-3.59,3.13-1.38,5.86c2.97,3.66,6.92,5.36,11.52,5.7c1.43,0.11,2.87-0.04,4.25,0.08
			c3.91,0.34,6.11-2.18,8.8-5.09c-0.67,0.02-1.34,0.1-2,0.22c-1.58,0.48-3.13,1.08-4.72,1.56c-2.39,0.72-4.69,0.88-6.59-1.13
			c-2.02-2-2.68-4.98-1.71-7.65c1.26-3.89,4.13-6.13,8.12-7.78c-0.79,1.49-1.43,2.63-2.01,3.82c-0.96,1.91-0.67,3.21,0.92,4.62
			c2.16,1.91,4.64,2.11,7.17,0.48c6.73-4.3,11.6-10.13,14.29-17.68c0.69-1.91,1.24-3.9,1.91-5.83
			c4.68-13.38,18.97-21.53,32.59-18.49c1.75,0.44,3.42,1.15,4.96,2.1c1.43,0.83,1.75,2.15,0.68,3.17c-1.71,1.63-1.39,3.51-1.32,5.44
			C415.45,447.75,415.44,448.45,415.44,449.56z M442.2,450.73c-0.42,0.43-0.9,0.7-0.96,1.03c-0.08,0.78-0.08,1.57,0,2.36
			c0.43,7.79,0.83,15.59,1.3,23.38c0.19,2.93-0.47,5.85-1.91,8.4c-4.49,8.24-8.87,16.52-13.4,24.74c-1.45,2.54-2.15,5.43-2.02,8.35
			c0.19,4.56,0.22,9.15,0.09,13.72c-0.08,2.66-0.56,5.31-0.91,7.96c-0.15,0.53-0.36,1.05-0.63,1.53c-0.21-0.37-0.34-0.51-0.34-0.64
			c-0.02-0.71,0-1.42,0.06-2.13c0.84-7.72,0.33-15.44-0.19-23.15c-0.3-3.3,0.09-6.62,1.14-9.76c1.26-3.56,2.35-7.17,3.42-10.81
			c0.2-0.67,0.27-1.77-0.11-2.17c-1.4-1.33-2.86-2.6-4.39-3.78c-0.24,1.16-0.28,2.35-0.11,3.53c0.14,1.49,0.35,2.98,0.43,4.47
			c0.25,3.33-0.66,6.65-2.58,9.39c-0.53,0.86-0.81,1.86-0.8,2.87c-0.1,4.26,0,8.52-0.11,12.77c-0.13,2.12-0.37,4.24-0.72,6.33
			c-0.15,0.55-0.37,1.09-0.64,1.6c-1.06-1.16-1.01-2.34-1.05-3.49c-0.16-5.44-0.33-10.88-0.48-16.31c0.05-1.58-0.41-3.14-1.31-4.44
			c-1.65-2.25-2.18-4.87-2.05-7.62c0.09-1.91,0.27-3.78,0.4-5.66c0.07-1.06,0.11-2.13,0.2-3.68c-1.4,1.18-2.39,2.05-3.4,2.87
			c-1.81,1.43-1.97,1.8-1.3,4.01c1.05,3.47,2.08,6.95,3.17,10.4c0.81,2.63,1.17,5.38,1.08,8.13c-0.17,7.88-0.24,15.77-0.35,23.65
			c0,0.78,0,1.55,0,2.33c-1.19-1.81-1.34-3.77-1.36-5.73c-0.06-5.83-0.11-11.67-0.09-17.5c0.03-2.29-0.57-4.54-1.73-6.52
			c-4.41-7.65-8.7-15.36-13.09-23.01c-1.77-3.09-2.76-6.28-2.54-9.9c0.48-7.55,0.78-15.12,1.14-22.68c0.07-1.43,0-2.92,0-4.69
			c-1.5,0.66-2.55,2.05-2.79,3.67c-0.14,0.93-0.2,1.88-0.19,2.82c-0.05,9.3-0.05,18.61-0.16,27.91c-0.05,2.13,0.59,4.22,1.83,5.95
			c4.75,6.88,9.39,13.82,14.12,20.71c1.2,1.67,1.85,3.68,1.87,5.73c0.32,16.16,0.73,32.32,1.11,48.48c0,0.92,0.11,1.84,0.18,2.75
			l0.53,0.12c0.4-0.88,0.96-1.72,1.14-2.64c0.26-1.3,0.21-2.66,0.35-3.99c0.08-0.76,0.28-1.52,0.43-2.28
			c0.6,2.28,0.68,4.53,2.55,6.75c0.29-0.94,0.5-1.9,0.65-2.87c0.11-1.43,0.06-2.83,0.09-4.25c0-1,0.06-2.01,1.33-3
			c0.25,0.93,0.45,1.88,0.6,2.83c0.18,1.88,0.25,3.78,0.41,5.66c0.05,0.64,0.2,1.3,1.36,1.05l1.32-6.05l0.48,0.05
			c0.04,0.76,0.04,1.53,0.14,2.28c0.23,1.79,0.48,3.58,0.82,5.36c0.06,0.33,0.51,0.59,1.13,1.26c0.18-3.35,0.4-6.13,0.48-8.95
			c0.34-13.48,0.69-26.96,0.91-40.43c-0.01-3.25,0.98-6.41,2.83-9.08c4.56-6.62,9.02-13.31,13.53-19.96
			c0.76-1.12,1.39-2.23,1.38-3.67c-0.08-10.17-0.1-20.34-0.17-30.51C444.28,454.51,443.35,452.7,442.2,450.73z M400.89,457.31
			l-0.66,0.08c0,0.55-0.15,1.15,0,1.64c2.87,8.32,6.12,16.43,13.35,22.14c1.22,0.96,1.62,2.22,1.43,3.78
			c-0.06,0.67,0.14,1.33,0.55,1.86c1.09,1.26,1.15,2.66,1.08,4.2c-0.12,2.43-0.1,4.87-0.07,7.32c0,1.69,0.75,3.01,2.59,3.87
			c0.54-0.84,1.4-1.61,1.55-2.49c0.38-1.76,0.46-3.58,0.24-5.37c-0.35-2.02-0.19-4.09,0.48-6.02c0.53-1.48,0.9-3.01,1.1-4.56
			c0.09-0.92,0.54-1.77,1.25-2.36c2.06-2.04,4.23-4.04,5.97-6.34c3.41-4.51,5.35-9.8,7.27-15.05c0.29-0.78,0.12-1.73,0.17-2.6
			l-0.65-0.18c-0.36,0.72-0.74,1.43-1.08,2.16c-1.75,3.7-3.42,7.45-5.26,11.11c-1.48,3.06-3.47,5.84-5.89,8.23
			c-1.17,1.14-2.46,1.62-4.21,0.93c0.38-0.64,0.7-1.25,1.08-1.82c1.68-2.48,3.39-4.94,5.08-7.41c1.69-2.47,3.46-5.08,5.22-7.6
			c0.57-0.82,0.6-1.43-0.68-1.79l-10.67,12.6l-1.02-5.5c-1.87,1.62-0.76,3.74-2.07,5.17c-1.21-1.43-2.39-2.78-3.54-4.15
			c-1.22-1.43-2.42-2.91-3.67-4.3c-1.15-1.29-2.04-2.87-3.8-3.61c0,1.49,0.71,2.65,1.5,3.77c2.41,3.41,4.84,6.81,7.26,10.21
			c1.01,1.31,1.68,2.85,1.95,4.48c-0.3,0-0.6-0.02-0.89-0.07c-2.73-0.7-5.01-2.56-6.26-5.08c-2.52-4.72-4.9-9.51-7.33-14.29
			C401.75,459.31,401.34,458.3,400.89,457.31z M439.19,462.48l-0.67-0.17c-2.79,3.22-4.32,6.91-3.61,11.33
			c0.64,3.93-0.55,7.32-2.91,10.35c-0.63,0.81-1.61,1.35-2.75,2.27c-0.16-1.83-0.22-3.14-0.4-4.43c-0.11-0.8-0.54-1.68-1.46-1.52
			c-0.52,0.1-1.13,0.84-1.3,1.4c-0.61,1.97-0.59,4.09,0.08,6.05c0.69,2.06,2.39,3.11,4.62,2.87c4.56-0.52,9.1-5.12,8.86-9.53
			c-0.28-5.1-0.09-10.24-0.15-15.35C439.49,464.65,439.3,463.55,439.19,462.48L439.19,462.48z M408.38,485.71
			c-0.85-0.44-1.46-0.63-1.88-1.02c-3.12-2.9-4.89-6.34-4.05-10.73c0.68-3.36-0.05-6.86-2.01-9.68c-0.64-0.82-1.34-1.6-2.08-2.33
			c-0.15,1.09-0.28,1.61-0.29,2.13c-0.09,5.59-0.22,11.19-0.2,16.78c0,4.3,3.4,8.34,7.65,9.46c3.35,0.88,5.29-0.17,6.21-3.56
			c0.3-1.14,0.43-2.31,0.37-3.49c-0.08-0.78-0.38-1.52-0.85-2.14c-0.65-0.92-1.49-0.92-2.13-0.03c-0.38,0.58-0.62,1.23-0.72,1.91
			C408.33,483.91,408.32,484.81,408.38,485.71L408.38,485.71z M423.13,586.24c3.23-1.34,4.81-5.89,3.57-10.4
			C425.46,579.23,422.47,582.01,423.13,586.24L423.13,586.24z M415,586.11l-4.42-10.88c-1.29,5.15,0.58,9.88,4.41,10.87L415,586.11z
			"/>
		<path class="st1" d="M404.72,417.27c-0.86-0.42-1.68-0.89-2.55-1.21c-1-0.38-2.04-0.43-2.84,0.48c-0.68,0.76-0.48,1.65-0.05,2.43
			c1.28,2.35,2.59,4.67,3.92,7c0.56,0.99,1.55,1.21,2.6,1.39c1.71,0.29,3.4,0.67,5.09,1.05c0.34,0.14,0.66,0.31,0.96,0.51
			c-0.48,0.21-0.66,0.36-0.85,0.36c-7.96,0-15.93,0.16-23.79-1.47c-5.89-1.22-11.24-3.56-15.89-7.44c-3.82-3.18-5.2-7.17-4.28-12.02
			c0.76-4,2.42-7.65,4.46-11.13c1.16-2.03,3.16-3.46,5.46-3.89c7.37-1.51,13.51,0.8,18.51,6.3c0.48,0.55,0.59,1.48,0.86,2.24
			l-0.4,0.43c-0.85-0.21-1.69-0.5-2.49-0.85c-1.39-0.75-2.69-1.65-4.04-2.45c-5.38-3.19-10.68-1.51-13.28,4.2
			c-2.82,6.17-2.52,12.09,1.49,17.68c1.21,1.68,2.63,3.14,4.98,3.11c0.51-1.39-0.11-2.5-0.61-3.65c-1.26-2.83-2.25-5.73-1.99-8.9
			c0.08-1.41,0.36-2.8,0.83-4.14c1.09-2.87,3.9-3.82,6.47-2.23c2.39,1.5,4.72,3.15,7.06,4.75c0.32,0.28,0.61,0.58,0.88,0.91
			c-0.96,0.61-1.65,0.03-2.33-0.12c-3.15-0.73-5.04,0.48-5.66,3.64c-0.35,1.64-0.12,3.34,0.65,4.83c1.96,3.76,5.16,5.67,9.81,6.25
			c-0.71-1.35-1.35-2.73-1.91-4.14c-0.54-1.46-0.9-2.99-1.08-4.54c-0.09-1.62,0.63-3.17,1.91-4.16c1.17-0.99,2.51-1.49,3.92-0.73
			c1.44,0.78,2.8,1.7,4.07,2.74C405.48,415.2,405.63,416.22,404.72,417.27z"/>
		<path class="st1" d="M439.88,425.23c4.58-0.11,10.04-3.67,10.37-8.28c0.07-0.63,0.07-1.26,0.03-1.88
			c-0.43-4.06-1.95-5.17-5.97-4.42c-0.53,0.1-1.06,0.11-2.1,0.21c0.96-1,1.47-1.8,2.21-2.31c1.91-1.39,3.9-2.66,5.95-3.82
			c3.19-1.73,5.73-0.54,6.69,2.96s0.56,7.03-0.76,10.43c-0.57,1.47-1.18,2.92-1.75,4.39c-0.26,0.67-0.54,1.36,0.43,1.91
			c1.56-0.35,2.96-1.2,4-2.41c4.07-4.56,5.08-9.83,3.49-15.64c-0.47-1.59-1.11-3.12-1.91-4.56c-1.94-3.63-5.09-5.1-9.08-4.15
			c-1.51,0.43-2.95,1.05-4.3,1.85c-1.99,1.08-3.9,2.3-6,3.55c-0.48-1.51,0.07-2.45,0.74-3.35c3.9-5.09,12.33-8.04,18.49-6.46
			c2.17,0.5,4.09,1.76,5.4,3.56c2.23,2.98,3.76,6.42,4.48,10.06c1.13,6.16-0.89,11.17-5.79,15.02c-2.73,2.16-5.89,3.72-9.27,4.57
			c-3.73,0.93-7.55,1.6-11.35,2.16c-2.27,0.26-4.56,0.36-6.84,0.32c-3.38,0.05-6.76,0-10.14,0l-0.07-0.56
			c1.41-0.36,2.8-0.82,4.23-1.05c3.87-0.64,7.11-5.65,7.5-8.37c0.15-1.05,0.05-2.12-0.87-2.79c-0.92-0.67-1.97-0.33-2.91,0.13
			c-0.7,0.35-1.34,0.8-2.13,1.28c-0.45-1.43-0.27-2.47,1.04-3.21c1.51-0.85,2.94-1.84,4.5-2.58c1.68-0.79,2.87-0.31,3.69,1.33
			c0.91,1.69,1.11,3.67,0.57,5.51c-0.37,1.28-0.96,2.5-1.43,3.74C440.68,423.31,440.29,424.21,439.88,425.23z"/>
		<path class="st1" d="M489.07,460.94c1.58-1.13,3.08-2.39,4.78-3.35c2.7-1.51,4.78-3.93,5.86-6.83c3.35-8.23,1.81-15.54-3.99-22.13
			c-1.29-1.46-2.77-2.02-4.63-1.61c-3.99,0.87-7.97,1.77-12.17,2.7c0.48-1.11,0.93-2.31,1.47-3.49c1.4-3.17,3.23-6.14,5.45-8.81
			c0.93-1.18,2.32-1.91,3.82-2c1.56-0.15,3.12-0.39,4.66-0.71c2.91-0.53,5.23,0.3,6.61,2.94c2.91,5.58,5.65,11.25,8.37,16.93
			c0.7,1.62,0.73,3.45,0.09,5.09c-1.71,4.99-3.46,9.97-5.26,14.93c-0.52,1.7-1.82,3.04-3.5,3.62c-3.72,1.19-7.49,2.24-11.24,3.35
			L489.07,460.94z"/>
		<path class="st1" d="M348.5,461.46c-0.5-0.02-1.01-0.08-1.5-0.19c-3.38-1.06-6.74-2.17-10.13-3.23c-1.62-0.46-2.9-1.7-3.41-3.3
			c-1.79-4.96-3.61-9.9-5.43-14.85c-0.72-1.86-0.57-3.95,0.42-5.69c3.11-5.83,6.16-11.69,9.27-17.52c0.96-1.82,1.79-2.14,3.86-1.91
			c2.07,0.22,4.21,0.48,6.33,0.66c1.93,0.07,3.7,1.13,4.67,2.8c2.14,3.68,4.16,7.42,6.41,11.52c-0.96-0.15-1.51-0.19-2.05-0.33
			c-2.66-0.74-5.29-1.58-7.97-2.17c-4.57-1.04-6.32-0.27-9.02,3.6c-5.06,7.28-5.26,15.77-0.44,23.05c0.71,1.08,1.87,1.91,2.92,2.7
			c2.05,1.55,4.17,3.01,6.26,4.5L348.5,461.46z"/>
		<path class="st1" d="M451.28,470.93c0.11,0.96,0.26,1.94,0.31,2.91c0.38,7.24,0.77,14.48,1.08,21.72
			c0.01,1.66,0.68,3.26,1.86,4.43c2.44,2.47,4.78,5.02,7.17,7.53c3.35,3.51,7.37,3.53,11.57,2.03c0.83-0.3,1.43-1.29,2.04-1.87
			c-1.02-2.42-3.14-2.29-4.91-2.87c0.54-1.97,2.17-3.44,4.18-3.78c3.35-0.73,6.56-0.71,9.72,0.66c3.16,1.37,4.3,3.6,3.35,6.85
			c-1.43,4.82-4.38,8.34-9.25,9.99c-7.88,2.58-16.52-0.09-21.58-6.66c-4.7-6.03-7.07-13.55-6.66-21.18
			c0.22-5.26,0.06-10.56,0.11-15.84c0-1.3,0.15-2.61,0.23-3.92L451.28,470.93z"/>
		<path class="st1" d="M366.55,504.91c-1.13,0.32-2.18,0.45-3.07,0.9c-1.54,0.77-1.65,1.81-0.43,2.98c0.44,0.45,0.98,0.79,1.57,1
			c3.91,1.2,7.65,1.12,10.81-1.91c2.28-2.17,4.42-4.5,6.66-6.69c2.16-2.13,2.98-4.75,3.07-7.69c0.2-6.07,0.4-12.13,0.64-18.2
			c0.06-1.56,0.26-3.12,0.4-4.67l0.52-0.08c0.22,0.5,0.37,1.03,0.44,1.58c-0.16,8.91-0.29,17.82-0.59,26.72
			c-0.14,3.74-1.46,7.35-3.75,10.31c-1.99,2.54-4.16,4.94-6.49,7.17c-2.47,2.42-5.62,3.43-9.05,3.52
			c-5.55,0.14-10.4-1.61-14.34-5.55c-1.7-1.69-3-3.67-3.35-6.11c-0.48-3.24,1.14-5.82,4.3-6.61c3.31-0.79,6.74-0.91,10.1-0.36
			C366.07,501.49,366.74,502.54,366.55,504.91z"/>
		<path class="st1" d="M375.99,437.21c-1.29,0.21-2.58,0.45-3.88,0.61c-1.56,0.2-3.15,0.23-4.69,0.52c-2,0.38-2.84,1.61-2.65,3.54
			c0.2,2.03,1.39,3.52,3.2,3.42c2.09-0.12,4.35-0.27,6.21-1.14c3.35-1.56,6.4-3.65,9.56-5.54c0.39-0.27,0.74-0.59,1.04-0.96
			c1.83-1.98,1.78-3.67-0.27-5.48c-0.86-0.69-1.77-1.31-2.73-1.85c-0.72-0.48-1.46-0.86-2.56-1.5c0.77-0.25,1.17-0.51,1.54-0.48
			c1.09,0.08,2.26,0.06,3.25,0.48c5.1,2.03,10.46,2.08,15.81,2.24c2.99,0.09,5.99,0.07,8.98,0.17c4.11,0.14,7.09,2.17,9.51,6.13
			c-0.7-0.19-1.39-0.43-2.06-0.73c-4.56-2.59-9.47-3.35-14.6-2.78c-2.19,0.25-4.35,0.68-6.52,1.09c-3.98,0.69-7.65,2.61-10.48,5.5
			c-4.3,4.34-9.43,7.52-15.12,9.89c-5.91,2.47-11.77-0.74-10.87-8.32c0.34-2.87,1.59-4.93,4.33-5.91c3.56-1.28,7.17-1.74,10.89-0.68
			c0.77,0.28,1.52,0.61,2.25,0.98L375.99,437.21z"/>
		<path class="st1" d="M419.55,436.83c0.58-0.78,1.04-1.7,1.76-2.3c2.39-2.09,5.43-3.29,8.6-3.41c6.37-0.23,12.74-0.54,19.12-0.96
			c1.4-0.17,2.77-0.53,4.07-1.08c1.54-0.54,3.06-1.02,4.68-0.96l0.25,0.48c-1.02,0.77-2.04,1.56-3.07,2.33
			c-0.96,0.71-2.01,1.29-2.81,2.12c-1.26,1.31-1.23,3,0.16,4.18c4.18,3.53,8.54,6.77,14.09,7.83c0.93,0.18,1.87,0.27,2.81,0.27
			c2.19,0,3.28-1,3.5-3.02c0.22-2.11-0.69-3.68-2.69-4.1c-1.52-0.32-3.13-0.25-4.69-0.42c-1.14-0.12-2.26-0.36-3.39-0.54l-0.16-0.59
			c0.67-0.41,1.3-1.01,2.03-1.19c3.77-0.96,7.49-0.9,11.08,0.8c3.05,1.43,4.39,3.63,4.13,6.99c-0.09,1.18-0.33,2.34-0.73,3.45
			c-1.32,3.64-4.6,5.3-8.32,4.3c-0.68-0.19-1.35-0.44-1.99-0.74c-6.59-2.96-12.59-6.79-17.64-12.04c-1.06-1.19-2.46-2.02-4-2.39
			c-3.54-0.75-7.08-1.59-10.66-2.07c-4.49-0.59-9.06,0.19-13.1,2.23c-0.85,0.42-1.71,0.8-2.56,1.19L419.55,436.83z"/>
		<path class="st1" d="M356.03,446.67l-6.61-0.44c0.45,4.78,4.44,8.6,9.44,9.02c5.73,0.48,10.93-0.87,15.38-4.66
			c0.35-0.3,0.74-0.57,1.12-0.85c0.05-0.04,0.14,0,0.48-0.05c-0.17,0.49-0.39,0.97-0.64,1.43c-4.43,6.76-13.27,10.64-20.43,8.92
			c-4.43-1.02-8.31-3.69-10.83-7.48c-2.37-3.33-3.02-7.58-1.77-11.47c0.42-1.54,1.37-2.87,2.69-3.77c1.22-0.82,2.48-0.96,3.47,0.1
			c2.6,2.72,5.06,5.59,7.53,8.45C355.99,446,355.96,446.3,356.03,446.67z"/>
		<path class="st1" d="M462.06,449.7c0.68,0.48,1.36,0.96,2.05,1.43c3.49,2.39,7.17,4.22,11.56,4.27c3.01,0.08,5.99-0.66,8.6-2.16
			c2.51-1.47,3.82-3.65,3.53-7l-6.3,0.51c0.45-0.86,0.68-1.57,1.13-2.09c1.91-2.2,3.82-4.39,5.86-6.49
			c2.32-2.39,5.51-1.76,6.49,1.43c1.43,4.56,1.25,9.03-1.86,13c-0.58,0.75-1.18,1.48-1.76,2.22c-3.69,4.62-8.56,6.27-14.29,5.47
			c-6.17-0.87-11.02-4.03-14.69-9.02c-0.25-0.43-0.45-0.88-0.61-1.36L462.06,449.7z"/>
		<path class="st1" d="M396.84,530.96l-3.4-1.77c-1.28,1.19-1.48,2.58-1.11,4.14c0.68,2.84,1.29,5.69,2,8.52
			c0.4,1.46,0.18,3.01-0.61,4.3c-1.91,3.26-3.73,6.59-5.69,9.82c-1.51,2.49-3.73,3.78-6.74,3.49c-2.34-0.22-4.03-1.37-4.84-3.58
			c-1.64-4.48-1.62-9.4,0.07-13.86c0.04-0.11,0.24-0.17,0.58-0.39c0.44,2.56,0.85,5.03,1.3,7.48c0.13,0.94,0.37,1.85,0.71,2.74
			c1.04,2.43,3.42,3.2,5.65,1.72c1.09-0.76,2.03-1.72,2.78-2.83c1.25-1.84,1.93-4.01,1.94-6.24c0.03-2.28-0.16-4.57-0.16-6.85
			c0-3.46,0.07-6.93,0.18-10.39c0.04-0.71,0.22-1.4,0.53-2.04c0.58-1.23,1.68-1.63,2.97-1.23c1.79,0.56,4.43,3.92,4.44,5.76
			C397.42,530.08,397.1,530.42,396.84,530.96z"/>
		<path class="st1" d="M443.57,529.16l-3.31,1.84c-1.27-0.72-1.02-1.67-0.67-2.55c0.66-1.71,1.92-3.12,3.55-3.97
			c1.86-0.99,3.7-0.11,4.09,1.97c0.21,1.08,0.31,2.19,0.31,3.29c-0.04,3.7,0,7.41-0.29,11.09c-0.29,3.76,0.12,7.24,2.58,10.25
			c0.2,0.24,0.37,0.51,0.58,0.75c1.35,1.51,2.82,2.93,5.06,2.33c2.07-0.55,2.52-2.46,2.87-4.25c0.51-2.43,0.88-4.89,1.31-7.34
			l0.5-0.09c0.29,0.92,0.63,1.84,0.87,2.77c0.97,3.45,0.73,7.13-0.68,10.42c-1.96,4.55-7.42,5.52-10.3,1.59
			c-2.83-3.86-5.13-8.12-7.54-12.27c-0.37-0.64-0.22-1.69-0.06-2.51c0.53-2.79,1.18-5.55,1.74-8.32
			C444.71,531.64,444.66,531.56,443.57,529.16z"/>
		<path class="st1" d="M421.61,426.28c-0.43-1.91-0.11-3.47,1.15-4.94c1.26-1.47,1.09-2.79-0.54-4.02
			c-1.12-0.85-2.39-1.49-3.82-2.34c-1.12,0.78-2.32,1.55-3.37,2.46c-1.33,1.16-1.5,2.09-0.4,3.5c1.23,1.58,1.43,3.24,1.16,5.07
			c-4.34,0.8-7.91-3.03-6.62-7.09c1.49-4.69,4.52-8.23,8.5-11.02c0.78-0.6,1.88-0.57,2.63,0.07c3.67,2.65,6.52,5.94,7.83,10.36
			c0.86,2.89-0.65,6.44-3.29,7.93C423.82,426.84,422.78,427.02,421.61,426.28z"/>
		<path class="st1" d="M476.43,473.11c0.7-1.36,0.56-3-0.36-4.22c-1.27-1.91-2.52-3.79-4.12-6.21c1.1,0.32,1.91,0.33,2.39,0.73
			c3.32,2.67,5.73,5.87,5.55,10.41c0,0.55-0.07,1.1-0.21,1.63c-0.42,1.43-1.35,1.91-2.7,1.34c-0.71-0.34-1.39-0.75-2.02-1.22
			c-4.45-3.02-7.83-7.04-10.75-11.47c-0.78-1.18-1.55-2.39-2.21-3.61c-0.23-0.43-0.13-1.04,0.19-1.82c0.44,0.45,0.92,0.87,1.33,1.35
			c3.15,3.73,6.3,7.46,9.4,11.23C473.76,472.36,475.04,473.03,476.43,473.11z"/>
		<path class="st1" d="M365.33,463.2c-1.32,1.99-2.75,4.14-4.17,6.29c-0.2,0.34-0.39,0.69-0.55,1.05c-0.48,0.96-0.35,1.91,0.5,2.54
			c0.85,0.63,1.64,0.03,2.28-0.61c3.48-3.53,7.1-6.93,9.88-11.08c0.64-0.96,1.33-1.86,2-2.79l0.57,0.28
			c-0.3,0.9-0.38,1.96-0.92,2.69c-2.87,3.85-5.68,7.74-8.8,11.36c-1.34,1.56-3.26,2.71-5.1,3.72c-1.84,1.01-2.94,0.25-3.43-1.78
			c0-0.08-0.04-0.15-0.06-0.23C356.69,470.36,361.21,463.92,365.33,463.2z"/>
		<path class="st1" d="M411.09,408.55c2.41-4.86,4.78-9.75,7.33-14.64c1.53,1.3,7.26,12.46,7.8,15.13
			c-1.48-1.16-2.73-2.04-3.86-3.06c-1.13-1.02-2.06-2.16-3.31-3.46l-7.46,6.39L411.09,408.55z"/>
		<path class="st1" d="M418.76,416.63l2.96,2.74c-1.3,1.28-2.47,2.39-4.22,1.96c-0.65-0.15-1.2-0.56-1.55-1.13
			c-0.18-0.39,0.17-1.21,0.53-1.62C417.19,417.87,417.95,417.22,418.76,416.63z"/>
		<path class="st1" d="M419,424.09c1.09,2.79,1.07,4.85-0.11,8.21C417.23,430.2,417.29,426.11,419,424.09z"/>
		<path class="st1" d="M418.86,443.01c2.08,1.37,2.22,2.69-0.19,4.6l-2.42-2.23L418.86,443.01z"/>
	</g>
</g>
</svg>
