<?xml version="1.0" encoding="utf-8"?>
<!-- Generator: Adobe Illustrator 25.2.3, SVG Export Plug-In . SVG Version: 6.00 Build 0)  -->
<svg version="1.1" id="Layer_1" xmlns="http://www.w3.org/2000/svg" xmlns:xlink="http://www.w3.org/1999/xlink" x="0px" y="0px"
	 width="612px" height="792px" viewBox="0 0 612 792" style="enable-background:new 0 0 612 792;" xml:space="preserve">
<style type="text/css">
	.st0{fill:#010101;}
</style>
<g>
	<g id="XMLID_35_">
		<g>
			<path class="st0" d="M18.71,95.91c6.89-12.32,10.83-26.29,11.38-40.4c0.08-2.06,1.77-3.78,3.69-4.53
				c1.92-0.75,4.04-0.72,6.11-0.65c25.98,0.93,51.76,7.12,75.33,18.09c-1.7-6.64-2.2-13.58-1.48-20.39c0.33-3.11,0.92-6.2,1.98-9.14
				c3.28-9.04,11.62-16.33,21.19-17.31c9.57-0.97,19.69,5.11,22.39,14.34c1.06,3.64,1.17,7.85,3.86,10.52
				c1.61,1.6,3.86,2.32,5.93,3.22c2.08,0.9,4.21,2.21,4.98,4.34c0.77,2.13-0.71,5.07-2.96,4.89c-1.09-0.09-2.01-0.83-3.07-1.09
				s-2.52,0.39-2.33,1.46c0.16,0.87,1.23,1.17,2.09,1.36c1.94,0.42,3.94,1.26,4.95,2.97c1.01,1.7,0.45,4.38-1.45,4.95
				c-2.33,0.69-5.21-1.91-7.02-0.28c0.43,2.85,5.77,2.37,6.39,5.19c0.3,1.35-0.88,2.69-2.24,2.96c-1.35,0.27-2.74-0.28-3.89-1.06
				c-1.01-0.69-1.96-1.58-3.17-1.74c-1.21-0.17-2.64,0.96-2.18,2.09c0.18,0.45,0.6,0.75,0.99,1.02c2.06,1.43,4.12,2.86,6.19,4.29
				c0.03,2.6-3.66,3.48-6.07,2.53c-2.42-0.95-4.58-2.86-7.18-2.8c-2.63,0.07-4.71,2.13-6.93,3.54c-4.23,2.68-9.59,3.11-14.53,2.22
				c-4.93-0.89-9.56-2.98-14.12-5.05c-17.82-8.08-35.93-16.21-55.26-19.21c-1.51-0.23-3.62,0.01-3.76,1.52
				c-1.1,12.36-5.25,24.43-11.98,34.85c-0.95,1.47-2.08,3.01-3.75,3.55c-1.55,0.5-3.22,0.03-4.77-0.44
				C31.59,99.78,25.15,97.85,18.71,95.91z M140.13,77.92c-0.71-0.51-1.89,0.03-1.98,0.9c-0.08,0.87,0.98,1.62,1.77,1.26
				C140.73,79.72,140.85,78.43,140.13,77.92z M132.56,74.54c-0.71-0.38-1.73,0.24-1.71,1.05c0.02,0.81,1.07,1.38,1.76,0.96
				C133.3,76.12,133.27,74.93,132.56,74.54z M145.3,61.61c-0.93-0.62-1.99-1-3.08-1.22c-2.64-0.53-5.59,0.03-7.55,1.87
				c-1.97,1.84-2.68,5.05-1.29,7.36c0.39,0.64,0.91,1.2,1.45,1.72c1.43,1.37,3.1,2.6,5.03,3.03c3.19,0.71,6.75-1.12,8.03-4.12
				C149.18,67.26,148.02,63.41,145.3,61.61z M128.03,66.46c-0.66-0.23-1.44,0.47-1.28,1.15l-0.05-0.03
				c0.13,0.69,1.11,1.04,1.64,0.58C128.88,67.71,128.69,66.69,128.03,66.46z M157.17,61.02c0.25-0.6,0.85-0.98,1.25-1.49
				c0.41-0.51,0.57-1.37,0.03-1.75c-0.29-0.19-0.67-0.17-1.02-0.13c-1.61,0.22-3.18,0.73-4.6,1.52c-0.45,0.25-0.91,0.55-1.14,1.01
				c-0.34,0.69-0.08,1.51,0.26,2.2c0.43,0.87,0.98,1.68,1.64,2.4c0.91,1.01,2.65,1.79,3.51,0.74
				C158.09,64.32,156.56,62.45,157.17,61.02z M128.89,59.57c-0.49,0.37-0.38,1.28,0.19,1.52c0.57,0.24,1.3-0.31,1.23-0.92
				C130.23,59.56,129.39,59.2,128.89,59.57z M148.21,55.25c2.94-1.5,4.98-4.63,5.11-7.92c0.13-3.29-1.7-6.6-4.58-8.2
				c-2.88-1.6-6.7-1.36-9.33,0.62c-3.1,2.33-4.23,6.87-2.71,10.44c1.52,3.56,5.47,5.88,9.34,5.61
				C146.79,55.74,147.54,55.59,148.21,55.25z M132.52,47.82c-0.85-0.93-2.61-0.71-3.2,0.39c-0.68,1.27,0.55,3.06,1.98,2.89
				S133.48,48.88,132.52,47.82z M131.1,39.24c-1.09,0.34-1.46,1.98-0.62,2.76c0.83,0.77,2.45,0.27,2.7-0.84
				C133.43,40.06,132.19,38.91,131.1,39.24z M149.6,32.61c-1.21,0.29-1.73,2.06-0.87,2.96c0.86,0.9,2.65,0.47,3-0.73
				C152.08,33.65,150.81,32.32,149.6,32.61z M139,30.56c-0.98,0.21-1.45,1.62-0.78,2.37c0.67,0.75,2.13,0.45,2.44-0.5
				C140.98,31.47,139.99,30.36,139,30.56z"/>
		</g>
	</g>
</g>
<g id="XMLID_33_">
	<g>
		<path class="st0" d="M147.69,757.42c-2.04-2.12-5.4-2.44-8.23-1.65c-1.13,0.32-2.27,0.83-2.99,1.77
			c-0.84,1.11-0.95,2.62-0.83,4.01c0.17,1.98,0.79,4.04,2.29,5.33c1.28,1.11,3.06,1.51,4.75,1.36c3.09-0.26,6.08-2.54,6.61-5.62
			C149.6,760.77,148.99,758.77,147.69,757.42z M134.58,648.41c1.89,0.71,3.96-0.15,5.98-0.2c2.01-0.05,4.45,1.66,3.67,3.52
			c-0.78,1.87-3.9,1.61-4.82,3.42c2.13,0.37,4.26,0.74,6.4,1.11c0.84,1.03-0.86,2.26-2.17,2.35c-1.31,0.09-3.14,0.46-3.05,1.79
			c0.16,2.4,5.29,0.09,5.99,2.38c0.44,1.42-1.53,2.24-2.99,2.46c-1.46,0.22-3.35,1.42-2.58,2.69c1.41-1.55,4.52-0.64,4.8,1.45
			c0.27,2.09-2.66,3.76-4.24,2.37c-1.32,0.33-0.18,2.31,1,2.99c1.18,0.68,1.98,2.94,0.62,2.92c-3.26-0.05-6.46,1.93-7.9,4.87
			c-3.87,7.91-14.47,11.19-22.55,7.81c-8.08-3.39-13.15-12.33-13.14-21.15c0.01-8.82,4.59-17.25,11.17-23.07
			c-15.66-1.79-31.2-4.77-46.42-8.91c-1.3-0.36-2.63,0.79-2.99,2.1s-0.03,2.71,0.29,4.02c4.1,16.74,6.74,33.83,7.89,51.03
			c0.2,2.98,0.43,6.17,2.28,8.49c1.59,2,4.08,2.99,6.47,3.84c19.95,7.15,41.11,10.88,62.28,10.98c4.07,0.02,8.75,0.19,11.25,3.42
			c1.81,2.34,1.85,5.59,3,8.32c1.16,2.74,4.81,4.97,6.92,2.91c1.29-1.27,3.85-0.03,3.9,1.78c0.05,1.81-2.04,3.23-3.78,2.74
			c-0.88,0.64,0.38,2.01,1.46,1.89c1.07-0.13,2.13-0.85,3.16-0.52c1.25,0.39,1.58,2.17,0.94,3.33c-0.63,1.16-1.86,1.83-3.02,2.43
			c1.99-0.83,4.3,1.38,4.03,3.53c-0.27,2.15-2.44,3.69-4.59,3.81c1.72,0.8,3.35,1.82,4.83,3.02c0.96,2.34-2.36,3.87-4.67,4.85
			c-5.69,2.43-8.68,8.73-13.56,12.55c-8.04,6.31-21.3,3.98-26.75-4.7c-3.29-5.23-3.76-11.87-2.59-17.96
			c1.17-6.08,3.83-11.76,6.46-17.36c-24.8-3.42-49.41-8.22-73.68-14.38c-4.21-1.07-9.3-3.21-9.48-7.58
			c-1.14-27.91-13.39-54-19.52-81.25c-0.63-2.83-1.2-5.85-0.25-8.59c0.95-2.74,3.96-4.98,6.68-4.01
			c29.55,10.54,60.11,20.97,91.41,19.23c3.19-0.18,6.19,1.83,8.07,4.44C132.68,642.19,133.64,645.33,134.58,648.41z M132.52,664.75
			c-0.53-0.33-1.2-0.29-1.81-0.16c-1.23,0.26-2.4,0.84-3.36,1.66c-0.41,0.35-0.81,0.9-0.59,1.4c0.59,1.27,1.46,2.42,2.52,3.33
			c0.82,0.7,1.9,1.28,2.94,1.01c1.04-0.27,1.68-1.8,0.84-2.49c-0.9-0.74-1-2.29-0.2-3.14C133.3,665.89,133.05,665.07,132.52,664.75z
			 M119.89,651.26c-2.86-0.63-6.16,0.91-7.18,3.67c-1.16,3.14,0.21,7.03,3.08,8.72c2.87,1.7,6.91,1.01,9.06-1.55
			c0.46-0.55,0.84-1.17,1.04-1.86c0.28-0.98,0.16-2.04-0.1-3.02C125.01,654.38,122.75,651.89,119.89,651.26z M124.25,673.07
			c-1.45-2.41-4.47-3.73-7.21-3.16c-3.23,0.68-5.67,4.02-5.37,7.33c0.3,3.31,3.32,6.14,6.61,6.22c0.99,0.02,1.99-0.17,2.9-0.58
			c0.96-0.43,1.83-1.09,2.5-1.91C125.46,678.8,125.7,675.48,124.25,673.07z M155.1,750.22c-0.81-0.19-1.61,0.28-2.31,0.73
			c-1.18,0.76-2.53,1.99-2.04,3.31c0.11,0.29,0.3,0.53,0.5,0.76c1.24,1.38,3.18,2.09,5.01,1.81c0.33-0.8-0.26-1.66-0.71-2.41
			c-0.45-0.75-0.66-1.91,0.09-2.34C156.38,751.68,155.91,750.42,155.1,750.22z M148.67,742.35c-0.57-2.99-3.54-5.26-6.56-5.22
			c-1.05,0.02-2.09,0.28-3.05,0.71c-2.31,1.04-4.19,3.37-4.06,5.91c0.1,2.04,1.49,3.88,3.29,4.82c1.8,0.94,3.93,1.07,5.92,0.67
			C147.17,748.67,149.24,745.35,148.67,742.35z"/>
	</g>
</g>
<g>
	<path class="st0" d="M80.66,127.03c6.51-2.78,15.2,1.26,16.67,8.18c1.15,5.45-1.81,10.81-3.3,16.18
		c-2.75,9.93-0.46,20.49,1.95,30.51c8.64,35.9,18.81,71.8,20.35,108.69c0.07,1.77,0.05,3.75-1.18,5.02
		c-1.22,1.28-4.02,0.79-4.01-0.98c0.1-25.56-5.62-50.77-11.38-75.68c-3.43-14.87-6.89-29.74-10.36-44.6
		c-1.11-4.75-2.26-9.59-4.81-13.75c-3.39-5.53-9.11-9.64-11.28-15.76C70.97,138.18,74.16,129.81,80.66,127.03z"/>
	<path class="st0" d="M111.12,161.9c3.46-1.27,7.29,0.54,10.17,2.84c2.3,1.85,4.41,4.2,5.05,7.08c1.1,4.9-2.3,9.71-6.16,12.94
		c-3.86,3.22-8.45,5.75-11.27,9.92c-1.13,1.68-1.93,3.55-2.72,5.42c-0.69,1.66-1.39,3.31-2.09,4.96c-1.16-4.42-2.02-8.9-2.57-13.43
		c-1.15-9.45-0.6-20.02,5.85-27.01C108.44,163.47,109.66,162.44,111.12,161.9z"/>
	<path class="st0" d="M89.16,202.06c-2.35-4.26-5.95-7.82-10.26-10.1c-4.24-2.25-9.05-3.24-13.27-5.51
		c-4.23-2.26-8.03-6.45-7.63-11.22c0.16-1.92,0.98-3.74,2.05-5.36c2.54-3.86,6.89-6.85,11.5-6.48c3.95,0.31,7.33,2.99,9.84,6.05
		c7.36,9.01,8.83,21.32,10,32.9c0.02,0.19,0.04,0.39-0.02,0.57C91.02,203.86,89.64,202.95,89.16,202.06z"/>
	<path class="st0" d="M119.62,205.32c2.77-0.45,5.57,0.66,7.94,2.15c2.76,1.73,5.28,4.17,6.09,7.32c1.04,4.1-1.07,8.39-3.85,11.57
		c-2.78,3.19-6.28,5.72-8.88,9.05c-2.45,3.13-4.05,6.92-4.58,10.86c-0.16,1.16-0.43,2.6-1.56,2.92
		c-3.43-11.02-6.87-22.79-3.86-33.94C112.14,210.75,115.03,206.07,119.62,205.32z"/>
	<path class="st0" d="M77.15,207.99c3.85-1.54,8.4-0.37,11.69,2.14c3.3,2.51,5.51,6.18,7.21,9.97c3.76,8.35,5.34,17.55,5.63,26.71
		c-1.89-0.85-3.09-2.7-4.37-4.33c-2.63-3.32-6.02-6.03-9.84-7.84c-3.85-1.82-8.09-2.73-11.84-4.76s-7.11-5.63-7.06-9.89
		c0.02-2.35,1.09-4.57,2.4-6.52C72.54,211.16,74.56,209.03,77.15,207.99z"/>
	<path class="st0" d="M128.92,241.18c2.68-0.16,5.22,1.19,7.39,2.78c2.53,1.86,4.88,4.29,5.56,7.36c0.94,4.32-1.68,8.65-4.88,11.69
		c-3.21,3.03-7.11,5.33-9.96,8.71c-3.12,3.7-4.74,8.41-6.29,13.01c-2.16-6.52-3.38-13.34-3.59-20.2c-0.12-3.49,0.04-7.02,0.86-10.41
		c0.48-1.99,1.19-3.91,2.11-5.75C121.88,244.81,124.94,241.4,128.92,241.18z"/>
	<path class="st0" d="M78.01,250.43c2.62-3.49,6.74-6.27,11.08-5.81c2.67,0.27,5.09,1.73,7.11,3.49c4.65,4.04,7.62,9.73,9.31,15.66
		c1.69,5.92,2.19,12.11,2.57,18.26c0.04,0.7-0.02,1.57-0.65,1.85c-2.9-4.61-6.73-8.74-11.55-11.26c-4.1-2.15-8.74-3.05-12.84-5.17
		c-4.1-2.11-7.86-6.02-7.65-10.63C75.49,254.48,76.61,252.3,78.01,250.43z"/>
	<path class="st0" d="M81.68,383.53c-0.02,0,0.01,0.52,0,0.79c-0.05,1.26,0.1,3.56-0.2,3.62c-1.96,0.4-4.15,0.81-6.01,0.3
		c-7.82-2.18-11.06-7.1-11.24-15.25c-0.07-3.03,1.31-3,3.34-2.78c2.41,0.26,2.44,0.25,2.04-1.76c-0.54-2.7-0.34-2.75,2.54-2.51
		c0.93,0.07,2.82-0.93,2.8-1.35c-0.31-4.91,3.32-3.57,5.63-3.39c4.46,0.35,9.04-1.61,10.78-5.27c0.26-0.55,0.34-1.37,0.12-1.91
		c-1.54-3.83-7.56-6.54-11.64-5.57c-2.32,0.55-5.18,1.38-4-3.11c0.48-1.83-0.45-2.3-2.48-1.7c-1.38,0.41-5.01,1.22-2.45-2.71
		c-1.01-0.64-2.46-2.08-2.93-1.81c-2.39,1.37-2.6-0.3-2.77-1.76c-1.26-10.6,7.23-16,15.91-15.77c0.77,0.02,2.3,2.09,2.11,2.44
		c-1.67,2.98,0.17,2.92,2.28,3.35c0.81,0.17,2.09,2.16,1.83,2.71c-1.56,3.34,0.18,3.19,2.48,2.66c2.41-0.56,2.96-0.29,1.89,2.41
		c-1.77,4.43,0.73,10.29,5.02,12.33c0.96,0.46,2.76-0.17,3.84-0.84c1.36-0.85,2.43-2.2,3.53-3.43c1.79-1.98,4.44-3.82,4.98-6.14
		c0.44-1.91-1.6-4.43-2.63-6.65c-3.3-7.14-0.79-12.67,6.71-14.74c4.61-1.26,9.98-8.63,9.69-14.59c-0.34-6.81,3.91-10.47,8.64-13.38
		c9.4-5.77,15.44-4.76,23.66,2.74c4.54,4.14,9.13,8.1,11.08,14.34c3.33,10.68-4.43,23.43-15.57,24.89
		c-9.96,1.3-8.6,1.51-11.14,10.16c-2.66,9.02-10.78,12.69-18.6,6.29c-2.71-2.22-4.57-2.06-6.89,0.3c-2.26,2.3-5.01,4.13-7.1,6.55
		c-0.79,0.92-1.03,3.54-0.33,4.32c2.71,3.01,5.72,5.84,9.02,8.17c1.45,1.02,3.68,0.9,5.05-0.24c4.33-3.62,8.89-4.11,13.64-1.6
		c4.71,2.48,7.05,6.63,6.81,12.05c-0.12,2.73,1.13,4.23,2.93,5.12c1.27,0.63,2.71,0.78,4.13,0.73c9.04-0.38,17.51,11.94,18.11,16.23
		c0.57,4.08-0.41,9.15-2.55,12.66c-5.13,8.37-12.23,14.77-22.39,17c-5.6,1.23-10.08-0.98-13.71-4.45
		c-5.39-5.13-9.17-11.31-8.18-19.55c-0.37-3.49-2.4-5.41-5.12-6.76c-2.05-1.02-4.33-1.68-6.18-2.97
		c-6.38-4.47-5.28-10.19-0.65-16.56c1.55-2.14,2.09-3.5,0.06-5.49c-1.81-1.77-3.17-4.01-5.04-5.7c-1.68-1.53-5.05-4.04-5.48-3.65
		c-2.68,2.39-6.37,4.27-6.33,8.8c0.02,2.5,1.49,6.33-3.64,5.7C86.46,379.99,85.84,383.17,81.68,383.53z M127.54,317.56
		c-4.49-1.02-6.48,1.55-7.89,9.29c0.97,0.97,1.88,1.99,2.92,2.89c2.48,2.16,5.23,3.59,8.45,1.63c3.33-2.02,4.47-5.72,3.23-8.74
		C133.31,320.34,130.11,318.14,127.54,317.56z M129.45,379.58c-3.48-1.35-6.89-0.04-9.38,3.83c-0.41,1.2-1.18,2.4-1.16,3.6
		c0.03,2.83,4.48,6.9,7.46,7.13c3.07,0.25,7.4-3.17,8.15-6.45C135.08,385.28,132.17,380.63,129.45,379.58z"/>
	<path class="st0" d="M115.39,419.53c0.07-1.64,2.66-2.03,3.79-0.83c1.13,1.19,1.16,3.02,1.11,4.66
		c-1.27,40.62-11.61,80.32-19.89,120.1c-2.22,10.64-4.29,21.77-1.49,32.28c1.82,6.85,5.64,14.1,2.75,20.57
		c-2.86,6.39-12.06,8.41-17.9,4.55c-5.85-3.86-7.84-12.15-5.37-18.7c2.35-6.2,7.86-10.68,10.91-16.56
		c1.77-3.43,2.66-7.23,3.53-10.99C103.12,510.05,113.46,465.2,115.39,419.53z"/>
	<path class="st0" d="M111.12,431.35c0.75,0.02,0.93,1.06,0.89,1.81c-0.38,6.4-0.82,12.83-2.35,19.07
		c-1.54,6.23-4.24,12.29-8.65,16.94c-2.53,2.67-5.89,4.93-9.56,4.76c-3.28-0.16-6.19-2.24-8.34-4.72
		c-2.49-2.87-4.28-6.65-3.73-10.41c0.66-4.48,4.43-7.88,8.45-9.96c4.02-2.07,8.48-3.21,12.42-5.43
		C105.04,440.69,108.92,436.4,111.12,431.35z"/>
	<path class="st0" d="M123.33,435.22c0.29-1.74,0.6-3.54,1.58-5c1.29,5.2,3.05,10.45,6.5,14.56c2.75,3.29,6.41,5.66,9.52,8.61
		c3.1,2.95,5.78,6.85,5.58,11.13c-0.18,3.85-2.67,7.26-5.68,9.66c-2.45,1.96-5.57,3.47-8.65,2.91c-3.67-0.66-6.23-4.01-7.77-7.4
		C119.58,459.06,121.41,446.74,123.33,435.22z"/>
	<path class="st0" d="M118.09,472.36c0.35-1.39,0.72-2.82,1.57-3.97c1.07,4.82,2.19,9.75,4.86,13.9c2.7,4.19,6.79,7.27,9.98,11.11
		c3.2,3.83,5.51,9.11,3.71,13.76c-1.03,2.65-3.24,4.67-5.57,6.32c-1.92,1.38-4.05,2.63-6.42,2.76c-2.75,0.16-5.42-1.3-7.24-3.37
		c-1.81-2.07-2.86-4.71-3.55-7.37C112.62,494.65,115.36,483.23,118.09,472.36z"/>
	<path class="st0" d="M103.19,473.79c0.65-1.17,1.37-2.53,2.67-2.86c-0.8,13.15-1.97,27.29-10.39,37.43
		c-2.93,3.53-7.31,6.57-11.79,5.64c-2.67-0.55-4.89-2.44-6.7-4.47c-2.39-2.69-4.43-6.03-4.27-9.62c0.19-4.58,3.87-8.32,7.9-10.52
		c4.02-2.2,8.56-3.34,12.57-5.58C97.35,481.46,100.86,477.96,103.19,473.79z"/>
	<path class="st0" d="M109.66,517.44c1.07,5.71,3.94,11.07,8.09,15.13c2.86,2.79,6.29,4.95,9.15,7.75c2.85,2.8,5.19,6.52,4.96,10.51
		c-0.21,3.65-2.51,6.86-5.18,9.36c-2.25,2.13-5.11,3.99-8.21,3.77c-4.04-0.29-6.96-3.96-8.74-7.6c-2.3-4.7-3.61-9.88-3.81-15.1
		c-0.15-3.95,0.32-7.89,0.79-11.8c0.44-3.66,0.88-7.32,1.32-10.97c0.05-0.47,0.13-0.97,0.48-1.29
		C108.87,516.9,109.57,516.98,109.66,517.44z"/>
	<path class="st0" d="M95.79,519.77c-1.02,13-2.42,26.97-10.97,36.83c-2.66,3.07-6.35,5.74-10.4,5.48
		c-3.92-0.25-7.19-3.18-9.37-6.44c-1.66-2.48-2.93-5.39-2.69-8.37c0.34-4.27,3.69-7.74,7.41-9.88c3.72-2.15,7.9-3.32,11.69-5.33
		c5.1-2.7,9.38-6.91,12.15-11.96c0.48-0.87,1.89-1.73,2.16-0.78C95.81,519.46,95.8,519.62,95.79,519.77z"/>
</g>
</svg>
