<?xml version="1.0" encoding="utf-8"?>
<!-- Generator: Adobe Illustrator 25.2.3, SVG Export Plug-In . SVG Version: 6.00 Build 0)  -->
<svg version="1.1" id="Layer_1" xmlns="http://www.w3.org/2000/svg" xmlns:xlink="http://www.w3.org/1999/xlink" x="0px" y="0px"
	 width="5760px" height="2520px" viewBox="0 0 5760 2520" style="enable-background:new 0 0 5760 2520;" xml:space="preserve">
<style type="text/css">
	.st0{fill:none;stroke:#2B2A29;stroke-width:1.0001;stroke-miterlimit:10;}
</style>
<g transform="translate(0.000000,1988.000000) scale(0.100000,-0.100000)">
	<path d="M27478.64,17215.83c-385-74-802-414-1259-1026c-158-211-266-375-629-950c-1033-1636-1189-1897-1590-2665
		c-271-519-507-937-683-1210c-114-177-291-402-269-343c30,82,240,1304,327,1903c50,345,77,506,141,845c179,950,417,1937,544,2260
		c20,50,35,93,33,95c-12,13-722-91-1086-158l-174-32l-200-310c-686-1065-1216-1961-1621-2740c-150-287-266-484-515-870
		c-1102-1707-2432-3219-2971-3379c-106-31-159-17-192,52c-54,112,11,410,186,842c167,413,495,1073,741,1491c108,183,144,209,144,103
		c0-117,44-157,122-111c50,29,95,81,195,222c160,227,746,1140,847,1320c141,252,206,493,177,661c-32,184-133,289-304,316
		c-133,20-276-27-461-151c-829-560-2148-2723-2655-4356c-129-416-184-724-184-1020c1-343,66-491,241-545c80-25,272-27,407-5
		c856,141,1874,1007,2931,2495c290,408,565,837,817,1275c777,1351,1564,2655,1542,2555c-20-92-249-1370-305-1707
		c-73-430-156-992-189-1273c-46-388-245-1168-429-1684c-40-110-54-162-46-164c7-2,228,42,491,97c263,54,511,105,552,112
		c49,8,80,19,93,33c44,46,446,542,564,696c612,796,1272,1851,1948,3113c283,528,573,987,1085,1717c106,151,232,338,279,415
		c112,184,226,351,305,450c136,169,342,342,506,425c161,81,364,129,583,137l148,6l109,141c231,300,301,433,309,589
		c10,187-59,279-239,322C27750.64,17226.83,27565.64,17231.83,27478.64,17215.83z"/>
	<path d="M33438.64,15158.83c-330-88-939-466-1573-976c-384-308-607-509-996-898c-481-481-801-859-1106-1305
		c-182-266-373-614-469-854l-44-110l-160-119c-400-298-732-488-983-563c-64-19-112-27-182-28c-84-1-101,2-145,25c-30,15-62,42-80,68
		c-27,39-30,50-29,119c3,300,378,849,929,1358c408,377,435,418,435,669c0,250-70,441-175,475c-41,14-75,5-180-48
		c-218-108-579-399-1435-1152c-793-699-1020-881-1328-1069c-348-212-542-271-600-183c-35,54-12,281,43,428c66,175,188,299,565,575
		c205,149,280,218,485,444c95,105,210,226,255,270c101,98,192,210,227,278c14,29,27,76,30,109c10,102-23,144-138,175
		c-94,26-563,26-659,0c-87-23-229-95-315-158c-111-82-458-437-561-574c-176-232-303-441-405-665c-223-487-279-934-163-1301
		c159-507,545-705,964-494c76,38,209,126,294,193c127,101,246,212,566,528c173,171,325,316,338,323c37,20,37-8-3-109
		c-45-114-95-289-126-435c-30-141-32-327-5-425c101-372,395-530,786-425c398,108,999,515,1573,1064c104,100,111,102,121,36
		c3-16,14-106,26-199c54-452,158-710,312-776c42-18,65-21,118-18c127,9,177,54,314,280c52,87,120,192,152,235c53,71,309,343,323,343
		c3,0,35-48,71-108c102-169,278-429,370-548c117-150,296-332,413-420c121-91,272-166,392-195c124-29,305-23,450,15
		c179,48,398,144,621,271c224,129,570,372,790,556c46,38,89,69,97,69c21,0,32-17,56-90c43-132,179-375,307-547
		c32-43,107-128,168-189c181-180,276-215,442-159c269,90,987,534,1598,987c114,84,147,100,161,78c4-6-27-77-68-158
		c-216-424-314-797-268-1017c40-189,149-321,308-377c94-32,269-32,393,1c263,69,636,260,1060,542c299,199,689,495,779,593l24,26
		l-31,172c-18,94-34,173-36,175c-2,3-64-34-138-80c-369-233-664-386-886-458c-168-55-357-52-473,7c-91,45-138,111-146,203
		c-8,82,12,161,68,270c62,122,163,256,368,491c341,389,409,507,381,662c-22,120-90,220-212,311c-54,40-49,53,21,60
		c83,9,168,43,215,88c39,35,41,41,40,93c0,44-9,72-43,142c-125,252-383,374-790,374c-608,0-1333-191-2001-526
		c-605-305-1016-648-1189-994c-26-52-50-104-53-115c-9-36-448-324-718-473c-431-237-679-297-897-220c-148,53-303,188-424,371
		c-59,91-59,91-37,103c13,7,142,64,288,127c765,332,1113,525,1319,729c238,237,330,510,276,824c-48,274-153,448-323,532
		c-72,35-82,37-186,40c-92,3-127-1-206-21c-381-99-962-421-1712-948c-276-195-671-492-917-690c-201-162-277-219-293-219
		c-9,0-9,172,1,212c9,41,320,331,1256,1178c264,239,561,508,660,599c1402,1287,2015,1968,2052,2279c17,149-106,283-261,281
		C33537.64,15178.83,33477.64,15169.83,33438.64,15158.83z M32584.64,11608.83c70-15,101-46,101-102c0-89-83-197-229-296
		c-32-22-246-153-477-292c-230-138-465-281-522-316l-104-64l-18,24c-26,33-148,115-258,174l-93,50l75,68c174,157,450,354,656,470
		c221,125,491,232,687,275C32508.64,11621.83,32520.64,11622.83,32584.64,11608.83z M36855.64,11194.83c0-14-218-208-515-460
		c-679-575-1217-958-1523-1086c-88-36-211-69-261-69c-98,0-188,64-211,150c-17,62-14,227,6,302c74,288,364,541,869,759
		c284,122,771,262,1190,343c105,21,228,45,275,55C36795.64,11212.83,36855.64,11214.83,36855.64,11194.83z"/>
	<path d="M41718.64,9231.83c-106-38-200-98-343-217c-999-840-2393-1364-4230-1590c-682-84-1313-118-2145-118
		c-1181,0-2093,65-3695,264c-688,85-864,113-1992,314c-2029,363-2879,476-3948,525c-1200,55-2573-98-3785-421
		c-1390-372-2752-997-3775-1734c-904-652-1523-1195-1906-1676c-227-286-395-609-468-904c-52-210-67-571-32-770
		c68-381,246-640,541-787c242-121,528-145,829-69c210,53,481,182,671,319l80,58l-2,45c-1,24-5,58-8,75c-5,30-8,32-61,37
		c-155,16-274,139-325,335c-102,392,72,858,453,1218c130,122,458,357,778,556c1321,822,2844,1315,4585,1482
		c1069,103,2111,80,3340-75c584-73,958-132,2415-379c2116-360,3164-485,4685-562c340-17,1695-17,1990,0c670,39,1155,88,1665,168
		c1174,185,2138,478,3020,920c597,299,1074,625,1525,1040c208,192,314,331,434,570c147,292,214,549,215,824c0,223-43,375-135,475
		C41998.64,9258.83,41869.64,9284.83,41718.64,9231.83z"/>
	<path d="M25285.64,4864.83c-956-139-2438-940-3625-1959c-1048-899-1753-1859-2024-2756c-89-294-124-523-125-815
		c-1-289,32-501,111-729c253-726,946-1200,1833-1251c334-20,820,61,1268,211c871,291,1917,931,2828,1730c342,300,488,474,529,629
		c14,54,23,345,11,345c-3,0-74-55-158-123c-1210-971-2449-1647-3408-1861c-326-72-584-71-858,4c-87,24-258,103-326,149
		c-218,150-358,383-412,686c-26,147-23,433,5,624c104,689,451,1352,1100,2101c158,182,496,527,705,719c360,330,427,390,530,480
		c797,687,1637,1134,2196,1168c88,5,102,4,144-17c120-58,137-227,46-443c-70-164-244-416-462-670c-210-244-617-652-863-864
		c-106-92-141-116-157-106c-4,2-5,43-2,91c6,85,6,88-21,114c-23,23-37,28-77,28c-79,0-139-37-358-220c-63-53-297-242-520-420
		s-444-363-492-410c-194-194-288-411-258-602c37-247,249-428,500-428c315,0,831,227,1337,588c647,462,1254,1063,1696,1682
		c261,366,466,787,532,1090c9,41,19,134,22,205c9,212-23,388-102,552c-120,248-324,400-622,463
		C25679.64,4876.83,25419.64,4884.83,25285.64,4864.83z"/>
	<path d="M33105.64,4315.83c-281-105-909-755-1762-1826c-247-310-377-482-446-589c-228-354-404-732-563-1211
		c-67-202-179-597-179-630c0-19-190-207-300-296c-236-191-408-274-570-274c-80,0-110,6-110,21c0,5,49,109,109,231
		c61,123,126,267,146,321c169,460,149,909-46,1052c-18,14-57,33-86,42c-97,30-105,71-20,94c89,24,158,142,142,242
		c-35,208-282,323-615,287c-478-51-1071-278-1535-585c-190-127-287-205-441-359c-189-190-306-352-405-561c-188-399-206-840-54-1302
		c82-249,183-422,334-574c131-131,248-197,418-235c102-22,354-15,495,15c340,73,660,258,1042,600c77,69,80,71,133,71
		c143,0,380,40,542,92c257,82,516,243,671,418c34,38,68,70,76,70c18,0,22-37,28-240c6-251,45-438,127-609c81-170,175-273,314-342
		c100-49,191-69,323-69c361,0,798,214,1283,631c145,124,339,313,467,454c70,76,94,97,103,88c6-6,28-54,48-105
		c118-299,365-590,591-697c87-41,136-47,205-25c111,34,320,175,560,375c55,46,320,300,590,564c269,264,533,522,585,572
		c63,63,102,93,117,93c13,0,23-2,23-4s-20-48-44-103c-96-216-213-554-272-783c-31-123-42-287-25-370c27-131,92-224,188-272
		c56-27,77-32,137-32c206,1,529,194,966,578c156,137,573,554,756,756c279,308,524,603,524,631c0,17-68,300-73,305
		c-2,2-113-106-248-239c-626-623-960-856-1196-834c-179,17-233,148-159,383c51,159,151,333,409,709c186,271,297,454,339,560
		c27,66,32,94,32,160c1,151-52,235-175,280c-35,12-64,28-64,35s31,32,69,54c85,50,178,134,200,180c22,47,20,131-5,186
		c-60,133-214,213-409,214c-112,0-247-33-455-112c-689-261-1585-796-2210-1318c-177-148-446-413-572-564c-173-206-325-451-393-632
		c-18-50-35-70-128-154c-435-395-907-681-1199-726c-249-39-446,115-524,408c-29,111-37,330-16,442c26,137,46,166,252,387
		c1189,1268,1769,2091,2044,2900c109,318,170,678,159,929c-8,171-64,257-168,255
		C33160.64,4328.83,33124.64,4322.83,33105.64,4315.83z M32559.64,2963.83c-44-119-158-359-249-525c-278-504-637-998-992-1361
		c-85-87-123-108-123-68c0,36,329,725,433,905c134,234,389,613,533,795c128,160,275,309,364,369l65,43l3-30
		C32595.64,3074.83,32580.64,3018.83,32559.64,2963.83z M35895.64,1463.83c0-40-320-426-705-849c-393-432-945-991-1107-1121
		c-96-76-357-246-428-277c-178-79-299,66-258,309c47,274,241,543,612,846c258,211,615,440,1216,778c158,89,634,329,653,330
		C35887.64,1479.83,35895.64,1472.83,35895.64,1463.83z M28395.64,712.83c0-9-26-62-59-117c-233-400-345-752-327-1026
		c7-112,22-173,66-269l33-71l-26-39c-48-72-201-187-344-260c-286-143-583-120-703,54c-86,126-91,294-14,524c95,284,246,501,463,664
		c121,90,365,255,496,335c143,87,388,222,403,222C28389.64,729.83,28395.64,722.83,28395.64,712.83z"/>
</g>
<g>
	<path class="st0" d="M633.9,1620.26c0,0-6.09,33.25-35.93,63.8c-29.84,30.55-70.52,86.89-70.49,144.56
		c0,0-19.5,127.46,74.15,140.53c93.64,13.07,103.12-25.84,103.12-25.84s25.79,7,56.1,9.02c30.31,2.02,54.96,0.65,54.96,0.65
		s4.34,82.55,56.35,75.29c52.01-7.26,73.27-26.05,63.29-73.54c0,0,35.96-2.28,64-5.46c28.04-3.18,46.81-8.85,46.81-8.85
		s14.19,52.77,101.18,20.12c86.99-32.65,72.7-116.56,67.03-146.86c-5.67-30.31-19.49-77.79-51.4-113.06
		c-31.91-35.27-58.62-72.79-58.62-72.79s77.92-222.37,52.5-389.04s-122.5-270.22-148.78-367.46
		c-26.29-97.24-36.26-133.2-36.26-133.2s36.63-18.79,27.79-61.76c-8.84-42.97-35.31-52.68-35.31-52.68s9.94-17.87,4.06-29.85
		c-5.89-11.99-49.33-43.4-107.45-37.49c-58.12,5.91-116.24,27.2-114.87,51.85l1.37,24.65c0,0-42.5,29.88-34.12,59.5
		c8.39,29.62,41.87,55.84,41.87,55.84s-34.53,134.59-51.03,176.21c-16.49,41.63-104.23,198.3-117.03,250.44
		c-14.28,58.14-26.39,136.4-6.2,259.2C601.19,1556.84,633.9,1620.26,633.9,1620.26L633.9,1620.26z"/>
	<path class="st0" d="M670.56,1868.24c0,0-14.92,9.51-12.42,38.68c2.5,29.17,3.87,38.45,3.87,38.45s-100.42,5.93-97.75-79.34
		c2.67-85.27,79.52-185.27,79.52-185.27l24,42.05c0,0,12.66-22.39-0.04-80.74c-12.7-58.35-68.88-244.23-56.04-346.47
		c12.84-102.24,25.24-179.37,62.52-241.58c37.29-62.22,62.81-125.33,62.81-125.33s45.69-1.83,116.68-40.77
		c71-38.94,99.25-71.97,99.25-71.97s27.42,105.61,50.96,149.7c23.55,44.09,77.42,136.34,90.57,181.12
		c13.14,44.78,43.32,241.98,3.8,360.52c-39.52,118.53-29.29,216.92-29.29,216.92l21.91-46.83c0,0,70.37,62.16,81.94,131.36
		c11.57,69.2,19.51,108.55-82.49,127.38c0,0,3.15-33.48-1.83-49.53c-4.98-16.06-16.07-25.77-16.07-25.77l-9.04,29.18l-128,14.77
		c0,0,4.25-86.63-1.87-122.59c-6.13-35.95-24.02-99.73-24.02-99.73s-17.6,79.4-14.39,180.49c3.22,101.1,4.7,122.34-20.8,128.02
		c-25.49,5.67-25.52-48.15-26.2-50.87c-0.57-2.25-1.05-157.89-9.38-210.03c-1.69-10.6-3.71-16.92-6.12-16.81
		c-14.25,0.69-15.06,193.16-15.06,193.16s-57.22,5.68-83,2.53s-53.16-12.64-53.16-12.64L670.56,1868.24z"/>
	<path class="st0" d="M838.76,1730.04c0,0,8.57-57.98,16.93-59.12c8.37-1.14,18.65,320.02,18.65,320.02"/>
	<path class="st0" d="M670.56,1868.24c0,0-2.29-43.65,10.14-74.64c12.42-30.99,28.45-85.97,28.45-85.97s-71.66,55.46-83.63,107.49
		c-11.96,52.03-10.77,123.49-10.77,123.49"/>
	<path class="st0" d="M720.18,1906.6l55.6-370.43c0,0-144.11-80.21-136.03-197.61c8.08-117.39,61.41-207.66,196.88-234.87
		c135.46-27.21,257.32,110.7,256.13,201.16c-4.14,313.48-316.98,231.31-316.98,231.31"/>
	<path class="st0" d="M811.2,1109.8l16.91-208.87"/>
	<path class="st0" d="M910.74,1513.41c-16.68,4.26-187.28,42.91-232.97-138.23c-33.07-131.11,74.33-219.12,140.97-235.28
		c68.82-16.69,195.62-0.95,235.57,157.29C1090.37,1440.04,932.08,1507.95,910.74,1513.41L910.74,1513.41z"/>
	<path class="st0" d="M720.1,1338.21c-3.43-5.55-0.29-12.69,2.86-18.4c5.65-10.27,11.3-20.55,16.96-30.82
		c1.51-2.74,3.05-5.61,3.16-8.73c0.11-3.12-1.69-6.55-4.75-7.19c-3.72-0.78-6.88,2.64-9.09,5.73
		c-8.43,11.75-16.08,24.19-21.21,37.71c-5.13,13.52-7.65,28.23-5.66,42.55c0.35,2.55,0.91,5.2,2.57,7.17
		c1.67,1.96,4.78,2.92,6.88,1.45c-1.6,6.99-6.13,12.91-8.84,19.55c-2.7,6.64-3.06,15.33,2.42,19.94c5.09,4.28,12.97,3.03,18.64-0.43
		c2.5-1.52,4.93-3.69,5.35-6.59c0.47-3.31-1.83-6.44-1.85-9.79c-0.02-2.59,1.32-4.97,2.73-7.14c7.08-10.89,17.06-19.87,28.64-25.77
		c5.52-2.81,11.38-4.92,17.27-6.84c31.86-10.36,65.5-15.22,98.99-14.31c30.65,0.83,60.36-7.31,90.04-14.99
		c4.38-1.13,8.78-2.29,12.93-4.11c7.65-3.37,14.12-8.88,20.47-14.31c11.8-10.1,24.11-20.92,29.1-35.63
		c-10.04,9.27-20.24,18.66-32.41,24.87c-5.79,2.95-11.93,5.14-18.04,7.32c-25.89,9.22-52.01,18.49-79.22,22.33
		c-10.97,1.55-22.05,2.21-33.12,2.86c-18.12,1.07-36.24,2.14-54.36,3.22c-15.03,0.89-28.43,9.29-42.2,15.38
		c-14.81,6.55-31.48,10.27-43.27,21.36c14.12-22.52,25.64-48.32,35.59-72.96c2.19-5.42,4.57-11.25,9.51-14.37
		c-2.36,9.29-3.92,18.79-4.68,28.35c-0.23,2.95-0.38,5.97,0.42,8.82c0.8,2.85,2.7,5.54,5.48,6.55c3.18,1.15,6.74-0.09,9.6-1.87
		c6.28-3.93,10.63-10.35,13.68-17.1c3.05-6.75,4.97-13.95,7.55-20.89c2.88-7.73,6.58-15.14,10.27-22.52
		c3.78-7.56,7.56-15.13,11.34-22.68c3.86-7.71,8.01-15.77,15.2-20.53c4.49-2.98,10.61-5.38,11.28-10.73
		c0.49-3.88-2.66-7.6-6.44-8.58c-3.78-0.98-7.87,0.36-11.02,2.68c-3.14,2.32-5.49,5.54-7.68,8.78
		c-12.26,18.01-21.48,38.01-28.02,58.79c-0.35,1.11-1.1,2.49-2.24,2.25c-0.79-0.17-1.18-1.03-1.39-1.81
		c-1.45-5.55,1-11.26,2.77-16.7c2.04-6.26,3.24-12.79,3.55-19.37c0.18-3.76-0.1-7.94-2.76-10.6c-2.25-2.25-5.81-2.84-8.9-2.08
		c-3.09,0.76-5.78,2.68-8.09,4.87c-8.3,7.86-12.37,19.08-16.21,29.85c-9.62,26.98-19.65,54.13-35.26,78.15
		C726.29,1334.49,724.34,1337.47,720.1,1338.21L720.1,1338.21z"/>
	<path class="st0" d="M833.73,1270.45c3.46-4.36,6.73-9.63,5.81-15.12c-0.13-0.75-0.35-1.51-0.83-2.11
		c-0.69-0.85-1.82-1.21-2.9-1.39c-4.97-0.8-10.04,1.56-13.62,5.09c-3.58,3.54-5.9,8.13-7.96,12.73c-2.87,6.41-5.41,13.42-4.15,20.33
		c1.26,6.91,7.69,13.34,14.61,12.13c6.62-1.15,10.5-8.19,16.56-11.09c1.74,5.65,5.47,11.86,11.37,12.08
		c6.19,0.24,10.25-6.03,14.53-10.51c1.12-1.17,2.4-2.29,3.97-2.69c1.57-0.4,3.48,0.16,4.18,1.62c0.51,1.08,0.3,2.44,0.98,3.43
		c1.35,1.97,4.59,0.53,5.8-1.53c1.22-2.06,1.77-4.71,3.8-5.96c2.33-1.42,5.45-0.2,7.36,1.75c1.91,1.94,3.06,4.5,4.82,6.58
		c3.28,3.89,8.72,5.84,13.73,4.93c5.02-0.92,9.41-4.67,11.1-9.47c0.79-2.22,1.02-4.63,2-6.77c0.98-2.15,3.02-4.1,5.37-3.89
		c3.45,0.3,4.8,4.49,6.95,7.21c3.61,4.56,11.4,4.9,15.39,0.66c1.68-1.79,2.7-4.16,4.57-5.76c1.87-1.6,5.24-1.96,6.45,0.18
		c0.53,0.94,0.48,2.09,0.84,3.1c0.94,2.7,4.5,3.69,7.22,2.8c2.72-0.89,4.77-3.1,6.69-5.22c6.06-6.69,12.17-13.43,16.89-21.13
		c1.01-1.65,1.99-3.44,1.97-5.38c-0.01-1.94-1.39-3.99-3.33-4.07c-1.3-0.05-2.46,0.74-3.43,1.6c-2.26,2.02-4.04,4.57-5.14,7.39
		c-0.82,2.12-1.32,4.46-2.86,6.12c-1.54,1.67-4.67,2.15-5.89,0.24c-1.24-1.94,0.38-4.39,1.93-6.09c4.86-5.29,10.22-10.9,11.06-18.02
		c0.26-2.22,0.03-4.56-1.11-6.48c-2.29-3.86-7.44-4.9-11.91-4.58c-12.74,0.93-23.57,9.61-32.17,19.05
		c-8.6,9.45-16.06,20.18-26.48,27.57c-1.53,1.08-3.22,2.12-5.09,2.19c-1.87,0.07-3.92-1.19-4.06-3.06
		c-0.14-1.81,1.42-3.25,2.84-4.39c4.21-3.37,8.42-6.74,12.63-10.11c3.63-2.9,7.67-7.37,5.64-11.56c-1.55-3.21-5.83-3.93-9.36-3.5
		c-5.45,0.67-10.66,3.17-14.59,7.01c-5.56,5.41-9.29,13.75-16.88,15.39c-1.84-1.26-0.8-4.14,0.49-5.96
		c11.15-15.82,28.65-27.63,34.82-45.97c0.86-2.55,1.47-5.34,0.66-7.91c-0.81-2.56-3.5-4.69-6.11-4.02c-1.55,0.4-2.71,1.64-3.77,2.84
		c-19.16,21.61-33.65,46.92-51.67,69.48c-1.57,1.97-3.47,4.08-5.99,4.24c-4.14,0.26-6.57-5.24-5.14-9.13
		c1.43-3.89,5.09-6.41,8.38-8.94c6.29-4.84,12.33-11.77,11.47-19.67c-6.71-1.34-13.66,1.77-18.71,6.38
		c-5.05,4.61-8.6,10.59-12.31,16.33c-1.97,3.06-7.13,13.12-11.63,12.11C824.02,1280.32,832.09,1272.52,833.73,1270.45
		L833.73,1270.45z"/>
	<path class="st0" d="M967.02,1254.35c0.1-0.35,0.19-0.74,0.02-1.06c-0.18-0.35-0.6-0.5-0.99-0.59c-3.76-0.9-7.78,0.36-10.98,2.54
		c-3.19,2.18-5.7,5.21-8.11,8.23c-1.32,1.66-2.65,3.35-3.46,5.31c-0.82,1.96-1.07,4.24-0.23,6.19
		C955.71,1275.12,963.76,1265.84,967.02,1254.35L967.02,1254.35z"/>
	<path class="st0" d="M905.68,1264.75c-0.34,0.67-0.57,1.42-0.51,2.17c0.06,0.75,0.46,1.5,1.14,1.84c0.6,0.3,1.3,0.24,1.96,0.11
		c2.42-0.45,4.7-1.64,6.44-3.38c0.72-0.72,1.37-1.58,1.53-2.58c0.14-0.86-0.1-1.73-0.33-2.57c-0.29-1.04-1.47-1.24-2.45-1.39
		c-1.05-0.16-1.96,0.5-2.8,1.04C908.71,1261.21,906.74,1262.64,905.68,1264.75L905.68,1264.75z"/>
	<path class="st0" d="M838.86,1389.62c4.7-4.57,9.09-9.78,11.02-16.05c1.87-6.06,1.22-12.86-1.78-18.46
		c-2.12-3.97-5.77-7.51-10.25-7.91c-2.52-0.22-5,0.56-7.38,1.41c-29.15,10.48-53.08,34.55-63.37,63.77
		c-4.62,13.11-5.91,29.44,3.88,39.3c6.63,6.67,16.97,8.59,26.22,6.93c9.26-1.65,17.66-6.4,25.53-11.54
		c4.18-2.73,8.31-5.61,11.82-9.17c6.02-6.1,11.13-14.63,19.64-15.63c0.31,7.53,5.57,14.62,12.68,17.1
		c7.12,2.49,15.64,0.21,20.57-5.49c2.22-2.56,3.72-5.68,5.94-8.24c2.47-2.84,5.82-4.91,9.47-5.85c1.53-0.4,3.29-0.55,4.57,0.36
		c1.39,0.99,1.75,2.85,2.54,4.36c2.87,5.51,11.33,5.39,16.26,1.63c4.94-3.77,7.48-9.78,10.63-15.13c0.95-1.61,2.26-3.36,4.13-3.47
		c2.68-0.17,4.21,2.94,6.47,4.39c3.83,2.47,9.03-0.41,11.63-4.16c2.6-3.74,3.93-8.38,7.11-11.65c1.45-1.49,3.67-2.68,5.56-1.81
		c1.6,0.75,2.26,2.65,3.47,3.95c3.42,3.67,9.59,1.37,13.56-1.69c8.17-6.28,14.46-14.98,17.84-24.72c1.12-3.22,1.91-6.85,0.56-9.99
		c-1.35-3.14-5.67-5.1-8.34-2.98c-1.49,1.19-2.02,3.2-2.45,5.05c-1.28,5.48-4.13,12.28-9.75,12.03c-2.98-3.28-1.95-8.47-0.19-12.54
		c1.75-4.07,4.09-8.33,3.13-12.66c-1.21-5.41-7.5-8.5-13-7.77c-5.5,0.73-10.18,4.32-14.08,8.26
		c-14.23,14.45-21.19,34.64-34.45,49.98c-1.14,1.32-2.47,2.69-4.19,2.99c-2.84,0.49-5.42-2.3-5.69-5.16
		c-0.27-2.86,1.11-5.62,2.69-8.03c6.08-9.33,15.3-16.25,21.53-25.49c3.04-4.5,5.37-9.79,4.89-15.2c-0.48-5.4-4.52-10.74-9.92-11.25
		c-7.23-0.68-12.43,6.7-15.3,13.37c-6.05,14.08-9.23,29.32-16.01,43.07c-1.99,4.04-5.46,8.53-9.9,7.76
		c-1.26-4.96-0.66-10.19-1.41-15.24c-0.75-5.06-3.47-10.45-8.4-11.78c-5.96-1.61-11.53,3.33-15.67,7.92
		c-10.73,11.9-21,24.4-33.67,34.22c-12.67,9.82-28.27,16.88-44.27,15.89c-1.24-0.08-2.53-0.22-3.6-0.86
		c-1.18-0.72-1.92-1.96-2.51-3.21c-4.26-9.04-2.41-20.01,2.38-28.77c4.79-8.77,12.17-15.79,19.42-22.65
		c9.23-8.73,18.75-17.65,30.51-22.47c2.39,5.09-1.08,10.88-4.48,15.35c-4.52,5.94-9.2,11.77-14.03,17.46
		c-2.89,3.41-11.26,9.62-10.19,14.57C812.58,1414.51,835.4,1392.99,838.86,1389.62L838.86,1389.62z"/>
	<path class="st0" d="M865.88,1408.98c-0.21,1.39,0.08,2.8,0.36,4.18c0.58,2.77,1.32,5.79,3.61,7.45c1.12,0.82,2.54,1.21,3.92,1.08
		c2.49-0.23,4.64-2.14,5.58-4.46c1.61-4.01-0.02-10.98-3.48-13.8C872.21,1400.42,866.48,1405.05,865.88,1408.98L865.88,1408.98z"/>
	<path class="st0" d="M952.56,1385.61c-1.32,2.85-2.27,6.09-1.38,9.1c2.9,0.46,5.88-0.52,8.36-2.08c2.48-1.57,4.54-3.7,6.57-5.82
		c2.69-2.83,5.55-5.85,6.85-9.61c1.09-3.15,0.86-8.2-3.51-8.08C962.4,1369.28,955.14,1380.05,952.56,1385.61L952.56,1385.61z"/>
	<path class="st0" d="M729.24,1278.8c0,0,8.17-35.84,33.26-70.01c25.09-34.17,57.93-69.32,57.93-69.32"/>
	<path class="st0" d="M732.91,1379.43c0,0,1.87,25.69,14.66,58.53c12.8,32.84,33.57,68.11,33.57,68.11"/>
	<path class="st0" d="M748.88,891.59c0,0,69.09-19.71,112.27-50.72c43.19-31.01,87.28-58.4,87.28-58.4l-8.95-35.73
		c0,0-12.33-3.16-14.14-10.4c-1.81-7.23,17.18-10.07,17.18-10.07s35.39-14.15,29.6-44.91c-5.79-30.76-24.22-37.2-24.22-37.2
		s-25.32,23.65-85.92,33.07c-60.61,9.42-97.6-15.44-97.6-15.44s-27.02,20.71-17.85,40.04c9.17,19.33,41.41,38.65,74.54,34.68
		c33.13-3.98,87.98,1.99,87.98,1.99s-40.59,14.5-70.56,17.68c-29.96,3.18-56.54,0.7-56.54,0.7s-0.95,36.77-8.59,63.68
		S748.88,891.59,748.88,891.59L748.88,891.59z"/>
	<path class="st0" d="M767.89,614.47c1.33,25.21,28.15,48.25,93.61,37.88c36.52-5.79,84.96-20.41,84.12-44.15
		c-1.03-29.06-64.9-30.02-88.11-29.36C833.41,579.53,766.62,590.4,767.89,614.47z"/>
	<path class="st0" d="M799.64,616.34c0.32,14.22,17.13,26.67,59.59,19.41c23.69-4.05,55.25-13.36,55.22-26.76
		c-0.05-16.41-41.24-15.58-56.22-14.71C842.65,595.18,799.33,602.75,799.64,616.34L799.64,616.34z"/>
</g>
<g id="XMLID_1_">
	<path id="XMLID_79_" d="M4854.54,807.09c8.23,2.57,13.89,7.71,19.54,13.89c16.46,17.49,42.17,19.03,60.17,3.6
		c11.83-10.29,20.06-9.26,32.92,3.09c16.46,15.43,26.23,34.46,36,55.03c21.09,44.74,22.63,92.06,19.54,140.4
		c-1.03,13.89-3.09,28.29-2.57,42.69c5.14,0,8.23-3.09,11.31-6.17c6.69-6.69,13.89-9.26,23.14-9.26
		c13.37,0.51,25.2-4.63,36.52-11.31c8.74-5.14,14.4-4.63,21.6,2.57c7.71,7.2,15.43,13.89,23.66,20.57
		c4.63,4.11,10.29,6.17,16.46,7.2c13.89,2.06,26.23,6.17,34.46,20.06c2.57,4.11,7.2,8.74,11.31,12.34c4.63,4.11,9.26,3.6,13.89,3.09
		c5.14-0.51,5.66-5.66,6.17-9.77c1.03-4.63,0-11.31,5.66-12.86s9.26,4.11,13.37,7.2c8.74,7.2,11.83,18,12.86,28.8
		c1.03,12.34,1.03,24.69,0,37.03c-0.51,9.77-4.11,19.03-9.26,27.26c-7.2,11.83-8.74,24.17-6.69,37.54
		c4.11,34.97,3.09,69.94-14.91,101.83c-4.11,6.69-9.26,12.86-13.89,19.03c-11.31,15.94-10.29,23.66,5.14,36
		c28.29,22.11,44.74,52.46,53.49,86.4c5.14,19.03,4.63,39.09,3.6,58.63c-1.54,25.71-1.03,51.43-2.06,77.14
		c-1.54,26.23-7.71,51.43-10.29,77.14c-1.03,8.74-1.54,18-1.03,26.74c0.51,8.23,3.6,15.94,10.8,20.06
		c23.66,12.86,38.06,34.46,55.03,53.49c12.34,13.37,26.23,24.69,38.06,38.57c7.2,8.23,16.97,6.69,26.23,2.57
		c6.69-3.09,13.37-7.2,20.57-9.26c8.74-2.57,16.97-1.54,23.14,5.66c5.66,6.69,3.6,14.4,0.51,21.6
		c-9.26,19.03-22.63,35.49-37.03,50.92c-14.4,14.91-28.8,29.83-45.77,42.17c-14.91,10.29-16.46,25.2-12.86,41.14
		c11.31,57.09,7.71,113.66-6.69,169.72c-7.71,29.83-16.46,59.14-33.43,84.34c-28.8,43.2-64.29,80.23-117.26,92.06
		c-41.14,9.26-82.8,6.17-123.43-7.2c-59.66-19.03-109.03-54-152.23-98.75c-17.49-18-33.94-37.54-49.89-56.57
		c-14.4-16.97-23.14-37.03-32.4-57.09c-7.71-16.97-15.43-34.46-23.14-51.94c-4.63-10.29-8.23-21.09-10.29-31.89
		c-3.09-14.91-12.86-24.69-24.69-33.43c-5.14-3.6-9.77-7.2-14.91-10.29c-34.46-18.51-58.63-47.83-81.26-78.69
		c-4.63-6.17-7.2-13.37-9.77-20.57c0-5.14,0-10.29,0-15.94c3.6-1.03,7.2-2.06,11.31-3.09c18-4.11,35.49-1.54,52.46,6.17
		c7.2,3.09,14.91,5.66,22.63,2.06c9.26-4.63,15.94-11.83,21.09-20.57c3.6-6.17,2.06-11.83-3.09-15.94
		c-4.63-3.6-9.77-6.17-14.91-8.74c-12.34-5.66-20.06-15.43-23.14-28.8c-1.54-8.74-4.11-17.49-6.69-25.71
		c-6.69-24.17-14.91-48.34-17.49-73.54c-1.03-8.74,0.51-16.46,8.23-21.6c14.4-9.77,28.29-20.06,43.71-28.29
		c31.89-17.49,62.23-37.03,96.17-49.89c5.66-2.06,11.31-5.14,16.97-8.23c19.03-10.8,37.03-23.14,57.6-30.34
		c0.51,0,1.03-0.51,1.54-0.51c19.03-9.26,16.97-41.66,3.09-49.89c-14.4-9.26-27.26-20.57-39.6-32.4
		c-27.26-24.69-51.94-51.43-65.83-86.4c-12.86-32.4-23.14-66.34-21.6-102.34c0.51-9.77-1.03-18.51-8.74-25.2
		c-11.31-9.77-18-23.14-25.2-35.49c-11.31-20.06-12.34-40.63-1.03-61.2c2.06-3.6,3.6-7.71,5.66-11.31
		c5.66-12.34,3.09-23.66-5.66-33.43c-2.57-3.09-5.66-5.66-8.74-8.23c-9.26-6.69-14.4-16.46-17.49-27.26
		c-5.66-19.03-9.77-38.06-12.34-57.6c-3.6-29.83-4.11-59.66,12.34-86.92c5.66-9.26,11.31-16.97,22.11-19.54
		c6.69-1.54,12.86-5.14,16.97-10.8c7.2-11.31,15.94-21.6,21.6-33.94c12.34-26.23,33.43-43.2,57.6-57.09
		C4852.48,807.09,4853.51,807.09,4854.54,807.09z M5301.98,1984.31c7.2,0.51,8.74-1.54,6.69-9.77c-4.11-15.43-7.2-31.37-12.34-46.29
		c-5.14-14.91-3.6-31.37-11.83-45.26c-3.6-5.66-5.66-7.2-11.31-3.09c-2.06,1.54-3.6,3.09-6.69,3.09c-4.63,0-10.29-4.11-14.4,0
		c-3.6,3.6-1.54,9.77-3.09,14.4c-1.03,3.09-2.06,6.17-4.63,7.71c-2.06,1.54-4.63,3.6-7.71,2.06c-6.69-2.57-12.86-5.66-16.97-11.83
		c-4.11-6.69-7.2-6.69-12.86-1.03c-2.06,2.06-3.6,4.63-5.14,6.69c-8.74,9.77-20.06,9.26-27.26-1.54c-3.09-4.63-5.14-9.77-7.2-14.91
		c-6.17-17.49-7.2-36-10.29-54c-0.51-3.09,1.54-7.71-2.57-9.26c-4.63-1.54-8.74,1.54-11.83,4.63c-1.03,1.03-2.06,2.57-3.09,3.6
		c-4.11,5.14-9.77,8.23-16.46,6.69c-6.69-1.54-9.77-6.69-10.8-12.86c-2.57-9.77-1.03-19.54,2.06-29.31c0.51-2.06,3.09-5.14,0.51-7.2
		c-2.06-1.54-5.14,0-7.71,0.51c-5.14,2.06-9.77,3.6-14.91,5.14c-25.2,8.23-50.92,14.91-75.6,24.69
		c-27.26,11.31-54.52,23.66-73.54,48.34c-4.11,5.14-9.26,11.31-15.43,13.37c-14.91,4.63-23.66,16.97-34.46,26.23
		c-9.77,8.74-10.8,14.4-5.66,26.74c1.03,3.09,2.06,6.17,2.57,9.26c2.06,7.71,2.57,15.94,6.69,22.63
		c13.89,22.11,19.54,48.34,33.43,70.97c12.86,21.6,21.09,45.26,38.06,64.8c10.8,12.34,11.31,13.37,22.63,1.03
		c2.06-2.57,4.11-5.14,6.69-7.71c11.83-11.31,22.63-24.17,36-32.91c30.34-19.54,60.69-39.6,94.63-53.49
		c33.43-13.89,68.4-23.14,104.92-24.69C5255.18,1981.74,5278.32,1982.77,5301.98,1984.31z M5043.8,1655.16
		c-28.8,0.51-57.6-0.51-86.4,3.09c-9.26,1.03-18,3.6-22.11,13.89c-1.03,3.09-4.63,5.14-6.69,7.2
		c-11.83,10.29-23.14,21.09-32.92,32.91c-3.09,3.6-6.17,8.74-10.8,10.29c-7.71,2.57-11.31,8.74-15.43,14.4
		c-7.2,10.29-18,18-23.14,30.34c-0.51,1.03-1.54,1.03-2.57,2.06c-4.63,4.11-9.26,7.71-12.86,12.34
		c-22.11,26.23-47.31,49.37-70.46,74.06c-7.71,8.23-8.23,10.8,1.03,19.03c8.23,7.2,16.97,13.89,25.71,20.57
		c4.11,3.6,6.17,9.26,11.31,11.83c6.69,3.09,10.8,8.23,14.91,13.89c3.6,5.14,7.2,10.29,11.83,14.91c2.57,2.57,6.17,4.63,9.77,2.06
		c4.11-2.57,9.26-5.14,11.83-8.74c9.26-14.91,27.77-20.57,34.46-37.03c0.51-0.51,1.03-1.03,2.06-1.54
		c11.31-5.66,20.57-13.89,29.83-22.11c14.4-11.83,29.31-23.14,44.23-34.97c33.43-27.26,72.52-42.69,112.63-55.54
		c16.46-5.14,33.43-9.26,50.4-12.34c11.83-2.06,19.54-6.69,21.6-19.03c3.09-16.46,10.29-32.91,0-49.89
		c-5.14-8.74-6.17-19.54-9.26-29.31c-3.6-10.29-5.66-11.83-16.46-11.83C5092.15,1655.16,5067.98,1655.16,5043.8,1655.16z
		 M5004.72,984.01c1.03-22.11-3.6-49.89-10.29-77.14c-5.66-21.09-12.34-41.14-24.17-59.66c-8.74-13.89-18.51-17.49-32.4-6.17
		c-20.06,16.46-41.14,16.46-63.26,2.57c-4.63-3.09-9.26-6.69-13.89-10.29c-5.66-5.14-11.31-5.66-18-1.03
		c-13.37,9.77-26.23,19.54-33.43,34.46c-4.11,8.23-8.74,15.43-13.37,23.14c-23.14,37.54-31.37,79.72-32.4,122.4
		c-1.03,34.97,2.06,69.43,15.43,103.37c7.71,19.54,17.49,37.54,28.8,55.54c6.69,10.29,16.97,9.26,23.14-1.03
		c1.54-2.57,2.06-5.66,4.63-7.2c8.74-3.6,14.4-10.8,22.11-16.46c8.23-5.66,15.94-11.83,25.71-14.91
		c10.29-3.09,17.49,0.51,20.57,10.8c2.06,7.71,1.03,14.91-3.09,22.11c-2.57,4.11-3.09,8.74-3.6,13.37c0,4.11,2.06,5.14,5.66,4.11
		c9.26-2.06,17.49-5.14,24.69-11.31c6.17-5.66,12.34-11.31,17.49-18c3.09-4.11,9.26-3.09,11.83-9.26
		c5.66-15.94,15.43-30.34,26.74-43.2c6.69-8.23,11.31-18,13.37-27.77C5003.17,1044.69,5004.72,1017.44,5004.72,984.01z
		 M5061.29,1539.96c0,5.66-0.51,15.43,0,24.69c0.51,9.77,5.14,16.46,11.83,17.49c10.8,2.06,21.6,3.6,32.92,4.63
		c9.77,1.03,11.83-1.03,11.83-10.8c0-17.49,2.06-34.97,3.6-52.46c0.51-6.69,2.06-13.37,3.09-20.06c0.51-2.57,2.06-4.63,4.63-4.11
		c3.09,0.51,1.54,3.09,1.54,5.14c-1.03,8.23-2.06,16.46-2.06,24.17c1.03,47.83,4.63,95.14,18.51,141.43
		c5.66,18.51,6.17,37.54,9.26,56.57c1.03,5.14,3.09,6.17,7.71,7.71c9.77,2.57,18.51-3.09,27.77-2.06
		c11.83,1.03,23.66,1.54,35.49,1.54c8.74,0,11.83-2.06,11.83-10.8c0-18.51,2.57-37.03,4.63-55.54c5.14-41.66,7.71-83.32,8.74-124.97
		c0.51-26.23,3.6-51.94-2.06-78.17c-7.2-30.86-23.14-54.52-46.29-74.57c-3.09-2.57-6.69-5.66-10.29-2.06
		c-10.8,12.34-26.74,17.49-39.09,27.26c-5.66,4.63-12.34,7.2-20.06,8.74c-12.34,2.06-24.69,2.57-37.03,2.57
		c-5.66,0-9.77,2.06-11.83,7.2c-5.14,11.31-10.29,22.63-14.91,34.46C5063.86,1490.07,5058.72,1512.7,5061.29,1539.96z
		 M5316.89,2060.43c0-4.11-0.51-7.2,0-10.29c1.54-15.94-3.6-26.74-20.06-31.37c-7.2-2.06-13.37-7.2-21.6-6.17
		c-9.77,1.03-19.54,1.03-29.31,0.51c-14.4-0.51-28.8,1.03-43.2,2.57c-20.57,2.57-40.12,10.29-59.66,16.46
		c-34.46,10.8-67.89,23.66-97.2,46.29c-11.83,9.26-21.09,21.09-32.4,30.86c-6.69,5.14-8.74,15.43-14.4,22.11s-4.11,11.31,1.54,16.46
		c13.37,12.86,25.71,26.23,39.6,38.57c6.69,5.66,10.29,14.4,18.51,18c10.29,4.63,18.51,11.83,27.26,18.51
		c5.66,4.63,11.83,8.74,18,12.34c11.31,5.66,11.83,5.66,17.49-5.14c0.51-1.03,1.03-2.06,1.54-2.57
		c14.91-24.17,36.52-41.14,61.72-52.97c33.94-15.94,69.43-25.71,106.97-13.37c4.63,1.54,5.66-1.03,6.69-4.11
		c3.6-12.86,11.31-25.2,8.23-39.6c-1.03-4.63,0.51-9.26,2.57-13.89C5315.87,2089.23,5318.44,2074.32,5316.89,2060.43z
		 M5221.24,1237.56c-1.54-18.51,1.03-41.14-12.86-60.17c-4.11-5.66-7.2-11.83-14.91-12.86c-2.57-0.51-3.6-2.57-4.63-4.63
		c-4.11-11.31-12.86-19.03-20.06-27.77c-5.66-6.17-12.34-8.23-20.57-4.63c-11.31,5.14-22.63,3.09-31.37-3.09
		c-10.8-7.71-20.06-6.17-30.86-0.51c-4.11,2.06-7.71,4.11-11.83,6.17c-9.77,4.63-20.06,6.69-30.34,3.09
		c-4.11-1.03-8.23-2.57-12.34-2.57c-8.23,0-14.91,2.57-19.03,10.29c-3.6,7.2,1.54,11.83,5.66,15.43c9.77,8.74-0.51,20.06,4.63,28.8
		c0,0.51-1.03,1.54-2.06,2.57c-5.14,3.6-6.17,9.26-6.69,15.43c-0.51,8.74-1.03,16.97,1.03,25.71c1.03,5.14,1.03,11.31-5.14,13.37
		c-6.17,1.54-8.23-3.09-9.77-7.71c0-0.51-0.51-1.03-0.51-1.54c-1.54-3.09-4.11-4.63-7.71-4.63c-4.63,0-3.6,4.11-4.11,6.17
		c-1.03,5.14-2.57,10.29-5.14,14.4c-9.26,14.4-5.66,26.23,9.77,32.4c5.66,2.06,8.74,6.17,11.31,11.31
		c7.2,13.37,12.34,27.26,25.2,37.03c7.2,5.66,16.46,9.77,22.63,16.97c3.09,3.6,6.69,8.23,3.6,11.83s-8.23,0-12.34-1.03l-0.51-0.51
		c-1.54-2.06-4.11-5.14-6.17-3.09c-2.57,2.57,0,5.66,1.54,8.23c1.03,1.54,2.06,3.09,3.6,4.11c7.71,5.14,15.43,10.8,23.66,15.43
		c5.66,3.09,12.34,5.14,18,1.03c7.2-5.14,14.4-4.11,21.6-3.09c19.03,1.54,36-4.63,51.43-15.94c19.54-14.4,31.37-35.49,48.86-51.94
		c1.03-1.03,2.06-2.57,2.57-4.11C5215.58,1286.41,5222.78,1264.81,5221.24,1237.56z M4925.52,1473.62
		c-1.54-11.31-2.06-23.14,1.54-34.46c1.03-2.57,0.51-6.17,4.63-6.17c4.11,0.51,7.2,2.57,7.71,6.69c0.51,2.57,0.51,4.63,0.51,7.2
		c0.51,21.6,1.03,42.69,5.66,64.29c5.14,24.17,7.2,49.37,14.91,73.03c1.03,3.6,1.03,8.74,7.2,8.74c6.17,0,9.77-2.06,11.83-8.23
		c2.06-5.66,1.54-10.8,1.03-16.46c-3.6-37.03,1.54-73.03,9.26-109.55c3.6-15.94,9.26-30.34,15.43-45.26
		c2.06-5.14,4.63-11.31,0-16.46c-11.31-12.86-18-27.26-20.57-44.23c-1.03-7.71-6.17-10.29-13.37-10.29
		c-8.74,0-16.97-1.54-24.69-6.17c-2.06-1.03-4.11-2.57-6.69-2.57c-7.2-0.51-11.83-5.14-16.46-9.26
		c-21.09-20.06-33.43-45.77-47.32-70.97c-1.54-3.09-2.06-6.17-7.2-5.14c-15.94,2.57-31.37,7.71-47.32,11.31
		c-6.17,1.54-9.26,4.63-9.26,11.31c0.51,32.4,6.17,64.29,16.97,94.63c8.23,23.66,22.11,44.74,39.09,63.26
		c11.31,12.86,23.14,25.2,37.54,34.46C4912.66,1467.96,4916.26,1475.16,4925.52,1473.62z M4949.17,1606.82
		c0.51-11.31-2.06-22.63-4.11-33.43c-3.09-15.94-8.74-18.51-23.66-11.83c-1.03,0.51-2.57,1.03-3.6,2.06
		c-34.97,21.6-72.52,37.03-109.03,56.06c-7.2,3.6-13.37,8.23-20.57,11.31c-22.63,10.29-44.23,21.09-64.8,35.49
		c-5.14,3.6-9.26,7.2-12.86,12.34c-2.06,2.57-3.6,5.66-2.57,8.74c5.14,10.8,4.63,23.14,6.69,34.46c2.57,13.37,7.2,26.23,8.74,39.6
		c3.09,23.14,20.06,36,36.52,48.86c1.54,1.03,4.63,1.54,6.69,1.03c2.57,0,6.17,1.03,7.2-2.57c0.51-3.09-1.03-5.66-3.6-7.71
		c-7.71-5.66-14.4-12.86-22.63-18.51c-7.2-4.63-5.14-13.37,2.57-17.49c4.11-2.06,8.23-4.63,12.34-6.69
		c17.49-10.29,33.43-22.63,51.43-31.89c11.83-5.66,21.6-14.91,33.94-19.54c2.06-1.03,3.6-2.57,5.66-4.63
		c7.2-7.2,16.46-13.37,25.2-18.51c18-10.29,34.46-23.14,52.46-32.91c3.09-1.54,5.14-4.11,7.2-6.69
		C4948.66,1633.05,4949.17,1620.19,4949.17,1606.82z M4991.86,1642.82c14.4,1.03,30.34-1.54,46.8-1.54
		c24.69-0.51,49.37-2.06,74.06-3.09c5.14,0,7.2-2.06,7.71-7.2c1.54-14.4-4.11-22.63-18.51-26.23c-13.89-3.09-27.77-5.14-41.14-9.26
		c-8.23-2.57-11.31-6.17-11.31-13.89c0-33.43-4.63-67.37,4.63-100.8c3.09-11.31,6.17-22.11,10.29-32.91
		c3.09-7.2,7.71-13.37,10.29-20.57c4.11-12.34,13.37-15.43,24.69-16.46c4.63-0.51,8.74,0,13.37,0c17.49,0,33.43-6.17,48.34-14.4
		c6.17-3.6,13.37-6.17,18-12.34c2.57-3.6,4.11-7.2,2.06-10.8s-6.69-2.57-9.26-1.03c-11.83,6.69-26.23,7.2-37.03,15.43
		c-4.11,3.09-7.2,7.2-11.83,9.26c-24.17,11.31-47.83,8.74-70.97-3.09c-1.54-1.03-2.57-2.57-3.6-4.11c-1.54-2.57-3.6-4.63-6.17-6.17
		c-7.71-3.6-12.86-9.77-17.49-16.46c-4.11-5.66-6.69-12.34-8.74-19.03c-1.03-3.6-3.09-7.2-7.71-6.69c-4.11,0.51-6.69,3.09-7.2,7.2
		c-0.51,2.06-0.51,4.11-0.51,6.17c2.06,12.86,7.2,24.69,16.97,32.92c8.23,6.69,8.74,12.86,6.17,21.09
		c-6.17,20.06-13.37,39.6-18.51,59.66c-6.69,25.71-11.31,50.92-8.74,77.66c1.03,14.4,1.54,28.8,2.06,43.2
		c0.51,7.2-2.57,10.8-9.77,11.83c-4.63,0.51-9.26,1.54-13.89,3.09c-3.09,1.03-6.17,2.06-7.2,5.66c-3.09,8.74-5.66,18-7.2,27.26
		c-0.51,4.11,1.54,5.14,5.14,5.66C4973.86,1643.85,4982.09,1642.82,4991.86,1642.82z M5200.15,1744.14
		c-10.8,0-24.17,2.06-37.54,5.14c-5.66,1.54-9.26,4.11-12.34,9.26c-6.69,10.8-13.37,21.09-20.06,31.89
		c-5.14,8.23-7.71,18-7.71,27.77c0,4.11,1.03,5.14,5.14,4.63c8.74-0.51,12.86-5.66,16.46-12.86c3.09-6.17,9.77-7.71,12.86-4.11
		c8.23,9.77,12.86,21.09,14.91,33.94c2.06,15.43,2.57,30.86,8.74,45.26c1.54,4.11,3.09,8.23,8.74,7.71c5.14-0.51,7.71-3.6,9.26-9.26
		c2.57-12.86,4.11-25.2,3.09-38.06c-0.51-4.11,0.51-7.71,5.14-8.23c4.63-0.51,6.69,2.57,7.2,6.69c0.51,3.09,0.51,5.66,0.51,8.74
		c-0.51,14.91,6.69,26.74,14.91,37.54c2.06,3.09,5.14,3.6,8.23,2.57c3.09-1.03,3.6-3.09,4.11-6.17c0-3.09,0.51-6.17,0-9.26
		c-2.06-12.86-2.57-26.23-3.6-39.09c0-3.6,0-6.69,4.63-6.69c4.11-0.51,5.66,2.57,6.17,5.66c0.51,1.54,0.51,3.6,0.51,5.66
		c-0.51,8.23,2.06,15.43,5.66,22.63c2.06,4.63,5.66,5.66,8.74,4.11c3.6-1.54,2.06-5.66,0.51-8.23c-4.11-7.2-5.14-14.91-6.17-22.63
		c-4.11-27.26-16.46-52.46-18.51-80.23c-0.51-5.66-4.63-8.74-10.29-10.8C5220.21,1745.17,5211.46,1744.65,5200.15,1744.14z
		 M4972.83,1172.75c0,5.14,0,10.29,0,14.91c0,2.57-1.54,6.69,3.6,7.71c4.63,1.03,7.2-1.03,8.23-5.14
		c2.06-7.71,6.69-14.4,12.86-19.03c6.17-4.11,6.17-8.23,3.09-14.4c-6.17-10.8-3.09-21.09,3.6-30.34c7.2-9.77,19.03-10.8,30.86-7.2
		c14.91,4.63,31.37,8.23,44.23-5.66c5.66-6.17,12.86-7.2,19.54-11.31c2.57-2.06,6.69-1.03,9.77,0.51c3.6,2.06,7.71,4.63,11.31,7.2
		c9.77,6.69,19.54,9.26,30.86,4.11c7.2-3.6,13.89-1.03,19.54,4.11c3.6,3.09,6.17,7.2,8.74,10.8c6.69,8.74,12.86,17.49,23.14,23.66
		c6.17,3.6,11.31,3.09,16.97-0.51c11.83-8.23,15.43-20.06,14.4-33.43c0-2.57,1.54-6.17-2.57-7.2c-3.6-0.51-7.2-1.03-9.26,2.57
		c-2.57,4.11-6.17,4.63-10.8,5.14c-9.77,1.03-16.46-2.06-22.63-10.29c-10.8-14.4-23.66-25.71-44.23-23.14
		c-6.17,1.03-12.34-2.06-15.94-7.2s-7.2-9.26-10.8-14.4c-8.74-12.86-14.4-14.4-28.29-6.69c-7.2,4.11-14.4,6.17-22.63,6.69
		c-10.8,0.51-20.06,4.11-29.31,9.77c-14.91,8.74-27.26,20.06-39.09,32.4c-10.8,11.31-21.09,22.63-23.14,39.09
		C4973.34,1154.75,4972.32,1164.01,4972.83,1172.75z M5265.46,2187.97c-29.83,0-58.63,6.17-86.4,17.49
		c-4.63,1.54-8.74,3.09-11.83,7.2c-5.14,7.2-11.31,13.89-17.49,20.57c-13.37,15.43-18,33.94-18,54c0,5.66,3.09,7.2,8.74,8.74
		c16.46,4.11,30.86-2.06,45.77-5.66c9.26-2.57,18.51-5.14,26.74-10.8c13.89-9.77,24.69-23.14,37.03-34.97
		c13.37-12.86,24.17-27.26,32.4-44.23c4.11-8.23,1.54-11.83-7.71-11.83C5271.64,2187.46,5268.55,2187.97,5265.46,2187.97z
		 M4955.34,1180.98c0-1.03,0-1.54,0-2.57c-0.51-3.6,2.06-8.74-2.57-10.29c-4.11-1.54-5.66,3.6-7.71,6.69
		c-9.26,12.34-22.11,20.06-37.03,22.63c-8.23,1.03-10.29,4.63-10.29,11.31c0,8.23-1.03,16.46-3.09,24.69
		c-2.57,9.77,2.06,19.03,4.63,28.29c2.06,7.71,7.71,14.91,11.83,22.11c5.14,10.29,14.4,16.97,21.6,25.71
		c4.63,5.66,13.37,8.23,22.11,9.77c13.37,3.09,27.26,4.11,40.63,7.71c2.57,0.51,6.17,1.54,7.71-1.54c1.54-2.57,0.51-5.66-1.03-8.23
		c-3.09-4.11-6.69-7.2-8.23-12.34c-2.57-6.69-6.69-10.8-13.89-12.34c-10.29-2.06-14.4-9.77-15.43-19.54
		c-1.03-9.77,0.51-19.54,2.06-28.8c2.06-12.34,2.57-25.2-4.11-36.52C4956.89,1199.5,4955.34,1190.75,4955.34,1180.98z
		 M5251.58,1746.19c3.6,20.06,8.74,41.14,14.4,62.23c2.06,7.2,2.06,15.43,6.17,21.6c5.14,7.2,7.2,14.91,8.23,23.14
		c0.51,3.09,1.03,5.66,4.11,7.2c4.63,2.57,6.69,7.2,9.26,11.31c4.11,7.2,8.23,14.4,12.86,21.09c5.14,7.2,10.29,7.2,15.94,0.51
		c11.31-13.89,22.63-27.26,30.86-43.2c6.17-11.83,5.14-15.43-4.11-25.2c-18-19.03-38.57-36-55.03-57.6
		c-4.63-5.66-9.26-11.83-15.94-14.91c-5.14-2.57-9.77-5.14-11.83-11.31c-1.54-4.63-6.69-5.14-10.8-4.63
		C5250.55,1736.94,5251.58,1741.05,5251.58,1746.19z M4767.63,1179.95c0,23.14,4.63,37.03,18.51,51.43
		c9.77,10.29,22.63,17.49,37.54,17.49c16.97,0,31.37-7.2,45.26-15.94c16.46-10.29,19.54-18.51,13.37-37.03
		c-3.6-10.29-3.09-20.06,2.57-29.31c3.09-5.14,5.66-10.8,6.17-16.97c0.51-3.09-0.51-6.69-3.6-8.23c-3.09-1.54-6.69-1.54-8.74,1.03
		c-10.8,11.83-24.69,22.11-19.54,41.66c1.54,5.14,0,8.23-6.17,7.2c-13.37-1.54-27.26-2.06-40.63-3.6
		c-4.63-0.51-8.74-2.06-11.83-5.66c-6.17-7.71-13.37-13.89-16.46-23.66c-1.03-4.11-4.11-6.69-8.74-6.17
		c-5.14,0.51-5.14,4.63-5.66,8.23C4768.65,1167.61,4768.14,1175.33,4767.63,1179.95z M4833.46,1968.88c-0.51,0-1.03,0.51-1.54,0.51
		c-10.8,3.6-18.51,18.51-14.91,29.31c8.74,24.17,16.97,48.86,27.26,73.03c6.69,14.91,11.83,30.86,20.57,44.23
		c13.89,21.09,29.83,41.14,45.26,61.72c3.09,4.11,6.17,7.71,9.77,11.31c2.57,2.57,6.17,4.11,8.23-0.51
		c3.09-6.17,5.66-12.86,8.23-19.54c1.03-2.06,0-4.11-1.54-5.66c-11.31-10.29-16.97-25.2-25.71-37.54
		c-14.4-21.09-25.71-43.72-38.57-65.83c-3.09-5.14-7.2-10.29-8.23-15.94c-2.57-11.31-12.34-20.06-12.86-31.89
		c0-0.51-0.51-1.54-1.03-2.06c-6.17-11.31-10.29-23.66-11.83-36.52C4835.51,1971.46,4836.54,1968.88,4833.46,1968.88z M4961,2198.77
		c-8.23,0-10.29,2.57-7.2,9.77c9.77,20.06,25.2,33.94,44.23,44.23c11.83,6.69,25.2,10.8,36.52,17.49
		c18.51,11.31,38.57,18.51,60.17,21.6c10.8,1.54,14.91-3.6,12.34-14.4c-1.03-5.14-3.6-8.23-9.26-7.2c-3.6,0.51-6.17-1.54-8.74-3.6
		c-4.63-3.6-10.29-5.66-15.94-6.17c-6.17-0.51-12.86-2.06-18-5.14c-26.23-14.91-53.49-28.29-76.63-47.83
		C4973.86,2202.89,4968.2,2198.77,4961,2198.77z M4757.34,927.43c-3.6,0.51-7.2,1.03-9.77,4.11
		c-19.54,24.69-21.09,51.43-11.31,80.23c1.54,4.11,3.6,7.2,8.23,6.69c5.14-0.51,6.17-4.11,6.69-8.23c0.51-7.2,0-14.91,2.06-21.6
		c4.63-18.51,3.09-37.54,8.23-56.06C4762.48,928.98,4761.45,926.92,4757.34,927.43z M4818.03,1761.62
		c-0.51,4.63,2.06,5.14,5.14,4.11c2.57-0.51,4.11-2.06,5.66-4.11c9.77-12.86,21.6-23.66,33.94-33.43c3.6-2.57,6.17-6.17,7.71-10.8
		c1.54-6.17,0-8.23-6.17-6.69c-5.14,1.03-9.77,3.6-13.37,7.71c-4.11,5.14-9.77,9.77-14.4,14.4
		C4828.31,1740.54,4820.6,1749.79,4818.03,1761.62z M4787.17,1772.42c2.06-7.2-3.09-7.71-8.74-7.2c-5.14,0.51-8.74,3.6-11.31,6.69
		c-3.09,3.09-3.09,7.71-1.03,11.83s5.66,5.14,9.77,5.14C4783.57,1788.88,4787.17,1783.74,4787.17,1772.42z"/>
	<path id="XMLID_78_" d="M4950.72,1004.58c-1.03,17.49-2.06,36.52-10.29,54c-4.63,10.29-10.29,20.06-18.51,28.29
		c-6.17,6.69-11.31,13.37-20.06,18c-21.6,11.31-40.12,8.74-57.6-8.23c-14.4-14.4-20.06-32.4-22.63-51.43
		c-3.09-20.57-1.03-41.14,0.51-61.2c1.54-25.2,33.43-63.77,57.09-70.46c10.8-3.09,21.09-1.03,30.34,5.66
		C4941.46,939.78,4949.69,964.46,4950.72,1004.58z"/>
	<path id="XMLID_75_" d="M5196.55,1285.38c0.51,4.11-1.03,8.74-3.6,12.86c-2.06,3.09-4.63,5.14-8.23,4.11
		c-6.69-2.06-12.34,0-18.51,2.06c-6.69,2.06-13.37,3.6-20.57,5.14c-4.11,1.03-5.66,2.06-5.14,6.69c1.03,7.71-2.57,12.86-8.74,13.37
		c-7.71,0.51-13.37-4.63-12.86-12.86c0-4.63-1.54-6.69-6.17-8.74c-9.77-4.63-19.03-10.8-28.29-16.46c-5.66-3.6-10.8-7.2-15.43,1.54
		c-2.06,4.11-6.69,2.57-9.77,2.06c-3.6-0.51-3.09-3.6-3.09-6.17c-2.06-23.66,0.51-27.77,22.11-38.06
		c6.17-3.09,10.29-0.51,13.37,4.11c3.6,5.66,8.74,7.71,14.4,9.77c16.46,5.66,32.92,11.83,50.92,11.83c6.17,0,12.34-0.51,18-4.11
		C5190.89,1263.78,5196.55,1267.38,5196.55,1285.38z M5149.23,1294.13c5.66,0,10.8,0,16.46,0c2.06,0,4.63,0,4.63-3.09
		c0-2.06-0.51-4.11-3.09-5.14c-2.06-0.51-4.63-1.03-6.69-1.54c-10.8-0.51-21.6-1.03-32.4-1.54c-13.37-1.03-26.74-2.06-38.06-10.8
		c-2.06-1.54-4.11-4.11-6.69-2.06c-2.57,1.54-2.06,4.11-2.06,6.17c0,3.09,2.57,4.63,5.14,5.14c5.14,1.03,9.77,2.57,13.89,5.14
		C5115.8,1293.61,5132.26,1296.18,5149.23,1294.13z"/>
	<path id="XMLID_74_" d="M5161.06,1234.47c-1.03,3.6-0.51,6.17-1.54,7.2c-6.69,7.2-13.37,14.91-23.66,17.49
		c-5.14,1.03-7.71-2.57-5.66-7.71c2.06-5.14,5.66-9.26,9.26-13.37c3.09-3.09,3.09-6.17,1.54-9.77c-3.09-7.71-7.2-14.91-11.31-22.63
		c-2.06-3.6-3.6-6.69-4.11-10.8c-0.51-3.09-0.51-6.69,3.09-8.23c3.09-1.54,7.2-1.54,9.26,1.54
		C5150.26,1201.55,5154.89,1219.04,5161.06,1234.47z"/>
	<path id="XMLID_73_" d="M5094.2,1152.18c-0.51,4.63-1.54,9.77-9.26,8.74c-3.09-0.51-4.63,1.54-6.69,3.6
		c-3.09,4.11-8.23,5.66-12.86,6.17c-6.69,1.03-7.2-2.57-5.66-7.71c2.57-8.74,16.97-20.06,26.23-21.09
		C5092.15,1142.41,5094.72,1144.47,5094.2,1152.18z"/>
	<path id="XMLID_72_" d="M5094.72,1207.21c0,1.54,0,3.09-0.51,4.11c-0.51,4.63-3.09,9.26-7.2,9.77c-5.14,1.03-6.69-4.11-8.23-8.23
		c-1.54-4.63-2.57-9.26,0-13.89c1.54-3.6,3.6-6.17,8.23-6.17c4.63,0,6.17,3.6,7.2,7.2
		C5094.2,1202.58,5094.2,1205.15,5094.72,1207.21z"/>
	<path id="XMLID_71_" d="M5175.46,1199.5c2.57-0.51,4.63,0.51,5.66,3.6c2.06,5.66-0.51,15.94-5.66,19.03
		c-4.11,3.09-8.74,1.03-10.29-4.11C5163.12,1207.73,5167.23,1199.5,5175.46,1199.5z"/>
</g>
</svg>
