<?xml version="1.0" encoding="utf-8"?>
<!-- Generator: Adobe Illustrator 25.2.3, SVG Export Plug-In . SVG Version: 6.00 Build 0)  -->
<svg version="1.1" id="Layer_1" xmlns="http://www.w3.org/2000/svg" xmlns:xlink="http://www.w3.org/1999/xlink" x="0px" y="0px"
	 width="612px" height="792px" viewBox="0 0 612 792" style="enable-background:new 0 0 612 792;" xml:space="preserve">
<style type="text/css">
	.st0{fill:#25449C;}
	.st1{fill:none;stroke:#25449C;stroke-miterlimit:10;}
	.st2{fill:none;stroke:#25449C;stroke-width:2;stroke-miterlimit:10;}
</style>
<g>
	<circle class="st0" cx="307.16" cy="286.98" r="4.8"/>
	<path class="st1" d="M333.89,328.77l-2.45-23.64l-14.12,13.35l-10.16-26.7l-10.16,26.7l-14.12-13.35l-2.45,23.64l-13.55-8.7
		l2.45,30.07c0,0,20.33-5.93,37.84-5.93c17.51,0,37.84,5.93,37.84,5.93l2.45-30.07L333.89,328.77z"/>
</g>
<g>
	<path class="st2" d="M303.62,372.15c-0.58,0.02-2.53,1.36-3.3,2.33c0,0-12.63-3.11-24.49,7.19s-10.11,22.74-6.8,18.85
		c0,0-2.72,0.78-0.58,11.27s6.22,11.27,6.22,11.27s0.19,7.97,2.14,8.75c1.94,0.78,3.5-1.94,3.5-6.61c0-4.66,4.74-5.05,4.8-0.78
		c0.06,4.28-0.33,11.47,1.22,13.41c1.55,1.94,3.89,3.5,4.08,0c0.19-3.5-0.19-6.61,2.72-5.25c2.92,1.36,1.94,2.72,2.14,5.83
		c0.19,3.11,0.97,7.77,1.36,9.13c0.39,1.36,0.19,5.83,1.55,6.41c1.36,0.58,5.25-0.97,5.44-5.05c0.19-4.08,1.17-5.83,2.33-7.77
		c1.17-1.94,3.3-1.75,4.47,1.75s2.33,6.02,3.89,5.05c1.55-0.97,1.55-7.77,2.33-14.58s3.11,1.75,3.11,3.89s1.55,3.11,2.92,0.78
		c1.36-2.33-0.97-6.61,0-8.55c0.97-1.94,2.53-2.53,3.3,0.58c0.78,3.11,2.33,4.08,2.92,2.72c0.58-1.36,0.39-4.66,0-5.64
		c-0.39-0.97-1.4-1.36,0.37-1.94c1.77-0.58,2.35,0,2.74-3.69c0.39-3.69-0.39-5.25,1.94-5.44c2.33-0.19,2.33,3.89,4.28,4.66
		s3.3,0.78,4.47-1.17c1.17-1.94,4.28-13.41,2.53-24.29s-4.08-14.58-11.08-19.05c-7-4.47-20.02-5.25-20.6-1.94
		C313.54,374.29,310.81,371.95,303.62,372.15z"/>
	<path class="st0" d="M296.04,366.12c-0.61-0.1,0.97-3.69,4.47-3.5c3.5,0.19,3.18,2.98,5.64,6.41c2.47,3.43,3.88,2.1,3.88,6.41
		c0,1.55,0.58,2.53-0.97,2.72c-1.55,0.19-3.3,1.55-3.69,0.19c-0.39-1.36,0.19-1.94-0.78-4.08S302.85,367.29,296.04,366.12z"/>
	<path class="st0" d="M289.15,390.8c3.79-0.09,6.8,3.3,5.73,6.41s-2.14,3.21-2.04,5.54s0.1,4.47-3.01,7.97
		c-3.11,3.5-6.41,7.09-8.36,7c-1.94-0.1-2.14-0.1-2.92-2.04s-2.23-0.97-2.82-1.46c-0.58-0.49-1.94-8.94,0.87-13.6
		S284.87,390.9,289.15,390.8z"/>
	<path class="st0" d="M309.16,390.8c1.65-0.83,5.34-0.19,7.38,0.58c2.04,0.78,5.34,6.51,7,8.16c1.65,1.65,1.85,1.94,2.14,3.98
		c0.29,2.04,0.87,5.83,0.78,7.09c-0.1,1.26,0.97,3.69-0.49,4.08c-1.46,0.39-2.82-0.1-3.79,0.78s-4.66,1.65-6.02,0
		c-1.36-1.65-2.99-1.75-6.01-2.72C307.12,411.79,299.35,395.76,309.16,390.8z"/>
	<path class="st0" d="M298.28,404.26c1.26,0.15,2.43,1.8,2.23,8.02c-0.19,6.22,1.55,5.44,1.75,6.32s1.83,4.37,0.77,6.9
		c-1.06,2.53-1.74,3.4-2.71,2.92c-0.97-0.49-0.97-1.75-2.04-3.98c-1.07-2.23-0.39-2.92-0.97-2.72c-0.58,0.19-1.02,2.43-2.21,3.01
		c-1.19,0.58-2.06,1.26-3.04-0.49c-0.97-1.75-2.04-6.32,0.68-9.13c2.72-2.82,1.5-6.22,2.36-8.16S296.24,404.02,298.28,404.26z"/>
	<path class="st0" d="M302.94,450.42c-0.47-0.01,0.65-0.74,0.68-1.51c0.19-4.08,1.17-5.83,2.33-7.77c1.17-1.94,3.3-1.75,4.47,1.75
		s2.33,6.02,3.89,5.05c1.55-0.97,1.55-7.77,2.33-14.58s3.11,1.75,3.11,3.89s1.55,3.11,2.92,0.78c1.36-2.33-0.97-6.61,0-8.55
		c0.97-1.94,2.53-2.53,3.3,0.58c0.78,3.11,2.33,4.08,2.92,2.72c0.58-1.36,0.39-4.66,0-5.64c-0.39-0.97-1.4-1.36,0.37-1.94
		c1.77-0.58,2.35,0,2.74-3.69c0.39-3.69-0.39-5.25,1.94-5.44c2.33-0.19,2.33,3.89,4.28,4.66c0.68,0.27,1.3,0.45,1.85,0.48
		c0,0-2.34,5.99-3.31,7.32s-7.29,8.81-8.65,10.85c-1.36,2.04-6.02,9.33-8.16,9.91c-2.14,0.58-3.64,0-8.07-0.97
		S306.38,450.49,302.94,450.42z"/>
	<path class="st0" d="M284.58,436.67c-2.11-2.98-6.41-4.91-6.41-4.91c1.26-0.66,2.13-3.06,2.13-6.56c0-4.66,4.74-5.05,4.8-0.78
		c0.06,4.28-0.33,11.47,1.22,13.41c1.55,1.94,3.89,3.5,4.08,0c0.19-3.5-0.19-6.61,2.72-5.25c2.92,1.36,1.94,2.72,2.14,5.83
		c0.19,3.11,0.97,7.77,1.36,9.13C296.63,447.55,289.63,443.81,284.58,436.67z"/>
</g>
<g>
	<g>
		<path class="st0" d="M311.89,483.13c-0.37,0-0.71,0.13-0.97,0.35c0,0,0,0,0,0c-0.48-0.13-0.86-0.52-1.95-1.05
			c-0.51-0.24-1.25-0.37-1.9-0.44c0.38-1.09,0.62-2.59,0.62-4.25c0-1.67-0.24-3.19-0.63-4.27c0.2-0.29,0.31-0.63,0.31-1.01
			c0-0.99-0.8-1.79-1.79-1.79c-0.99,0-1.79,0.8-1.79,1.79c0,0.38,0.12,0.72,0.31,1.01c-0.39,1.09-0.63,2.6-0.63,4.27
			c0,1.66,0.24,3.16,0.62,4.24c-0.67,0.07-1.45,0.2-1.98,0.45c-1.09,0.52-1.47,0.92-1.95,1.05c0,0,0,0,0,0
			c-0.26-0.22-0.6-0.35-0.97-0.35c-0.83,0-1.51,0.67-1.51,1.51s0.67,1.51,1.51,1.51c0.22,0,0.43-0.05,0.61-0.13l0,0
			c0,0,1.51-0.32,2.26-0.75c0.41-0.24,1.07-0.37,1.73-0.43v4.12h3.55v-4.11c0.64,0.07,1.26,0.19,1.66,0.42
			c0.75,0.44,2.26,0.75,2.26,0.75v0c0.19,0.08,0.4,0.13,0.61,0.13c0.83,0,1.51-0.67,1.51-1.51S312.72,483.13,311.89,483.13z"/>
		<ellipse class="st0" cx="306.03" cy="503.32" rx="1.28" ry="5.35"/>
	</g>
	<path class="st0" d="M310.94,486.74c-4.02,0.04-5.12,1.46-5.12,1.46s-1.09-1.41-5.12-1.46c-4.02-0.04-4.68,4.24-4.46,5.77
		s1.66,8.36,9.58,11.46c7.92-3.11,9.36-9.93,9.58-11.46S314.97,486.7,310.94,486.74z"/>
	<rect x="270.54" y="503.98" class="st1" width="71.24" height="5.34"/>
	<rect x="266.25" y="478.56" class="st1" width="79.82" height="6.04"/>
	<polygon class="st1" points="340.71,503.98 271.42,503.98 267.53,484.6 344.79,484.6 	"/>
	<polygon class="st1" points="340.71,474.19 271.42,474.19 267.53,478.57 344.79,478.57 	"/>
	<polygon class="st1" points="332.62,499.55 279.26,499.55 276.93,490.57 334.94,490.57 	"/>
	<path class="st1" d="M283.41,497.66c0,0,2.89,0.17,3.15-2.97c0.26-3.15-2.45-3.59-4.46-3.5c-2.01,0.09-3.33,1.75-3.24,4.46
		c0.09,2.71,3.24,3.9,3.24,3.9h-2.84l-2.32-8.98h14.79c0,0,0.28,2.93-0.44,4.49C289.97,497.92,285.6,497.84,283.41,497.66z"/>
	<path class="st1" d="M328.47,497.66c0,0-2.89,0.17-3.15-2.97c-0.26-3.15,2.45-3.59,4.46-3.5s3.33,1.75,3.24,4.46
		c-0.09,2.71-3.24,3.9-3.24,3.9h2.84l2.32-8.98h-14.79c0,0-0.28,2.93,0.44,4.49C321.9,497.92,326.28,497.84,328.47,497.66z"/>
</g>
<path class="st1" d="M269.06,346.92c0,0,16.81-6.51,38.1-6.59c21.84-0.08,38.1,6.59,38.1,6.59"/>
</svg>
