<svg enable-background="new 0 0 612 792" height="792" viewBox="0 0 612 792" width="612" xmlns="http://www.w3.org/2000/svg"><g fill="none" stroke="#25449c" stroke-miterlimit="10"><path d="m305.41 323.56c-15.74.13-18.72 15.08-20.77 19.78-2.06 4.7-4.01 6.48-4.01 6.48 1.44 3.88 7.63 8.35 7.63 8.35s-.32 2.58.29 5.73l-10.86 13.75 16.35 86.26 9.71 4.3 12.44.23 9.99-5.12 10.82-85.01-13.39-14.9s1.64-3.68-.35-5.98c0 0 5.65-3.97 6.65-8.68 0 0-1.93-2.05-3.41-5.52-1.47-3.47-5.44-19.8-21.09-19.67z"/><path d="m319.22 339.68-7.68 5.17s.85 2.76 2.67 2.93c1.82.16 5.01-8.1 5.01-8.1z"/><path d="m307.46 346.26s-.21 3.61.69 4.05c.9.45 2.11.56 2.2-.45.1-1-.42-2.07-2.89-3.6z"/><path d="m293.2 341.47 8.74 3.04s-.12 2.89-1.83 3.51c-1.72.62-6.91-6.55-6.91-6.55z"/><path d="m305.37 346.13s.44 3.58-.43 4.09c-.87.5-2.07.69-2.22-.31s.28-2.09 2.65-3.78z"/><path d="m277.7 377.64 18.82 7.49 24.65-1.06 15.84-5.77"/><path d="m303.76 468.2-7.24-83.07"/><path d="m316.2 468.44 4.97-84.37"/><path d="m280.63 349.81s6.59 3.65 12.73 4.25c6.13.6 21.77-.71 25.23-1.66 3.47-.95 11.33-3.65 11.33-3.65"/><path d="m323.27 357.43s-10.21 2.53-15.79 2.6c0 0-5.42 1.34-19.21-1.87"/><path d="m333.46 292.3s4.5-17.89 5.99-21.62 3.92-8.02 4.29-13.06-.58-7.94-1.99-11.17-4.64-8.71-5.06-10.03c-.41-1.33-.58-7.88-.75-9.78-.17-1.91-.66-6.88-1.82-8.54s-3.98-4.73-4.81-6.05c-.83-1.33-2.16-5.31-2.9-6.97s-.75-1.99-1.16-1.58.5 14.26 0 16.92c-.5 2.65 0 8.21-5.47 8.37-5.47.17-.58-8.96-1.08-14.59-.5-5.64-1.99-16-8.04-20.4s-8.04-4.56-8.37-6.63 1.99-5.31 1.99-5.31-3.4 1-4.89 7.3 4.73 9.54-.75 18.41c-5.47 8.87-10.7 10.28-12.02 15.51-1.33 5.22.91 12.52-.58 14.18s-3.48 2.82-3.81-1.99.33-8.21-1.33-10.7-5.39-6.55-8.54-7.96-.65 2.43-1.58 7.55c-1.24 6.88-5.56 21.23-6.22 25.71s0 16.92 5.8 29.6c5.8 12.69 7.46 15.51 7.46 15.51s-.08-16.58 2.99-26.45 7.55-15.17 13.76-15.09c6.22.08 10.59 5.56 11.14 9.12 0 0 1.88-9.87 12.74-8.87s15.34 19.37 15.01 38.61z"/></g><path d="m332.77 278.25c-1.63-13.32-6.19-23.85-14.33-24.59-10.86-1-12.74 8.87-12.74 8.87-.55-3.57-4.92-9.04-11.14-9.12s-10.7 5.22-13.76 15.09c-1.33 4.27-2.07 9.81-2.48 14.71 0 0-4.86-12.28-5.98-18.56s-.31-7.84.87-9.76c1.18-1.93 3.17-7.15 3.17-9.33s-.56-4.66-.62-5.41-.25-1.18 2.55.5 5.29 4.98 6.59 6.09c1.31 1.12 4.54 4.1 6.28 2.24 1.74-1.87-.5-4.6-.75-6.47s.25-4.04 4.73-6.59 5.35-5.47 6.09-7.52c.75-2.05-2.49-6.97-1-9.52s2.02-2.99 2.02-2.99-1.58 3.54 0 4.48c1.58.93 2.89.19 6.68 3.92s4.48 9.27 4.54 11.44-.62 6.47 0 7.28 1.31 2.43 4.1 1.68c2.8-.75 6.41-5.91 6.72-7.9s3.42-9.39 5.78-9.95-.31 2.36-.31 5.16-.81 6.22.62 7.59 2.99-.19 3.54-.06c.56.12.37 4.66.31 5.97s-.31 5.6.56 5.91.37-1.24 1.74-1c1.37.25 1.74 7.52-.37 15.92-2.08 8.39-3.41 11.92-3.41 11.92z" fill="#25449c"/></svg>