<svg enable-background="new 0 0 792 612" height="612" viewBox="0 0 792 612" width="792" xmlns="http://www.w3.org/2000/svg"><path d="m758.894 397.869c7.042-39.605-9.793-80.271-16.336-103.099 7.051 10.354 10.852 25.645 10.852 25.645 4.759-34.419-16.199-52.375-16.199-52.375 11.709 6.16 18.569 23.006 18.569 23.006-.163-23.15-22.946-40.738-22.946-40.738.067.014.139.026.204.039 9.917 2.017 28.067 21.179 28.067 21.179-5.948-28.462-27.569-36.206-37.836-38.294-3.342-.679-5.478-.759-5.478-.759 5.455-5.864 17.802-4.962 17.802-4.962-3.215-1.47-6.303-2.453-9.233-3.048-17.035-3.466-28.939 6.069-31.784 8.646.342 2.235-.654 16.851-1.635 22.344-.822 4.601-2.383 8.371-5.434 12.653 9.597 11.08 16.701 42.187 16.701 42.187 3.612-10.236.979-32.487.979-32.487 7.617 5.667 9.46 36.396 9.46 36.396l3.508-25.931c6.115 13.196 1.436 44.613 1.436 44.613 2.338-2.157 7.698-11.729 9.243-14.998-1.023 23.84-2.876 27.6-10.982 56.789-3.321 11.968-17.111 15.439-19.836 27.016-4.202 17.87-9.062 59.483-9.062 59.483 26.928-35.461 30.315-56.525 30.315-56.525 7.217 33.495-8.28 50.89-8.28 50.89 35.052-20.075 33.912-69.721 33.912-69.721 2.911 34.754-8.782 53.188-8.782 53.188s17.198-9.78 22.775-41.137z" fill="#fff"/><path d="m758.894 397.869c7.042-39.605-9.793-80.271-16.336-103.099 7.051 10.354 10.852 25.645 10.852 25.645 4.759-34.419-16.199-52.375-16.199-52.375 11.709 6.16 18.569 23.006 18.569 23.006-.163-23.15-22.946-40.738-22.946-40.738.067.014.139.026.204.039 9.917 2.017 28.067 21.179 28.067 21.179-5.948-28.462-27.569-36.206-37.836-38.294-3.342-.679-5.478-.759-5.478-.759 5.455-5.864 17.802-4.962 17.802-4.962-3.215-1.47-6.303-2.453-9.233-3.048-18.608-3.786-31.103 7.948-32.345 9.168-.771-1.861-9.924-22.581-35.884-21.872 0 0 11.717 3.991 14.451 11.52 0 0-33.133-12.616-55.129 19.036 0 0 24.533-10.697 34.316-8.489 0 0-27.843 7.292-37.035 28.541 0 0 12.893-12.829 26.078-13.929 0 0-26.307 8.348-35.365 41.892 0 0 9.469-12.595 20.005-19.371-14.938 18.461-46.316 49.322-55.305 88.533-7.112 31.043 4.902 46.762 4.902 46.762s-3.562-21.534 12.687-52.392c0 0-20.434 45.255 3.993 77.425 0 0-7.474-22.064 12.251-50.081 0 0-6.461 16.277 5.836 63.876 0 0 .798-38.273 14.885-58.299 5.184-7.37-9.327-20.301-7.711-32.617 3.938-30.035 3.7-34.222 12.07-56.566.146 3.611 1.956 15.67 3.27 18.566 0 0 7.345-31.899 18.126-41.659l-11.015 34.397s17.813-36.727 27.04-38.969c0 0-11.479 20.404-12.152 31.241 0 0 22.302-26.018 32.953-33.306 9.171 9.708 16.926 42.422 16.926 42.422 3.612-10.236.979-32.487.979-32.487 7.617 5.667 9.46 36.396 9.46 36.396l3.508-25.931c6.115 13.196 1.436 44.613 1.436 44.613 2.338-2.157 7.698-11.729 9.243-14.998-1.023 23.84-2.876 27.6-10.982 56.789-3.321 11.968-17.111 15.439-19.836 27.016-4.202 17.87-9.062 59.483-9.062 59.483 26.928-35.461 30.315-56.525 30.315-56.525 7.217 33.495-8.28 50.89-8.28 50.89 35.052-20.075 33.912-69.721 33.912-69.721 2.911 34.754-8.782 53.188-8.782 53.188s17.198-9.779 22.775-41.136zm-14.456 28.602c.021-.063.039-.131.059-.2 2.407-8.409 4.946-22.3 3.405-40.705-.112-1.362-1.119-2.438-2.397-2.7-.244-.05-.5-.07-.762-.056-1.624.086-2.89 1.444-2.854 3.072.003.123.219 12.278-3.745 26.628-2.305 8.336-5.553 15.776-9.651 22.109-2.436 3.763-5.173 7.138-8.205 10.111.135-.354.263-.717.392-1.088 2.839-8.151 5.411-21.642 1.536-39.63-.257-1.188-1.193-2.085-2.346-2.319-.219-.047-.447-.064-.678-.063-1.449.043-2.663 1.1-2.892 2.531-.011.053-.902 5.237-4.995 14.584-3.094 7.067-8.586 17.76-17.93 31.221 1.753-13.627 4.823-35.897 7.573-47.585 1.152-4.902 4.887-8.289 8.842-11.871 4.255-3.857 9.076-8.231 10.964-15.03.994-3.57 1.903-6.805 2.705-9.66 5.889-20.917 7.47-26.535 8.384-47.804.06-1.433-.898-2.71-2.29-3.053-.039-.011-.08-.02-.12-.029-1.354-.274-2.727.409-3.324 1.666-.493 1.047-1.297 2.575-2.227 4.245.76-10.616.905-25.423-2.993-33.84-.412-.89-1.216-1.498-2.135-1.685-.365-.075-.744-.082-1.125-.017-1.345.24-2.361 1.354-2.475 2.715l-.545 6.485c-2.6-13.82-5.522-17.553-7.623-19.115-.364-.27-.771-.449-1.199-.536-.707-.144-1.457-.031-2.108.345-1.04.604-1.622 1.768-1.482 2.961.016.134.971 8.397.908 16.923-2.847-9.129-6.98-20.366-11.691-26.901 1.862-2.463 3.834-7.501 4.927-18.805.598-6.216.716-12.04.735-14.456 1.362-1.163 4.088-3.256 7.87-5.02 5.156-2.402 10.516-3.445 15.994-3.121-1.996.866-3.864 2.043-5.354 3.643-.801.863-1.022 2.109-.575 3.197.384.938 1.213 1.607 2.188 1.805.156.033.314.054.475.06.022.002 1.982.087 4.998.699 4.996 1.017 12.397 3.351 19.293 8.689 5.463 4.229 9.689 9.646 12.639 16.176-.591-.533-1.202-1.078-1.83-1.623-8.066-7.039-14.501-11.085-19.133-12.027-.088-.019-.179-.035-.27-.052-1.365-.248-2.724.471-3.288 1.739-.562 1.27-.187 2.761.913 3.607.147.114 10.25 8.026 16.639 19.897-2.582-2.828-5.599-5.416-9.018-7.215-.262-.138-.529-.231-.804-.288-1.163-.235-2.395.234-3.093 1.261-.861 1.27-.631 2.981.533 3.979.047.042 4.855 4.211 9.181 12.401 2.563 4.846 4.411 10.086 5.503 15.57.343 1.736.611 3.499.803 5.284-1.573-3.567-3.472-7.251-5.69-10.509-.455-.669-1.143-1.104-1.889-1.256-.615-.125-1.272-.059-1.878.227-1.341.626-2.027 2.133-1.618 3.556 1.081 3.773 2.454 8.072 3.91 12.625 3.692 11.563 8.293 25.954 11.165 41.325 3.341 17.871 3.731 33.504 1.192 47.793-2.498 14.023-7.413 23.403-11.494 29.13z"/><path d="m687.224 377.388c-3.329 2.916-10.207 4.254-17.175 1.599-6.966-2.655-27.601-2.451-30.466-11.856l-1.958-14.131c1.387 5.569 8.963 9.875 17.164 13.348 15.052 6.37 32.027 2.975 38.821-.373 4.515-2.225 5.736-4.946 5.736-4.946s-13.783 7.844-23.227 4.451c-4.586-1.649-6.483 1.937-10.917 1.561 0 0-5.625-3.848-8.767-5.28-3.139-1.434-6.281-1.978-10.214-3.688-.995-.436-1.878-.874-2.663-1.313-.675-.433-1.525-1.021-2.644-1.869-1.084-.823-1.842-1.559-2.381-2.195-1.05-1.379-1.237-2.391-1.299-2.612.039.181.161.655.399 1.321-.246-.466-.331-.795-.366-1.019l-.028-.212c-.002-.029-.006-.061-.005-.091 0 0-.001.019-.002.054l-.018-.133c.004.018.009.044.02.079-.015-.055-.024-.103-.024-.103s-.037.218-.102.609c-.55 3.375-3.021 19.725.184 23.332 3.581 4.029 6.933 6.573 20.924 11.294 13.992 4.721 27.3 3.288 30.453-1.672 3.152-4.959 10.676-22.515 10.676-22.515s-8.787 13.446-12.121 16.36z"/><path d="m387.853 253.671.031-.034c-.005-.005-.02-.019-.026-.024l3.035-37.736-23.069 11.109-6.043-41.438-27.464 24.03-13.623-38.374c2.448-1.088 4.16-3.53 4.16-6.384 0-3.862-3.131-6.994-6.993-6.994-3.864 0-6.996 3.132-6.996 6.994 0 2.854 1.714 5.296 4.161 6.384l-13.623 38.374-27.463-24.03-6.044 41.438-23.07-11.109 4.722 55.311c-.043.306-.091.61-.122.924-9.588 96.28 57.342 130.02 57.342 130.02s-64.518-44.613-44.689-115.336c13.067-46.61 55.451-2.941 55.451-2.941s43.045-43.669 56.114 2.941c19.828 70.723-44.689 115.336-44.689 115.336s66.928-33.739 57.34-130.02c-.031-.313.151-.924.151-.924zm-5.19-24.698-1.796 19.205c-4.17-2.916-10.088-6.576-17.45-9.938zm-77.559-5.222 12.757-35.935 12.755 35.935 25.203-22.054 5.173 35.471c-11.887-5.088-27.165-9.172-44.775-8.312-17.301.844-31.174 4.614-41.557 8.785l5.24-35.944zm-32.386 14.688c-8.603 3.646-14.571 7.466-17.857 9.838l-1.806-19.305zm81.86 5.509c-8.604-3.84-22.674-5.776-36.72-5.836-14.046.06-28.112 1.996-36.718 5.836-8.909 3.974-18.929 8.113-25.306 14.746l-.377-4.028.387.438c.209-.184 21.327-18.336 60.663-20.255 31.051-1.51 54.955 13.763 63.706 20.315l-.33 3.529c-6.377-6.631-16.396-10.771-25.305-14.745z"/><path d="m328.876 358.697c-4.71-2.747-5.223 1.381-8.972 2.712-3.749-1.331-4.263-5.459-8.973-2.712-4.833 2.819-6.042 8.861-10.069 7.652 0 0 5.236 3.625 7.652 6.848 1.246 1.661 6.238 2.355 11.39 2.145 5.151.211 10.143-.483 11.389-2.145 2.417-3.223 7.652-6.848 7.652-6.848-4.027 1.21-5.235-4.832-10.069-7.652z"/><path d="m207.118 243.91c3.054-.738 5.435-.135 5.45-.133l11.34 3.086-9.824-6.453c-.458-.301-11.328-7.323-22.862-4.535-6.701 1.62-12.166 6.188-16.249 13.576-1.171 2.121-1.667 4.431-1.796 6.598-3.603-6.594-7.654-16.708-4.68-25.124 2.351-6.656 8.846-11.312 19.307-13.841l5.677-1.373-5.419-2.181c-.691-.278-17.1-6.771-31.751-3.228-7.701 1.862-13.491 6.152-17.204 12.753-2.731 4.854-2.571 8.737-1.813 12.146-3.146-6.347-5.177-19.743 7.023-30.038 1.307-1.104 3.782-2.154 6.792-2.881 4.375-1.057 6.387-1.175 8.537-1.103 1.378.046 5.501.431 5.501.431-1.914-1.512-3.129-2.555-4.646-3.523-8.268-5.284-22.323-9.64-37.671-5.928-14.237 3.441-26.603 12.984-35.757 27.594-5.007 7.993-6.976 12.023-7.747 13.94-.764.073-1.801.22-3.031.518-6.853 1.657-18.694 7.688-21.84 29.431-4.218 1.962-19.334 10.457-17.563 30.674l.016.176.046.168c.051.18.104.367.157.559-2.979 5.612-5.584 15.047.369 26.815 4.176 8.256 7.709 12.261 10.783 14.937 5.072 6.88-.139 12.737 2.886 21.819 2.543 8.505 7.98 14.161 16.806 14.908 17.673 1.498 22.257 24.433 22.257 24.433s3.623-8.469 2.139-18.352l.123.2-.191-.668c-.346-2.088-.93-4.232-1.821-6.37l-1.799-6.289c-5.365-18.764-2.493-33.442.86-42.452 3.56-9.559 8.375-14.982 10.156-16.391 4.67 1.364 29.468 9.387 36.338 27.549l1.746 4.623 1.751-4.622c5.908-15.602 17.84-40.953 24.761-42.726 3.819 2.225 27.645 17.188 31.239 46.158.136 1.104.278 2.163.42 3.188l.623 4.458.342-.448c.5 14.135 11.794 23.498 11.794 23.498s-6.399-22.496 8.638-31.902c15.038-9.407 9.077-30.088-7.1-49.26 0 0-1.84-16.159 17.478-12.279 0 0-12.615-17.124-27.224-2.586l-.045-.042c-1.131-1.087-10.788-10.983-1.741-23.525 2.291-3.171 5.123-5.186 8.419-5.983z" fill="#fff"/><path d="m200.485 273.464-.045-.042c-1.131-1.087-10.788-10.983-1.741-23.525 2.292-3.175 5.124-5.19 8.419-5.987 3.054-.738 5.435-.135 5.45-.133l11.34 3.086-9.824-6.453c-.458-.301-11.328-7.323-22.862-4.535-6.701 1.62-12.166 6.188-16.249 13.576-1.171 2.121-1.667 4.431-1.796 6.598-3.603-6.594-7.654-16.708-4.68-25.124 2.351-6.656 8.846-11.312 19.307-13.841l5.677-1.373-5.419-2.181c-.691-.278-17.1-6.771-31.751-3.228-7.701 1.862-13.491 6.152-17.204 12.753-2.731 4.854-2.571 8.737-1.813 12.146-3.146-6.347-5.177-19.743 7.023-30.038 1.307-1.104 3.782-2.154 6.792-2.881 4.375-1.057 6.387-1.175 8.537-1.103 1.378.046 5.501.431 5.501.431-1.914-1.512-3.129-2.555-4.646-3.523-8.268-5.284-22.323-9.64-37.671-5.928-14.237 3.441-26.603 12.984-35.757 27.594-5.007 7.993-6.976 12.023-7.747 13.94-.764.073-1.801.22-3.031.518-6.853 1.657-18.694 7.688-21.84 29.431-4.218 1.962-19.334 10.457-17.563 30.674l.016.176.046.168c.051.18.104.367.157.559-2.979 5.612-5.584 15.047.369 26.815 4.176 8.256 7.709 12.261 10.783 14.937 5.072 6.88-.139 12.737 2.886 21.819 2.543 8.505 7.98 14.161 16.806 14.908 17.673 1.498 22.257 24.433 22.257 24.433s3.623-8.469 2.139-18.352l.123.2-.191-.668c-.346-2.088-.93-4.232-1.821-6.37l-1.799-6.289c-5.365-18.764-2.493-33.442.86-42.452 3.56-9.559 8.375-14.982 10.156-16.391 4.67 1.364 29.468 9.387 36.338 27.549l1.746 4.623 1.751-4.622c5.908-15.602 17.84-40.953 24.761-42.726 3.819 2.225 27.645 17.188 31.239 46.158.136 1.104.278 2.163.42 3.188l.623 4.458.342-.448c.5 14.135 11.794 23.498 11.794 23.498s-6.399-22.496 8.638-31.902c15.038-9.407 9.077-30.088-7.1-49.26 0 0-1.84-16.159 17.478-12.279 0 .004-12.615-17.12-27.224-2.582zm-117.478 85.169c-1.404-1.502-2.674-2.444-3.926-3.075-9.117-9.558-3.797-21.324-18.367-27.594-5.277-2.27-8.161-9.889-16.21-24.616-1.02-1.862-1.964-3.787-2.839-5.723-.482-1.731-.92-3.295-1.062-3.8-1.194-14.428 7.118-21.907 12.292-25.127-2.437 8.34-4.564 24.585 11.152 34.576 15.224 9.677 20.339 19.169 21.027 22.009l.131-.031c-2.613 7.984-4.564 19.363-2.198 33.381zm52.648-31.891c-11.248-16.309-34.683-22.474-35.808-22.763l-.645-.167-.605.283c-2.497 1.158-7.656 7.041-11.567 16.273-2.797-5.11-9.086-12.692-20.979-20.252-15.699-9.981-11.05-26.94-8.764-32.931.107-.283.832-2.741.87-2.997 2.832-19.569 13.088-24.907 19.015-26.34.34-.082.654-.146.953-.203-2.342 8.982-6.903 33.563 9.781 44.049 5.145 3.235 10.957 5.163 16.578 7.028 14.928 4.957 29.077 9.656 31.171 38.02zm27.297-37.592c-8.289 2.737-18.409 24.276-23.62 36.644-2.459-30.258-18.307-35.521-33.669-40.62-5.658-1.878-11.003-3.653-15.766-6.646-14.859-9.339-9.947-33.134-7.938-40.678.042-.153.762-2.58.829-2.744.585-1.458 2.346-5.21 7.455-13.364 8.748-13.962 20.008-22.692 33.467-25.945 8.637-2.087 16.74-1.532 23.243.106-16.718 2.107-30.058 10.416-37.238 23.439-6 10.882-6.357 23.168-.933 32.066 4.828 7.918 13.597 12.106 24.687 11.794 8.95-.253 16.058 2.113 21.126 7.028 6.474 6.279 7.997 15.186 8.357 18.92zm3.807.604c-.218-3.547-1.54-14.407-9.535-22.18-5.822-5.664-13.85-8.393-23.86-8.108-9.693.272-17.29-3.28-21.389-10.004-4.729-7.755-4.34-18.603 1.013-28.314 6.483-11.757 18.542-19.333 33.721-21.434-1.737.637-3.485 1.481-4.805 2.595-12.199 10.297-12.659 25.17-7.934 34.612 1.216 2.51 4.026 5.682 6.596 8.898 1.716 2.121 8.342 8.494 8.342 8.494s-5.157-9.907-7.279-17.325c-1.059-3.695-2.013-7.208.737-12.095 3.185-5.659 8.172-9.345 14.823-10.953 8.54-2.064 18.033-.306 23.882 1.274-8.396 3.102-13.803 7.955-16.102 14.478-5.511 15.626 9.027 34.8 9.649 35.609l1.328 1.728c5.674 9.282 13.285 24.394 10.699 32.367-.602 1.856-1.747 3.213-3.46 4.134-6.76-7.611-13.641-12.119-16.426-13.776zm32.245 46.967c-1.915-12.745-7.387-22.773-13.371-30.283 2.205-1.368 3.741-3.338 4.569-5.891 3.568-11.001-7.704-30.284-12.602-37.907-.55-2.078-1.586-7.334.646-11.378 3.556-6.434 8.217-10.388 13.856-11.75 4.826-1.167 9.645-.264 13.334.979-3.842 1.128-7.125 3.553-9.77 7.221-8.542 11.839-3.194 22.839 1.66 27.887.284 3.54 1.069 7.182 2.337 10.838.4 1.155.85 2.368 1.326 3.655 4.122 11.105 10.214 27.533-1.985 46.629z"/><path d="m195.133 383.317s-10.138 17.053-24.534 16.468c-11.076-.45-12.243-2.203-12.194-2.99l-2.975 8.298-10.802-5.607s-7.523 13.397-18.979 8.703c-11.455-4.694-12.537-7.033-12.537-7.033s7.601 31.258 18.397 39.761c10.796 8.505 27.207 6.756 41.561 1.143s26.711-17.582 22.886-34.861c-3.822-17.281-.823-23.882-.823-23.882zm-8.124 44.084c-4.083 4.26-32.68 13.403-44.413 12.468-11.734-.936-20.756-28.284-20.756-28.284s13.75 6.181 40.046-1.554c16.933-4.98 28.281-14.478 28.281-14.478s.925 27.589-3.158 31.848z"/><path d="m544.235 203.319c-8.124-12.957-3.294-28.646-3.294-28.646-.147-5.719-8.344 8.805-12.909 18.961-4.563 10.152-6.466 13.734 1.407 35.556 3.566 9.85 2.182 24.902-8.736 26.663-9.921 1.606-19.306-8.509-32.475-11.988v-.047c-.032.005-.064.013-.094.021-.027-.009-.062-.017-.093-.021v.047c-13.169 3.479-22.557 13.595-32.478 11.988-10.927-1.761-12.29-16.813-8.733-26.663 7.884-21.821 5.955-25.403 1.409-35.556-4.553-10.156-12.759-24.68-12.911-18.961 0 0 4.84 15.689-3.303 28.646-8.141 12.96-30.347 45.032-28.99 60.396 1.353 15.37 6.59 51.89 22.761 74.197 0 0-4.849-30.716 25.167-40.495 0 0 16.494 14.277 37.078 33.197v.177c.031-.04.065-.063.093-.101.029.038.062.061.094.101v-.177c20.569-18.92 37.09-33.197 37.09-33.197 30 9.779 25.165 40.495 25.165 40.495 16.159-22.308 21.389-58.827 22.745-74.197 1.374-15.363-20.845-47.436-28.993-60.396z"/><path d="m484.862 415.853c12.467-1.397 21.334-7.726 21.334-7.726s-7.667-6-14.667-15c0 0-4.142-1.718-7.667 1.149-3.524-2.867-7.666-1.149-7.666-1.149-7 9-13.334 12.334-13.334 12.334s7.534 8.994 20.001 10.392v.187c.327-.022.662-.052.999-.083.338.031.673.061 1 .083z"/></svg>