<svg viewBox="0 0 718.53 898.879" xmlns="http://www.w3.org/2000/svg"><ellipse cx="359.384" cy="456.405" rx="233.931" ry="289.996"/><g transform="translate(-1080.734 -2430.894)"><path d="m1795.688 2921.4a17.339 17.339 0 0 0 -2.313-23.395 21.643 21.643 0 0 0 -15.44-6.488 43.155 43.155 0 0 1 -5.379-.565v-1.3l8.783-4.871-8.143-4.965c3.46-.526 6.526-.79 9.516-1.467a20.16 20.16 0 0 0 15.571-13.8c2.52-7.523 0-14.161-5.472-19.164a48.332 48.332 0 0 0 -39.343-13.164c-5.529.639-10.87 2.821-16.286 4.306a44.765 44.765 0 0 1 8.895-6.789 13.524 13.524 0 0 1 13.165-1.5 39.112 39.112 0 0 0 22.567.564c-4.175-5.51-9.93-6.206-14.763-8.933a38.2 38.2 0 0 1 6.676-.865c2.746-.47 7.278-.865 7.749-2.351 1.391-4.363 5.4-5.19 7.936-7.823 1.674-1.749 3.291-3.554 5.341-5.792-4.965-2.784-9.065-1.881-13.165-1.411-2.049.226-4.645 1.542-6.036.715-4.721-2.765-7.673.188-10.908 2.52-1.881 1.316-3.517 2.8-6.356 5.1 3.291-5.961 4.946-10.87 1.617-17.038l-12.77 11.284c1.166-3.085 2.389-6.15 3.517-9.253 2.219-6.074 5.04-12.036 6.432-18.3 2.576-11.566-1-21.59-9.7-29.677-1.505-1.41-3.159-2.651-4.965-4.156 3.31-6.507.47-10.55-3.93-14.725-5.228-4.965-9.309-10.814-8.407-18.9a21.965 21.965 0 0 0 -4.306-14.65 92.877 92.877 0 0 0 -25.5-25.878 45.9 45.9 0 0 1 -4.271-3.769c3.912-6.281 2.37-11.283-2.369-16.3-1.994-2.087-2.6-5.642-3.649-8.481-.658-1.881-.977-3.762-1.466-5.642-9.761 3.761-10.72 10.964-8.557 19.464-16.324-3.761-22.4-12.506-22.342-24.316 0-9.4 4.532-14.876 12.976-16.249 0 8.162 1 9.8 6.921 11.547s12.788-.752 14.161-5.059c1.222-3.761-2.426-10.493-7.616-12.28a35.159 35.159 0 0 0 -12.187-1.881c-14.142.414-22.567 9.535-22.21 23.677v7.692a38.627 38.627 0 0 1 -11.66-15.7c-3.084-7.523-2.539-10.043 3.479-15.778a33.6 33.6 0 0 0 4.363-4.458c3.1-4.363 6.131-8.82 5.642-14.894-8.293 1-13.032 6.639-18.994 12.788 1.749-6.77 5.529-11.866 2.727-17.057-8.406-2.708-7.184-14.048-16.361-16.3l-6.037 17.114-3.761.658 3.328 11.284c-5.642-1.693-10.832-4.965-17.207-2.558 2.8 7.391 8.143 12.111 14.461 15.854a61.2 61.2 0 0 1 21.8 21.006c-14.2-7.522-28.491-14.857-42.051-23.432a231.322 231.322 0 0 1 -28.566-21.665c-8.181-7.165-8.294-16.926-1.373-25.106a31.763 31.763 0 0 1 20.893-11.115 22.344 22.344 0 0 1 21.44 11.528 6.433 6.433 0 0 1 -1.054 7.88c-2.237 2.464-4.513 1.881-6.939.188a25.992 25.992 0 0 0 -5.51-2.915 10.869 10.869 0 0 0 -11.942 3.611 9.157 9.157 0 0 0 1 11.528 16.787 16.787 0 0 0 8.312 5.228 41.8 41.8 0 0 0 14.688 0c5.829-1.053 10.606-4.382 12.186-10.719 2.727-11.021-.658-19.9-10.024-26.592-15.251-10.908-35.995-9.159-50.269 3.761a26.33 26.33 0 0 0 -9.008 22.267c.132 2.256.32 4.494.546 7.691-33.532-14.932-67.609-24.184-103.434-23.771a252 252 0 0 0 -104.237 24.002c.225-2.407.3-3.611.451-4.815 1.937-13.991-3.893-23.959-16-30.917-16.154-9.4-37.857-6.187-48.9 7.786a21.721 21.721 0 0 0 -3.912 21.326c4.119 11.7 26.743 15.045 34.735 5.642 3.085-3.649 3.762-9.215 1.467-12.318a11.285 11.285 0 0 0 -11.961-3.649 20.706 20.706 0 0 0 -4.852 2.483c-2.538 1.692-4.964 3.1-7.616.338a6.318 6.318 0 0 1 -.677-8.575 27.729 27.729 0 0 1 7.015-7.147c12.261-8.011 33.738-.451 38.5 13.484a16.588 16.588 0 0 1 -3.254 17.547 82.763 82.763 0 0 1 -9.158 8.481c-17.772 14.274-37.613 25.125-57.848 35.45a30.774 30.774 0 0 1 -3.912 1.391c6.018-7.372 10.851-15.383 19.822-19.464a30.539 30.539 0 0 0 15.459-16.38c-10.212-1.881-17.34 2.652-23.9 9.121 2.859-6.037 10.1-9.535 8.764-17.847-2.915-.151-4.664-1.335-4.589-5.04a15.721 15.721 0 0 0 -5.454-12.111c-8.331 2.557-7 13.8-15.045 16.079-3.911 6.488 2.069 11.829 2.332 17.866-5.378-8.67-9.835-11.886-19.389-13.371a28.908 28.908 0 0 0 10.174 18.6c2.859 2.369 5.642 4.589 5.793 8.764.169 6.112-6.79 18.2-12.751 22a108.6 108.6 0 0 0 -1.58-13.766c-3.31-13.729-22.567-21.571-34.6-14.143a16.8 16.8 0 0 0 -5.642 6.282c-2.351 4.4-.7 8.049 3.949 10.08a14.068 14.068 0 0 0 12.77-.865c4.382-2.3 2.745-6.62 3.2-11.472 3.272 1.749 6.055 2.595 7.936 4.382 4.89 4.645 6.018 10.719 5.1 17.226-1.88 12.807-11.735 17.057-22.078 21.515.677-15.986 0-17.49-8.764-20.161-1.561 4.382-2.125 9.573-4.889 12.883-4.739 5.641-6.075 11.152-2.784 17.884-1.41.978-2.482 1.655-3.479 2.426-9.234 7.2-18.806 14.011-25.6 23.865-3.329 4.852-6.432 10.08-5.153 15.91 1.881 8.632-2.445 14.688-7.71 19.766-4.608 4.475-7.316 8.632-4.777 15.439-1.486 1.223-2.953 2.314-4.288 3.517-8.933 7.993-11.98 18.129-9.986 29.658a86.441 86.441 0 0 0 4.5 14.067c1.429 3.986 3.084 7.917 4.645 11.847l-11.7-9.271c-3.761 4.777-1.655 9.4-1.26 13.033l-10.983-5.247c-5.209 3.554-10.55-.452-15.834.244-2.163.282-4.326.47-7.391.79a22.481 22.481 0 0 0 2.84 3.968c3.009 2.445 7.748 4.119 8.951 7.2 2.633 6.864 7.636 5.642 12.694 5.811a18.6 18.6 0 0 1 3.931 1.128c-11.491 4.8-11.491 4.8-14.387 9.4 8.425.225 16.681 1.88 24.712-1.881a7.842 7.842 0 0 1 5.848 0c4.175 1.881 8.068 4.457 12.525 7.015-1.128.6-1.391.865-1.58.827a29.932 29.932 0 0 1 -4.475-1.015c-15.215-5.529-29.225-2.238-42.371 6.074a37.611 37.611 0 0 0 -8.684 7.76c-6.131 7.41-5.529 16.267.978 23.339a21.982 21.982 0 0 0 13.371 7.315c1.88.263 3.611.846 6.676 1.6l-7.692 4.776c2.069.884 3.216 1.467 4.42 1.881 5.83 2.069 12.807 2.746 17.264 6.469 6.112 5.116 10.832 2.088 16.154.3 1.881-.639 3.555-2.2 5.454-3.009a32.15 32.15 0 0 1 5.153-1.278c-13.277 8.387-15.158 10.851-13.5 18.937 11-1.2 18.487-9.553 27.645-14.593 4.457 10.1 3.912 13.371-3.178 19.126a94.62 94.62 0 0 1 -28 15.383 67.256 67.256 0 0 1 -9.234 1.881c-1.354-4.363-2.5-7.955-7.2-8.952a77.866 77.866 0 0 1 -12.431-4.175c-2.727-1.072-4.57-.7-5.642 2.106a30.666 30.666 0 0 0 -.865 3.761c-7.372-5.641-8.97-11.1-5.435-17.527 3.16-5.736 7.278-7.222 14.218-4.984a10.319 10.319 0 0 1 -1.054 2.013c-1.88 2.332-3.385 4.739-1.316 7.71a7.372 7.372 0 0 0 8.312 2.878 20.526 20.526 0 0 0 7.147-2.878c4.457-3.159 5.021-7.842 1.88-12.3a14.669 14.669 0 0 0 -11.81-6.526c-9.4-.357-16.925 1.881-22.21 11-3.931 6.7-3.893 11.961-.113 18.016a34.265 34.265 0 0 0 14.067 12c3.573 1.88 7.222 3.573 11.528 5.641l-12.731 1.373-.32 1.881 13.315 7.71c-2.652.283-5.774.489-8.839 1-1.768.3-4.89.978-4.946 1.674-.489 5.811-6.394 5.51-9.14 8.632-1.448 1.636-2.953 3.235-4.438 4.833l.6 1.636h12.112c2.068 0 4.475-1.034 6.149-.3 5.228 2.3 8.858.188 12.337-3.328a12.064 12.064 0 0 1 3.1-1.411c-.338 5.078-3.479 9.535-.207 14.237 6.376-3.386 10.851-7.8 12.92-14.331 2.238-7.127 12.017-16.455 21.571-19.408-6.3 8.557-11.416 16.587-17.64 23.658a60.829 60.829 0 0 0 -14.726 28.755 24.918 24.918 0 0 0 5.642 22.567c3.761 4.232 8.237 8.614 6.564 15.7-.433 1.88 1.88 4.551 3.4 6.469 5.285 6.488 11.453 12.487 9.61 22.1a8.868 8.868 0 0 0 .64 3.028c2.407 11.773 9.685 20.536 17.884 28.661 3.762 3.761 8.162 7.165 11.66 10.193 0 5-1.5 10.1.32 13.314 3.348 5.849 6.469 11.529 7.071 18.43 10.043-4.457 10.607-5.642 9.591-20.423 3.762 2.125 7.071 4.062 10.419 5.773 7.616 3.856 10.494 10.645 11.1 18.524.733 9.4-5.435 16.926-14.049 17.678.414-6.638-.338-8.8-3.761-10.757-5.19-2.971-14.01-1.448-16.3 2.821s1.486 11.7 7.786 14.161a19.324 19.324 0 0 0 5.322 1.128 49.441 49.441 0 0 0 7.034 0c13.164-.752 21.645-9.591 21.8-22.774v-8.293c5.51 3.893 7.654 9.252 10.042 14.274 4.42 9.4 3.668 12.13-4.08 18.806a28.917 28.917 0 0 0 -10.532 18.016c8.839-.715 14.443-5.491 19.671-11.284-2.313 5.379-4.664 10.569-2.839 15.816 8.2 3.216 6.337 14.5 15.458 17.246a84.835 84.835 0 0 0 5.4-12.506c.808-3.028 1.88-5.022 4.4-5.379 1.674-7.729-5.209-11-8.368-17.659 11.283 9.911 15.8 11.6 23.545 9.121a32.818 32.818 0 0 0 -15.647-16.719c-8.764-4.513-13.559-12.713-19.389-20.066 17.377 9.065 34.509 18.355 50.137 29.977a172.644 172.644 0 0 1 19.427 16.926c6.62 6.676 6.714 15.27 1.034 22.68a30.539 30.539 0 0 1 -23.62 12.2c-8.726.414-15.5-3.761-19.935-11.453a6.525 6.525 0 0 1 1.373-8.5c2.426-2.464 4.664-1.242 6.94.395a19.753 19.753 0 0 0 4.024 2.388c5.322 2.163 12.469 0 14.406-4.382s-.508-10.418-5.36-13.409a12.273 12.273 0 0 0 -4.269-1.88 65.85 65.85 0 0 0 -9.4-.847c-15.553-.263-22.812 11.792-17.885 25.991 2.84 8.161 9.4 12.957 16.926 16.229a102.523 102.523 0 0 0 9.911 3.141 4.519 4.519 0 0 1 -.207 1.147 3.5 3.5 0 0 1 -.922 1.2 18.9 18.9 0 0 0 -9.4 17.659c0 1.88-1.881 3.949-3.423 5.529a59.874 59.874 0 0 1 -6.206 5.1l.715 1.768c2.106 0 4.607.734 6.244-.132 4.569-2.444 8.255-1.5 12.242 1.26a17.771 17.771 0 0 0 12.77 2.445 9.045 9.045 0 0 0 8.011-9.083c-.225-3.761-4.175-6.958-8.895-7.034-1.523 0-3.066.659-4.608.734a3.968 3.968 0 0 1 -3.892-6.206 7.255 7.255 0 0 1 2.538-2.859c5.266-2.952 10.626-5.3 17.039-4.156a66.133 66.133 0 0 1 25.463 11.284 6.545 6.545 0 0 1 2.69 3.554c.733 3.517 3.215 5.1 6 6.658a79.181 79.181 0 0 1 6.563 4.551 64.794 64.794 0 0 0 -8.858.564c-1.88.395-4.457 1.26-4.87 2.52a5.979 5.979 0 0 0 1.88 5.209 45.808 45.808 0 0 0 10.1 5.642c8.106 3.329 16.23 1.881 24.824-1.523-1.185 2.012-1.993 3.216-2.6 4.5-2.407 5-1.128 7.936 4.156 9.1a19.542 19.542 0 0 0 5.416.15c9.234-.6 16.926-5.115 23.9-10.55s6.789-6.921 1-14.218l7.616-4.419-3.328 7.071 11.283 3.272a50.768 50.768 0 0 1 -3.122 5.172 104.766 104.766 0 0 0 -6.92 9.4c-.959 1.73-1.429 5.04-.433 6.206a7.128 7.128 0 0 0 6.263 1.279 76.881 76.881 0 0 0 10.494-4.984c1.88-.921 3.874-1.768 5.792-2.652a6.654 6.654 0 0 1 -1.335 4.363c-2.483 3.329-5.247 6.489-7.523 9.968-1.768 2.727-2.388 5.811.357 8.557a6.019 6.019 0 0 0 8.407 1.034 40.371 40.371 0 0 1 5.642-2.445c0 7.523-.941 14.744 3.234 20.894h7.824c5.642-6.244 2.294-14.274 3.911-22.1 2.013 1.317 3.517 2.2 4.928 3.216a6.526 6.526 0 0 0 9.177-.545c2.689-2.558 2.388-5.642.395-8.463-1.316-1.881-2.783-3.761-4.1-5.642s-2.614-4.062-3.911-6.112l1.222-1.467c2.652 1.279 5.266 2.633 7.955 3.762a31.863 31.863 0 0 0 7.936 2.915c4.8.639 7.015-2.483 4.815-6.7-1.543-2.953-3.987-5.417-5.83-8.238-1.58-2.426-4.551-4.25-4.138-7.522l9.817-2.953-.809-5.642 6.056 3.122c-6.488 6.15-6.526 8.557.3 13.6a90.066 90.066 0 0 0 13.992 8.407 23.829 23.829 0 0 0 15.929 2.369c5.416-1.241 6.488-4.306 3.479-9.008-.771-1.222-1.524-2.445-2.727-4.382 1.88.151 3.009-.113 3.761.358 6.714 4.363 14.18 2.689 21.345 2.426a11.288 11.288 0 0 0 7.523-3.555 27.294 27.294 0 0 0 5.3-10.1c3.592-13.051 12.261-21.27 23.677-22.1a75.943 75.943 0 0 0 15.233-2.012c4.024-1.147 5.961 1.09 7.955 3.2 2.313 2.407 2.012 5.19-.865 7.522a62.068 62.068 0 0 0 -6.695-.884c-4.288-.131-8.237 2.6-9.008 5.943-.922 4.006 1.485 7.523 6.281 9.4 5.36 2.05 10.381.677 14.932-2.05 3.761-2.313 7.3-3.347 11.566-1.128 1.88.978 4.438 1.975 6.77-1.354a31.207 31.207 0 0 0 -4.1-3.912c-3.893-2.6-6.187-5.247-5.642-10.757s-2.914-10.23-7.879-13.39a16.908 16.908 0 0 1 -2.972-3.611c14.255-4.532 24.768-11.81 27.307-25.952-1.448-5.849-4.909-10.193-9.1-14.725a2.874 2.874 0 0 1 -.771-1.524 23.472 23.472 0 0 0 -20.932-.714c-5.4 2.538-8.519 9.008-6.507 13.446 1.467 3.235 9.78 4.7 14.18 2.445 1.147-.583 2.144-1.448 3.254-2.088 3.065-1.88 6.337-2.689 9.4-.282 2.614 2.05 3.009 6.959 1.373 10.757-5.887 13.748-22.1 15.628-32.817 10.588a36.922 36.922 0 0 1 -12.318-10.174c-7.316-8.651-7.523-17.772 1.053-25.557a285.209 285.209 0 0 1 31.03-24.731c11.566-7.879 24.072-14.367 36.183-21.439a20.2 20.2 0 0 1 2.614-1.072l.941 1.355c-7 8.18-13.014 17.207-23.113 22.454a25.016 25.016 0 0 0 -12.939 15.4c7.73.489 13.635-2.858 19.634-6.638l-5.4 12.863c4.7 1.279 4.833 4.119 5.058 7.523a39.616 39.616 0 0 1 2.483 4.476l.169.489a37 37 0 0 1 2.464 7.353l.131.413c6.583-5.416 8.952-11.283 10.814-17.376l5.115-.32-1.5-12.882c6.131 2.256 9.817 8.876 17.527 6.826-3.178-7.315-5.811-14.368-12.995-18.674-4.7-2.821-5.642-7.523-3.46-12.337 2.539-5.642 5.642-11.058 8.745-16.474.639-1.129 1.88-1.881 4.043-3.762-.433 3.461-.809 5.435-.922 7.523-.489 8.933 2.088 16.719 10.137 21.345 8.688 4.984 17.828 5.473 26.761.244a11.282 11.282 0 0 0 3.949-3.761c1.881-3.028 2.464-6.413.113-9.516s-9.892-4.1-14.612-2.012c-4.269 1.881-4.89 3.536-3.949 10.231 0 .394-.414.883-.64 1.316-7.522-1.335-11.641-4.852-13.164-12.036-2.783-13.164 3.4-24.448 20.574-28.849-.395 13.879.357 15.365 9.967 18.807.9-6.771 2.652-13.165 7.184-18.487 1.2-1.448.9-4.438.734-6.676a29.381 29.381 0 0 0 -1.712-5.943c2.05-1.636 3.874-3.1 5.642-4.532a72.423 72.423 0 0 0 20.687-24.072c2.313-4.532 4.494-9.779 4.494-14.706 0-8.106 3.63-14.406 8.444-19.728 4.063-4.495 6.564-8.463 3.762-14.913a39.126 39.126 0 0 0 3.911-2.953c7.824-7.635 11.284-16.925 9.215-27.683a58.456 58.456 0 0 0 -4.833-14.706 132.417 132.417 0 0 0 -20.461-30.259c-1.693-1.881-3.893-3.761-4.419-7.711l7.879 7.071c4.439 3.968 8.463 7.937 11 13.785 2.351 5.416 7.071 9.78 14.5 12.845l-1.355-14.481a79.682 79.682 0 0 0 7.147 4.57 11.689 11.689 0 0 0 5.115 1.128c2.99 0 5.962-.507 8.952-.583 4.081-.112 8.181 0 12.412 0-1.091-8.256-11.547-7.522-13.052-15.59l-14.4-2.5c6.657-2.012 9.535-3.949 13.559-9.572l-12.6-1c4.269-2.219 7.616-4.1 11.1-5.642a34.38 34.38 0 0 0 13.596-11.606zm-48.407-78.29c3.761-1.373 7.842-2.276 13.164-3.762-.432 7.636 3.762 8.99 8.708 10.156 4.457 1.072 8.744 2.839 14.029 4.607l2.351-7.165c6.845 5.172 8.933 11.284 5.905 17.17q-4.232 8.463-14.556 5.642a21.552 21.552 0 0 0 2.37-3.648c1.88-4.834-.132-8.463-5.229-8.8a18.661 18.661 0 0 0 -8.312 1.241c-6.131 2.652-7.522 8.821-3.536 14.161 1.223 1.618 2.746 2.991 4.871 5.285-4.212-.715-6.808 0-9.967-3.611-2.915-3.31-9.29-.545-13.559 2.013-2.633 1.579-4.871 3.761-8.9 2.689 6.338-4.627 13.748-7.824 13.5-17.6-6.281.169-10.889 3.761-16.079 5.492s-7.372 9.064-14.236 8.274c-1.5-3.573-1.674-6.883 1-9.591 8.579-8.715 16.495-18.269 28.476-22.556zm-33.964 99.559c11.886 10.87 15.045 15.327 9.253 34.6l-14.914-3.2zm-5.924-145.747 10.814-4.1c6.807 10.926 5.4 21.665-5.172 33.475zm36.428 16.624a122.062 122.062 0 0 1 -14.82 16.08 150.466 150.466 0 0 1 17.9-25.2c-.955 3.08-1.256 6.674-3.08 9.117zm-13.447-70.655-7.673 3.4c3.95 5.1 7.335 9.554 10.851 13.917 2.3 2.84 4.608 3.291 11.378 2.633 6.639 10.136.264 27.72-13.634 39.718-.527-7.955 0-16.022-6.639-21.664s-13.578-5.755-21.74-1.2l-3.347-10.607c3.761.32 6.469.772 9.234.753a12.565 12.565 0 0 0 10.738-5.322 10.062 10.062 0 0 0 -.546-10.946 9.234 9.234 0 0 0 -10.155-1.523 47.5 47.5 0 0 0 -5.642 3.855c-3.949-4.306-3.987-6.977-.244-10.964 6.3-6.829 19.408-7.807 27.419-2.053zm-34.133-60.461c11.622 4.964 18.675 14.762 22.567 26.422 2.389 7.184-4.588 16.174-13.164 18.543a13.176 13.176 0 0 1 -3.084.452 36.677 36.677 0 0 1 -3.761-.3c5.171-9.027 2.144-15.29-7.278-16.757-5.116-.808-7.88 0-14.274 4.025l-5.887-10.607c2.144-.508 3.762-.846 5.379-1.279 4.833-1.3 7.823-4.72 7.522-8.613s-3.761-7.146-8.368-7.917a31.414 31.414 0 0 0 -4.382 0c2.689-3.987 5.849-5.868 9.4-5.811 5.228.037 10.8-.076 15.327 1.861zm2.52 54.538-7.654 8.161-4.57-10.1zm-24.279-67.045c3.611-1.88 5.642-1.034 8.03 2.05-4.193 1.392-8.538 2.163-12.13 4.232s-6.638 5.491-10.456 8.782l-13.277-18.806 1.335-1.542c2.915 1.448 5.962 2.708 8.726 4.4a16.924 16.924 0 0 0 17.772.881zm-55.534-37.443 37.932 22.041-16.663 3.066-22-24.166zm-361.079 2.013a18.058 18.058 0 0 1 3.63-.753l-21.4 23.809-16.925-2.953c12.28-7.127 23.451-13.634 34.659-20.1zm-55.723 33.663c8.275 5.19 16.174 4.983 23.959-.847a10.51 10.51 0 0 1 7.523-1.466l-13.992 20.179c-5.1-8.99-12.845-12.77-23.7-13.353zm-38.552 35.487a123.766 123.766 0 0 1 12.807-16.512c5.961-6.319 14.048-7.522 22.341-6.751a10.945 10.945 0 0 1 9.027 4.908 73.435 73.435 0 0 0 -9.873 4.72c-1.147.753-1.58 3.216-1.636 4.909-.132 5.059 2.859 7.2 12.657 8.933l-5.417 9.967c-4.438-1.185-8.237-3.009-12.092-3.1-11.02-.3-15.365 6.563-10.776 16.644-7.522 1.372-12.412-2.314-16.531-7.786a12.939 12.939 0 0 1 -.507-15.935zm30.09 31.105-4.138 9.61-8.387-7.014zm-58.864 27.645c6.789 2.276 11.021-.169 14.443-5.98 2.013-3.385 5.642-5.792 9.61-9.629l-8.613-3.949a22.043 22.043 0 0 1 25.765.846c4.419 3.668 4.908 6.451 1.88 12.563-1.88-1.26-3.611-2.652-5.529-3.761-4.382-2.37-9.61-1.43-11.942 1.974a8.614 8.614 0 0 0 2.276 11.811 19.35 19.35 0 0 0 8.387 3.385c2.708.432 5.642-.376 9.554-.753l-3.141 10.344c-7.9-2.9-15.534-4.927-22.172 1.448-5.924 5.642-6.244 13.371-6.564 21.025a35.412 35.412 0 0 1 -13.954-39.327zm-2.162 40.716 16.925 22.981c-10.212-6.585-15.383-13.938-16.925-22.984zm29.525 71.877c-1.88-.451-4.438-.282-5.491-1.467-6.225-6.939-14.575-9.61-24.166-13.164-.583 12.713 8.387 15.571 16.925 19.991-4.964.225-8.2-1.523-11.641-3.2a56.889 56.889 0 0 0 -11.678-3.761c-1.223-.3-3.667.319-3.987 1.109-1.636 4.194-5.153 2.182-8.049 2.595a58.6 58.6 0 0 0 3.968-4.664 9.082 9.082 0 0 0 -3.931-14.236 11.97 11.97 0 0 0 -4.494-1.053c-3.329 0-6.921-.583-9.008 3.084s.526 6.319 2.632 8.933c-5.472 2.671-10.211 1.354-13.784-3.761-4.025-5.661-2.615-11.66 4.532-18.43l2.952 6.883a166.355 166.355 0 0 0 17.528-5.642c2.651-1.166 4.438-4.25 6.262-7.033 4.965-1.6 9.742.526 14.349 2.8 10.494 5.171 18.524 13.352 26.329 21.871a6.061 6.061 0 0 1 1.881 3.31 28.692 28.692 0 0 1 -1.11 5.83zm-1.128-82.127 11.867 3.762-5.793 29.262c-12.449-9.5-10.268-20.894-6.055-33.024zm5.642 148.682 6.3 32.384-15.045 3.329c-6.15-13.183-4.4-21.27 8.82-35.713zm-33.851.282c-6.319 3.348-11.924.433-18.675-2.708a72.88 72.88 0 0 0 36.747-9.61l.865 2.031c-6.187 3.423-12.468 6.921-18.806 10.287zm10.061 85.738 9.7-4.025c-4.213-5.4-7.3-10.607-11.622-14.406-2.5-2.181-7.015-2.049-11.51-3.2-5.059-16.041 5.116-27.062 15.346-39.361a47.97 47.97 0 0 1 1.128 4.833c.226 2.069.113 4.175.414 6.225 1.881 13.672 12.638 19.935 25.6 15.045 1.43-.545 2.784-1.279 5.116-2.351l3.93 13.559c-4.438-1.222-8.011-2.764-11.772-2.9a22.289 22.289 0 0 0 -10.4 2.163 8.952 8.952 0 0 0 -3.877 12.052l.021.04c1.881 3.461 7.523 4.777 11.867 2.633a48.7 48.7 0 0 0 5.642-3.761c3.159 5.642 3.084 7.748-.715 11.284a21.064 21.064 0 0 1 -18.091 5.3 81.512 81.512 0 0 1 -10.777-3.133zm44.157-6.489 6.582 15.572-18.11-3.442zm-19.277 61.346a111.575 111.575 0 0 1 -11.847-17.226c-3.611-6.9-2.088-11.491 3.648-16.663a21.853 21.853 0 0 1 18.543-5.378c-4.269 4.476-4.344 8.989-.376 13.277 3.648 3.949 11.283 5 16.7 2.125a52.785 52.785 0 0 0 6.619-4.965c.978 1.467 2.163 3.047 3.141 4.758s1.881 3.762 3.084 6.357c-2.482-.3-4.306-.64-6.149-.752-6.188-.339-10.513 2.576-11.1 7.372-.677 5.641 2.106 8.688 9.159 9.967a11.538 11.538 0 0 1 2.219.677 25.256 25.256 0 0 1 -3.555 3.761c-7.673 5.225-23.165 5.432-30.086-3.313zm28.21 18.712c-3.31 1.618-5.21-.188-7.88-2.877 12.243-2.539 21.834-7.936 26.329-20.856l18.806 27.833-.734 1.317a163.3 163.3 0 0 1 -16.925-4.74c-6.62-2.576-12.958-3.893-19.54-.677zm43.461 20.856a20.023 20.023 0 0 0 -2.125 5.981c-9.4-.226-15.045-7.259-22.568-11.472a33.453 33.453 0 0 0 21.195-8.012l8.594 10.626c-1.843 1-3.968 1.523-5.04 2.877zm41.467 34.134-36.465-21.063 8.162-6.94 29.093 27.006zm57.284 64.448a21.313 21.313 0 0 0 -12.036-1.316c-7.654 1.109-10.663 4.946-12 13.954l-10.212-3.761c13.785-7.41 21.966-17.339 20.931-33.438a27.386 27.386 0 0 1 7.053 0 35.4 35.4 0 0 1 16.756 10.964c6.375 7.316 8.933 15.628-3.065 22.154-2.37-2.858-4.232-6.977-7.373-8.576zm24.354 43.5c-5.867-1.316-10.663-3.987-12.807-11.679 3.761-.9 6.921-1.655 10.118-2.463 3.479-.884 6.168-2.689 6.958-6.47 1.26-6.074-.282-7.955-7.673-9.4 5-7.748 10.362-8.425 16.042-1.673 7.09 8.425 16.305 11.528 26.987 11.49-7.109 15.132-23.903 23.651-39.625 20.191zm-1.147-62.643 17.132 5.134c-2.633 4.156-4.965 8.274-7.767 12.036-.827 1.09-2.971 1.2-4.4 1.711zm25.8 23.376c10.813-4.608 10-4.044 11.077-13.635l25.633 3.291c-3.179 10.739-20.687 17.546-29.394 16.418-3.668-.526-7.429-1.072-7.335-6.131zm20.687 37.424c4.344-3.761 8.575-7.729 13.164-11.171 1.486-1.109 4.081-.771 6.432-.244a35.732 35.732 0 0 1 -19.521 11.377zm31.8 33.061c-3.573-3.761-3.761-8.519-3.761-13.014 0-9.835.62-19.652 1.26-29.469 0-1.429 1.523-3.761 2.614-3.93 2.84-.452 2.934 1.974 3.009 4.174.32 10.607.9 21.214 1.034 31.821.188 5.247-.526 6.187-4.081 10.343zm12.525-42.652c2.407-2.972 4.683-3.329 6.695-1.73 5.3 4.193 10.4 8.65 15.571 13.014a100.928 100.928 0 0 1 -22.191-11.359zm40.979-28.6c0 5.4-3.63 7.033-7.147 6.9-12.28-.471-23.413-4.025-31.18-14.444-.264-.338-.113-.977-.189-1.88l27.288-3.329c-.564 7.654 3.2 12.186 11.284 12.675zm15.5 40.959c-13.766-1.034-23.3-8.688-30.842-20.2a10.184 10.184 0 0 1 2.67-.64c11.039 1.241 19.2-3.46 25.05-12.431 2.332-3.573 5.642-3.121 8.914-3.441 3.761-.339 4.815 2.388 6.281 5.454-3.14 1.147-7.146 1.128-7.334 6.055-.207 5.642 1.128 8.256 6.507 9.949 2.971.94 6 1.617 8.989 2.5.395.113.659.752.959 1.147-3.347 8.5-10.174 12.356-21.138 11.528zm-7.052-58.3 17.17-5.378-4.74 18.43c-2.52 1.241-4.231-.113-5.641-2.652-1.938-3.31-4.138-6.432-6.733-10.437zm71.463 21.026-6.413 4.024c-3.423-9.4-7.842-12.844-16.643-12.995-8.35-.132-11.284 1.881-14.857 10.607-10.381-5.642-11.923-12.187-4.777-21.1a35.128 35.128 0 0 1 16.305-11.584 59.817 59.817 0 0 1 8.594-1.448c-1.015 15.1 5.078 24.993 17.847 32.459zm-51.378-40.829c-67.985 26.724-133.825 20.33-196.638-16.455-44.909-26.4-78.046-64.336-103.622-109.283-24.335-42.821-37.2-89.084-42.3-137.811a361.52 361.52 0 0 1 25.37-177.531c24.748-60.066 62.887-109.583 118.949-143.867 37.8-23.113 78.986-34.866 123.425-33.362s85.267 15.778 121.9 41.242c56.926 39.493 93.41 94.162 115.414 159.081a348.507 348.507 0 0 1 17.395 83.086c.941 11.4 1.2 22.868 1.618 31.087-1.035 73.344-18.129 138.77-56.569 197.859-31.012 47.731-71.445 84.892-124.892 105.917zm171-165.494 10.024 12.092-16.155 3.141zm-94.44 135.962-.432-.6 29.789-28.209 8.331 6.469zm43.95-29.394c0-4.683-1.429-7.993-7.108-8.369l8.951-10.945c6.4 4.607 12.751 7.9 20.687 6.939-4.325 5.736-14.33 11.4-22.492 12.394zm44.552-25.633c-7.785-4.532-15.308-3.5-23.15-.132-4.89 2.107-10.325 2.915-15.534 4.307l-1-1.448 17.716-26.16c3.761 4.363 6.695 9.4 11 12.619s10.024 4.871 15.572 7.429zm38.4-39.681a46.566 46.566 0 0 1 -15.91 22.567c-8.764 6.808-23.207 5.1-30.09-3.1 8.65-2.2 11.942-5.454 11.02-10.926s-5.473-7.523-17.1-7.052l5.642-10.889a23.055 23.055 0 0 0 5 3.949c3.291 1.3 6.864 2.9 10.268 2.783 9.7-.338 13.314-7.71 8.745-16.925 9.008-1.523 18.937 3.291 22.134 11.284a12.958 12.958 0 0 1 .283 8.293zm9.591-94.388c13.164 8.8 19.6 24.448 15.346 38.289a21.7 21.7 0 0 0 -5.022-.15 10.438 10.438 0 0 0 -5.642 2.181c-4.005 4.551-7.522 9.516-11.847 15.045l8.519 3.216c-8.313 6.7-20.913 4.269-26.686-.621-4.533-3.761-4.946-6.413-1.6-12.111a45.283 45.283 0 0 0 5.642 3.761c4.683 2.182 9.4.865 11.641-2.915 2.351-4.118.828-9.139-3.761-12.035-5.04-3.141-10.438-2.671-15.816-1.072a69.027 69.027 0 0 0 -6.582 2.82l4.212-14.217c19.051 9.215 30.447.809 31.6-22.229zm11.641-27.006c-5.642-2.708-10.964-5.642-16.437-8.576l.658-1.88c10.739 4.513 21.421 9.234 34.453 7.917-6.507 4.89-12.449 5.642-18.674 2.52zm32.835-23.79a97.116 97.116 0 0 1 -12.487 4.044c-4.589.959-6.018 4.25-7.09 8.782-3.912-.9-7.522-1.448-10.87-2.576-8.97-2.953-16.813-8.012-24.674-13.165s-8.35-11.584-5.641-20.555c9.741 5.247 17.47 13.653 29.45 14.669.846-10.682-7.3-14.105-15.045-17.809l1.034-1.505c2.52.959 5.022 1.881 7.523 2.877 3.761 1.411 7.635 2.972 11.547 4.138 2.219.677 3.761 0 5.642-2.069s6.732-2.445 10.494-2.595a62.412 62.412 0 0 0 -5.887 4.889c-4.043 4.251-4.194 9.4-.639 13.3s11.509 5.228 15.045 1.994a8.842 8.842 0 0 0 2.106-6.093c0-1.881-1.6-3.611-2.52-5.473 7.278-1.279 11.867.715 14.481 6.168 2.764 5.793.639 11.792-6.733 17.81a18.177 18.177 0 0 0 0-4.025c-.978-3.5-2.351-4.118-5.755-2.821z"/><path d="m1337.043 2545.085c-.226-1.486 0-3.968-.733-4.288-4.664-2.087-3.762-5.435-2.257-9.1-3.009-2.069-5.792-3.912-8.5-5.849s-5.171-3.855-7.861-5.886c.32-.545 1.787-1.881 1.731-3.291a4.437 4.437 0 0 0 -2.934-3.084c-7.88-1.373-10.926-6.883-13.841-13.6-1.881-4.495-6.357-7.936-9.629-11.829 4.833-3.592 4.927-3.573 13.916 1.279l1.881-5.059c5.491-.245 7.033 4.306 9.4 8.2l9.666-4.137 2.784 7.974 11.66.846 8.782-9.554-1.335-5.773 9.4-2.088-4.476-9.609 6.018-1.731 4.119-14.838c2.67 1.881 5.021 2.558 5.773 4.1 2.313 4.626 6.263 5.642 11.1 5.774l1.711 7.842 13.8-3.987-2.069 7.409 8.35 3.367 13.164-10.908-3.272-7.635h12.356l-5.642-13.164 9.008-.9c2.088-5.379 2.783-11.773 9.159-14.669 5.209 2.52 7.353 7.071 7.879 12.751h7.128c.188.225.545.47.508.6-.978 3.931-1.994 7.861-3.122 12.243 4.852.132 9.685-2.746 15.045.771l-5.266 6.921 11.961 11.077c6.338-1.241 11.02-10.682 20.292-7.184l3.516-7.523 5.887.489c3.235-4.908 5.153-11.528 12.882-12.374 5.962 4.833 2.106 10.832 1.373 16.925l7.071 1.467-.884 6.357c9.065 4.137 9.065 4.137 7.786 10.682 1.128.94 2.369 1.88 3.5 2.915a27.458 27.458 0 0 1 2.05 2.181h12.92l4.569-5.811 6.808 5.642 6.451-10.908c6.225 4.025 11.923-6.074 17.9.433-6.958 7.2-10.193 16.267-12.055 25.99a6.62 6.62 0 0 1 -6.13 6.056c-1.524.15-3.066.206-4.777.3-3.536 7.523-8.971 12.789-17.96 14.35 2.934 6.112 1.768 10.776-4.119 13.333 3.423 11.754 3.273 12.337-3.573 15.4-2.952-4.7 1.467-9.233.828-14.01-5.642 1.26-7.523 3.159-7.353 7.3.131 3.761 1.673 5.322 6.77 6.45l-.489 5.811c-21.026-9.854-43.254-11.566-65.427-13.521a314.537 314.537 0 0 0 -62.267.131c-20.687 2.276-41.167 5.51-61.177 13.39-3.272-4.607-14.1-4.476-9.591-14.819l9.8 9.967c3.028-4.476 3.141-6.469.32-9.61s-4.926-2.842-10.283.016zm-3.047-9.4 1.2 2.576c11.077-3.084 22.041-6.544 33.231-9.139 11.641-2.69 23.394-5.022 35.224-6.6a336.612 336.612 0 0 1 34.979-2.708 348.752 348.752 0 0 1 35.092.733 302.418 302.418 0 0 1 35.563 4.438c11.284 2.182 22.153 5.849 33.606 8.952-1.316-6.262-1.354-6.545-7.24-8.293a266.563 266.563 0 0 0 -58.976-10.513 417.678 417.678 0 0 0 -73.231 1.5 287.983 287.983 0 0 0 -62.888 14.65 31.118 31.118 0 0 0 -6.564 4.307zm110.374-52.356c-.527 11.058 8.425 19.069 23.15 20.686 13.3 1.448 23.188-2.745 24.693-10.587l-11.961 5-1.768-9.949-9.14-9.779-6.469 1.147-2.539 6.376c-7.409.958-7.409.958-15.966-2.897zm-57.679 16.436c9.949 5.21 18.807 6.94 28.21 5.04 9.892-1.993 16.229-10.211 17.094-21.646l-11.434 8.237-4.889-8.293-10.212-1.373-3.517 9.4 3.047 7.3zm137.285 4.138-12.863-4.7c4.608 11.284 24.448 20.837 30.09 14.819l-4.532-3.422 3.761-9.4-5.755-6.826-8.933 2.05zm-85.3 18.806c-5.341 0-9.14 3.14-8.99 7.522a8.671 8.671 0 0 0 8.91 8.423c.114 0 .229-.009.343-.016 5.3-.113 8.632-3.292 8.632-8.012a8.425 8.425 0 0 0 -8.877-7.936zm-76.241-11.039c-6.187-4.664-12.167-8.821-19.859-10.062l-1.26 6.037 6.357 5.435-8.068 6.451c9.271.338 17.038-1.2 22.849-7.88zm90.1-.132.188-1.016-14.8-8.688-11.039 9.685zm57.265 5.416-9.667-11.284-13.484 7.673zm-71.351-52.657a5.434 5.434 0 0 0 -5.772 5.075v.021a5.512 5.512 0 0 0 5.492 5.379 5.21 5.21 0 0 0 5.152-5.266c0-.126-.008-.251-.018-.376-.3-2.783-1.373-5.078-4.852-4.89zm-59.428 23.432a17.427 17.427 0 0 0 -5.021-3.479c-2.275-.677-5.36 2.351-5.153 4.532a4.946 4.946 0 0 0 5.059 4.777 5.134 5.134 0 0 0 5.171-5.1 5.081 5.081 0 0 0 -.056-.789zm125.889.677a5.772 5.772 0 0 0 5.773-5.642c-.188-2.407-3.084-5.171-5.322-4.72a4.891 4.891 0 0 0 -4.155 5.528l.018.114c.188 2.482.884 4.739 3.686 4.664zm-125.738 21.232-6.357 9.009 19.145-4.175z"/><path d="m1674.05 2885.627a331.793 331.793 0 0 1 -30.523 142.4c-20.8 45.134-50.306 83.161-91.849 111.2-39.23 26.479-82.5 38.063-129.612 33.851-39.982-3.517-75.488-18.806-106.913-43.649-39.7-31.256-67.157-71.464-85.55-118.141a338.391 338.391 0 0 1 -23.244-134.483c1.523-57.265 15.459-111.163 44.627-160.717 22.323-37.914 51.529-69.3 89.818-91.549 40.4-23.489 83.951-31.97 130.083-24.749 36.8 5.774 69.263 21.721 98.093 45.248 35.957 29.338 61.214 66.48 78.985 108.925 16.55 39.945 25.727 81.318 25.709 124.572 0 2.41.244 4.742.376 7.092zm-4.965.715a310.577 310.577 0 0 0 -5.059-59.879c-7.936-44.627-23.056-86.395-49.1-123.839-23.432-33.681-52.018-61.684-89.01-80.189-41.524-20.781-84.872-26.968-130.383-15.44-41.373 10.494-75.864 32.61-104.525 63.715-52.3 56.739-75.788 125.419-79.926 201.226a324.288 324.288 0 0 0 15.271 115.508 299.572 299.572 0 0 0 49.629 95.912c26.78 34.02 59.353 60.461 100.444 75.393 47.542 17.189 94.614 15.233 140.689-5.435 43.668-19.577 76.711-51.4 102.155-91.341 34.115-53.579 49.329-112.555 49.818-175.65z"/><path d="m1427.632 2791a16.309 16.309 0 0 1 -1.3 14.1c-1.448-2.337-2.649-4.559-4.131-6.583-2.567-3.522-5.414-6.583-10.483-5.661a3.426 3.426 0 0 1 -2.452-.724c-4.476-3.67-8.936-2.123-13.017.378-5.858 3.6-11.618 7.472-13.4 14.811a6.369 6.369 0 0 1 -1.119 1.761 9.594 9.594 0 0 1 -6.385-10.318c.592-10.483 5.085-19.353 12.013-27.072a11.663 11.663 0 0 1 2.469-1.81c3.456-2.221 6.928-4.41 10.894-6.912l-.395 7.422c1.152-1.645 2.436-2.7 2.7-3.982 2.419-11.833 11.652-17.181 21.509-20.275 12.491-3.917 25.607-2.814 37.95 1.5a25.342 25.342 0 0 1 10.993 8.788 45.2 45.2 0 0 0 18.941 15.041 45.016 45.016 0 0 1 6.978 3.67c4.8 3.16 7.126 7.537 6.04 13.478a49.782 49.782 0 0 0 -.379 6.089l1.251.675 3.686-5.892c6.83 11.52 6.451 22.727-.559 28.158 1.119 4.328 2.814 8.228 3.061 12.26a160.766 160.766 0 0 1 -5.744 53.814c-5.612 20.077-18.711 34.954-34.937 48.679l.625-9.874c-5.661 11.092-16.852 13.823-26.528 15.584a35.627 35.627 0 0 1 -32.19-10.3c-4.937-5.019-5.4-8.031-2.32-14.531-.2-.148-.428-.444-.576-.411-12.326 3.11-9.3 3.159-15.108-6.287a177.169 177.169 0 0 0 -10.565-16.457l.626 11.092c-17.132-25.08-17.856-53.484-18-82.02 3.933 2.32 5.151 5.957 5.612 10.055.74 6.434 1.645 12.869 2.353 19.3l1.3-.149c-.329-4.788-.559-9.577-1-14.35a24.456 24.456 0 0 1 3.868-15.864c2.287-3.6 4.2-4.3 7.866-1.942 2.073 1.333 3.785 3.209 5.743 4.723a13.643 13.643 0 0 0 18.81-2.106 9.99 9.99 0 0 1 8.081-4.361 7.562 7.562 0 0 0 4.608-1.975c4.772-4.822 6.056-15.568 2.9-21.707-4.1-7.915-8.228-9.265-14.317-4.163 5.996-2.369 10.21.396 14.028 4.348zm38.69 21c8.426 6.237 16.457 4.246 24.586-1.448a13.741 13.741 0 0 1 -10.828 7.537 18.1 18.1 0 0 1 -14.7-4.114c-3.621-3.012-6.089-2.683-7.406-.724 2.963 1.4 6.073 2.732 9.068 4.328 2.3 1.234 4.262 3.39 6.583 4.081 3.077.889 6.862 1.778 9.611.741a60.521 60.521 0 0 0 12.688-7.6c3.571-2.485 3.768-4.707 1.069-8.064-3.094-3.884-6.4-7.57-9.5-11.52-6.961-8.722-15.19-12.573-25.985-7.027l-.346-.247c2.057-5.315 4.674-6.994 11.042-6.747 4.756.181 10.088-.609 14.087 1.3s6.353 6.583 9.545 10.17c.313-.641.757-1.2.642-1.382-2.534-3.851-4.937-7.768-7.817-11.4a5.953 5.953 0 0 0 -3.982-1.3c-5.53-.312-11.059-.427-16.605-.592-5.118-.148-8.377 1.925-10.006 6.171-1.448 3.8-2.979 7.57-4.509 11.339-1.646 4.229-.955 9.66 2.008 12.589 3.472-10.565 11.223-14.926 21.756-14.646 4.937.132 7.389 2.3 8.524 6.138-10.17-5.1-17.033-4.065-22.332 3.407l-4.18 5.661zm-18.53-9.4h-.84a5.334 5.334 0 0 0 -.477 1.531c0 8.459 0 16.917.263 25.36 0 3.209.626 6.4.774 9.594.148 3.505-1.646 6.583-4.937 6.714a8.225 8.225 0 0 1 -6.319-3.916c-1.3-2.666-1.136-6.155-1.185-9.3-.116-10.138 0-20.275 0-30.4h-1.2c-.395 3.11-.3 6.4-1.333 9.281s-3.291 5.645-5.052 8.624c3.785 1.646 4.246 4.937 4 8.919a42.345 42.345 0 0 0 .329 7.389c.642 5.645-1.794 9.99-6.879 11.948-1.645-4.509-.938-6.583 3.292-11.52l-2.946-6.27c-.691 4.509-1.037 8.969-2.09 13.248-1.35 5.447 1.234 9.775 3.768 13.857 3.193 5.118 9.134 1.333 13.627 3.028 1.3.493 3.669-1.909 5.578-2.979 2.485 5.5 4.592 5.842 8.344 1.382a56.522 56.522 0 0 0 3.555-4.937c5.43-8.113 4.706-11.519-4.1-16.769.708 1.646 2.32 2.962 2.847 4.558.724 2.206 1.646 5.629.625 6.83-2.073 2.353-3.752-.362-4.838-2.222a16.248 16.248 0 0 1 -2.715-5.842c-.922-8.557-1.564-17.148-2.09-25.722-.231-4.246-.017-8.343-.017-12.408zm-36.353 89.163c4.509 2.748 7.9 1.432 11.519-.444a28.757 28.757 0 0 1 9.5-3.292 68.99 68.99 0 0 1 12.869.181 50.246 50.246 0 0 1 8.64 1.449c3.489.872 6.83 2.435 10.335 2.962 1.5.214 3.291-1.465 5.546-2.584l-8.36-3.505c-.379.477-1.07 1.645-1.251 1.547-4.772-1.992-9.084-4.641-11.388-8.673a69.219 69.219 0 0 0 -9.249-.494 104.683 104.683 0 0 0 -10.631 1.909 44.551 44.551 0 0 1 -5.842 4.937c-3.571 2.09-7.438 3.8-11.7 5.974zm18.876 11.174a59.476 59.476 0 0 1 10.7-.395c1.645.2 2.978 2.567 4.459 3.95a42.313 42.313 0 0 1 -3.851 3.554 10.842 10.842 0 0 1 -3.291.889c5.381 1.646 10.829.165 12.392-4.18.741-2.057-1.481-5.167-2.584-8.475l1.992-2.419c-6.583 4.246-13.363 2.929-19.041 1.1zm-44.17-115.345a19.744 19.744 0 0 1 16.193-6.254 51.1 51.1 0 0 0 6.895.872 17.788 17.788 0 0 0 5.1-1.892c-14.235-4.987-24.043-2.123-28.207 7.241z" fill="#fff"/><path d="m1349.825 2850.7a241.873 241.873 0 0 0 18.974 62.289 115.769 115.769 0 0 0 32.535 41.916c17.56 14.333 37.686 15.107 58.57 9.577 23.7-6.27 39.924-21.1 49.025-43.791a6.5 6.5 0 0 0 .312-1.267 5.871 5.871 0 0 0 -.51-1.037c-2.551 3.439-5.052 6.583-7.241 9.874-20.9 31.482-58.833 36.2-86.793 26.479-11.717-4.1-20.242-12.491-28.207-21.591-15.206-17.395-23.352-38.262-29.622-60.018-1.777-6.155-2.946-12.491-4.246-18.761a10.268 10.268 0 0 1 3.193-10.285 75.723 75.723 0 0 0 6.583-8.229c.246 2.65.411 4.246.559 5.826 1.761 19.748 5.266 39.2 16.013 56.381a121.517 121.517 0 0 0 41.471 40.22 48.514 48.514 0 0 0 55.953-5.266c29.852-26.117 43.429-59.014 40.4-98.74-.181-2.469-.263-4.937-.379-7.406l1.169-.576c1.185 2.222 2.435 4.394 3.522 6.583 1.645 3.39 3.159 6.813 4.657 10.252a8.11 8.11 0 0 1 .954 3.292c-.477 17.789-.345 35.678-5.809 53.04 1.086-2.962 2.321-5.875 3.291-8.887 1-3.291 1.646-6.8 2.535-10.2a69.5 69.5 0 0 1 2.715-9.545 146.222 146.222 0 0 1 -9.183 49.37c-5.579 15.733-9.775 32.223-21.97 44.763 14.647-13.561 20.242-31.943 26.331-50.045l1.086.345c-1.645 7.044-2.6 14.285-4.937 21.1-3.587 10.6-7.158 21.394-12.326 31.268a53.6 53.6 0 0 1 -37.85 28.8c-13.923 2.913-27.977 4.641-42.212 3.423a36.917 36.917 0 0 1 -19.88-7.34c-8.9-6.862-17.773-13.807-26.429-20.982a38.639 38.639 0 0 1 -12.178-18.448c-3.917-12.376-7.982-24.685-11.306-37.291-2.2-8.229-3.16-16.885-4.789-25.327q-3.045-15.9-6.286-31.762c-.559-3.163-.658-5.928 2.305-8.004zm88.7 131.885c-4.937 3.949-9.529 4.657-14.812 2.616a58.163 58.163 0 0 1 -21.278-13.494c-5.628-5.727-11.52-11.256-17.411-16.671-1.054-.954-3.028-.888-4.575-1.3.411 1.481.362 3.291 1.283 4.361a117.946 117.946 0 0 0 29.622 24.422c5.777 3.291 11.981 7.011 18.333 7.768 9.167 1.1 18.629-.3 27.977-.675.312 0 .609-.51.9-.79l.263-1.234c-7.438.757-14.63.625-20.307-5z" fill="#fff"/><path d="m1530.322 2993.629c-7.767-5.052-8.228-12.128-7.356-20.768 1.761-16.457 4.213-32.914 3.538-49.765-.411-10.2 2.979-20.505 3.571-30.824a122.555 122.555 0 0 1 9.973-40.615 10.317 10.317 0 0 1 5.6-6.138 86.472 86.472 0 0 0 9.874-6.122 96.079 96.079 0 0 1 6.385 11.519c5.431 13.923 6.583 28.619 7.7 43.38.954 12.9 2.814 25.755 4.3 38.805-3.851-.872-6.155 2.568-8.64 5.76-4.394 5.645-8.459 11.52-13.3 16.819-4.328 4.69-9.627 8.459-14.235 12.919a111.672 111.672 0 0 0 -10.154 11.322c-.741.954 0 3.077.082 4.674a24.112 24.112 0 0 0 4.23-2.107 3.586 3.586 0 0 0 1.25-2.682c-.411-5.217 3.292-7.653 6.583-10.681 5.711-5.414 11.141-11.125 16.737-16.654 4.361-4.3 8.755-8.59 13.3-12.688a5.066 5.066 0 0 1 4.163-1.333c1.1.494 1.827 2.5 2.107 3.966a20.715 20.715 0 0 1 -.214 4.772c-.527 11.6-1.646 23.221-1.317 34.806.231 6.863 3.028 13.627 4.592 20.456 1.826 7.965 1.645 15.651-3.144 22.743-2.287 3.407-5.249 5.53-9.446 5.25-6.253-.4-12.54-.625-18.711-1.547-10.055-1.5-17.132 2.831-19.88 12.721-1.53 5.53 3.291 11.668 10.006 12.343-6.813-6.4-4.262-13.742-2.09-20.7 1.168-3.752 5.118-4 8.574-3.7 8.557.708 17.1 1.646 26.133 2.42-.51 1.645-.954 3.39-1.646 5.085-2.8 7.34-5.858 14.58-8.409 22-.971 2.815-2.123 3.934-5.184 3.9-12.474-.165-22.529-5.5-30.922-14.252a9.4 9.4 0 0 1 -2.238-5.48c-.79-11.191-1.35-22.4-1.909-33.605a106.034 106.034 0 0 1 -.263-12.26c.444-6.583 2.55-7.636 8.409-4.558a13.749 13.749 0 0 0 1.991.691c5.168 1.53 7.142 5.43 8.525 10.318.707 2.5 2.88 4.69 4.69 6.78 2.518 2.913 4.805 2.568 6.138-1.053a13.347 13.347 0 0 0 0-4.937c-.115-1.942-.954-5.266-.312-5.579 2.007-.987 4.937-1.761 6.829-.921a133.07 133.07 0 0 1 14.334 8.228c3.423 2.09 2.979 4.081-1.218 5.76a36.911 36.911 0 0 0 4.114 2.584 33.006 33.006 0 0 0 4.23 1.3 15.772 15.772 0 0 0 -.856-5.135c-3.291-5.908-9.018-8.919-14.811-11.865-10.025-5.236-21.105-3.838-31.703-5.352zm14.515-39.364c3.868-1.432 5.645-3.719 5.661-7.883 0-26 .362-52 .543-78.005 0-2.3-.181-4.624-.279-6.928h-.346z" fill="#fff"/><path d="m1504.452 2723.327c2.568-3.653 5.76-7.011 7.6-10.993 5.316-11.52 16.556-13.676 25.607-4.707a102.869 102.869 0 0 0 -11.52-1.859c-4.476-.247-7.636 2.254-9.709 6.846 6.583-4.822 12.342-2.732 17.641 1.448a128.444 128.444 0 0 1 14.038 12.359c3.193 3.291 3.719 9.644 10.96 7.9a49.731 49.731 0 0 0 -3.735 3.374q-4.329 4.937-8.509 9.956a24.73 24.73 0 0 0 -3.554 4.937c-.461.971.148 2.452.263 3.687 1.086-.116 2.518.181 3.291-.395 2.634-2.239 4.937-4.822 7.538-7.143 2.073-1.876 5.332-5.463 6.319-4.937 2.88 1.5 4.937 4.658 7.159 7.258.247.3-.181 1.185-.2 1.283 12.886 6.682 24.126 15.009 27.516 29.886a139.029 139.029 0 0 1 2.7 26.956c.115 4.41-1.794 8.87-2.353 11.355a57.282 57.282 0 0 1 -8.772-6.237 11.918 11.918 0 0 1 -2.551-6.681c-1.02-8.64-1.086-17.379-4.575-25.64-.707-1.646.132-4.328.971-6.2 1.646-3.835.494-6.468-2.551-8.722-7.833-5.81-16.111-5.447-23.2 1.185a39.384 39.384 0 0 1 -27.8 11.026h-6.863c-.2.526-.477.888-.378 1.036 5.151 8.015 18.234 9.595 25.08 3.292a101.453 101.453 0 0 1 12-9.5c5.941-3.982 11.52-2.847 15.914 2.765 2.09 2.666 4.065 5.414 6.072 8.13l-.971.839-4.937-4.312-.9.691c2.551 4.328 9.2 6.27 8.229 12.771-7.538-6.747-13.051-7.241-18.662-1.745-4.016 3.934-4.147 9.4-.313 14.054 5.513-5.973 10.828-5.743 16.457.379 3.521 3.834 7.6 7.175 11.075 11.042a19.635 19.635 0 0 1 4.394 7.39c4.016 14.333 2.107 27.565-8.442 38.739-4.147 4.41-8.64 8.491-12.639 12.408l-11.984-43.248c-4.657 3.291-8.393 6.3-12.49 8.689-10.977 6.385-19.353 3.16-23.928-8.64a42.677 42.677 0 0 0 -5.6-10.779c-3.719-4.789-4.064-9.4-1.135-14.811 11.52 10.137 24.224 11.7 37.933 5.25-1.086.246-2.206.427-3.292.757-11.618 3.62-20.933-.165-28.6-8.986a36.005 36.005 0 0 1 -5.348-7.438c-.741-1.5-.675-4.937 0-5.316a8.788 8.788 0 0 1 6.254-.247c2.221.807 3.966 3.292 7.109.28l-29.951-21.772.526-.626a116.672 116.672 0 0 0 12.277 1.86 111.479 111.479 0 0 0 12.227-.642 34.089 34.089 0 0 1 -1.826-4.723 36.208 36.208 0 0 1 -.362-5.233c-13.4 6.319-25.788 8.031-36.32-6.583a60.379 60.379 0 0 0 43.89-14.564c-26.035 12.7-51.609 17.757-76.277-3.291 4.213 1.333 8.343 3.406 12.638 3.818a37.369 37.369 0 0 0 13.725-1.35 40.8 40.8 0 0 0 12.014-6.138 101.292 101.292 0 0 0 10.17-9.479zm75.438 132.312c9.594-7.29 10.2-20.949.691-30.214a14.053 14.053 0 0 0 -18.1-2.255c-2.5 1.481-4.608 3.637-7.11 5.085a30.938 30.938 0 0 1 -8.639 3.917c-8.689 1.86-15.206-2.386-20.851-8.442-1.728-1.86-3.439-3.736-5.151-5.612l-1.5 1.037a41.158 41.158 0 0 0 3.72 6.122c2.369 2.764 5.365 4.937 7.669 7.767 5.513 6.682 11.141 8.081 18.777 3.851 3.686-2.04 7.01-4.756 10.565-7.043 10.763-6.929 20.39-2.354 21.246 10.483.378 5.184-.856 10.6-1.317 15.3z" fill="#fff"/><path d="m1404.066 3043.312c-3.472.231-7.323 4.049-9.314-3.456-1.4 2.222-3.144 3.785-2.93 4.937a7.392 7.392 0 0 0 3.292 4.592 5.789 5.789 0 0 0 5.167-.132c6.912-5.151 6.879-9.248-.28-14.268-5.134-3.6-10.68-6.582-16.029-9.874-4.542-2.8-6.73-6.681-5.184-9.018 1.185-1.777 6.781-1.646 10.2.954s6.336 5.53 9.742 8.146c-1.942-5.759-6.122-9.693-11.322-12.638-3.621-2.041-7.077-3.67-11.059.131-2.683 2.568-5.381.922-5.727-3-.379-4.213-.79-8.442-.938-12.672a79.368 79.368 0 0 0 -4.937-26.133 40.535 40.535 0 0 1 -1.991-11.125c-.79-9.38-1.317-18.793-1.185-28.437 1.267 4.822 3.209 9.578 3.653 14.466 1.251 13.692 7.422 24.405 16.045 35.069a82.782 82.782 0 0 0 45.043 29.227c40.171 10.384 73.561-7.833 88.356-48.136 3.291-8.755 6.056-17.625 9.874-26.331-1.086 8.525-2.353 17.017-3.291 25.558-1.2 11.519-2.123 22.94-3.127 34.411-.181 2.04 0 4.1-.181 6.138-.444 9.627-4.032 16.885-13.511 21.1a113.589 113.589 0 0 0 -19.074 11.437 8.228 8.228 0 0 0 -2.336 11.289c.888 1.3 3.587 2.963 4.229 2.551a25.443 25.443 0 0 0 5.2-5.431c.132-.164-.428-1.316-.724-1.349a11.6 11.6 0 0 0 -2.271.411 40.384 40.384 0 0 1 -5.76.461c-.2 0-.855-2.616-.444-2.946a9.2 9.2 0 0 1 4.937-2.55c5.135 0 8.228 2.9 8.887 7.339.79 5.563-2.025 12.31-6.106 13.38a8.709 8.709 0 0 1 -6.155-.889c-3.8-2.353-7.191-5.348-11.108-8.344-3.851 5.316-10.088 4.625-16.161 4.543-6.862-.083-13.741-.33-20.587 0-7.817.378-14.811-1.268-19.88-6.781a134.35 134.35 0 0 1 -12.128 9.759 9.512 9.512 0 0 1 -11.158-.675 11.618 11.618 0 0 1 -4.641-10.779c.3-3.818 3.7-6.385 8.525-6.582 3.361-.244 5.369 1.401 6.389 5.647zm99.134-36.512c-8.426 5.118-17.395 10.4-26.134 16.045-1.909 1.234-2.929 3.835-3.9 5.151 4.1-2.567 8.228-5.776 12.754-7.833a41.869 41.869 0 0 0 17.28-13.363z" fill="#fff"/><path d="m1333.615 2915.18c.592 6.961 1.431 13.889 1.728 20.867s0 13.577 0 20.423c-11.52-6.3-18.81-15.173-18.761-29.342 0-11.388-.872-22.76-1.366-34.148a13.329 13.329 0 0 0 -5.233-10.6c-4.049-3.127-7.817-6.583-12-9.562-10.944-7.718-10.072-32.568.2-40.648 4.016-3.16 8.393-4.229 13.166-2.189 10.878 4.723 22.1 3.72 33.209 1.778 3.7-.642 7-3.637 10.368-5.513 1.728 5.2 0 9.446-6.681 14.136l2.9.543c-2.337 7.9-11.832 11.52-18.333 6.4-5.463-4.312-11.519-3.67-17.394-3.785-6.929-.132-10.451 5.217-8.838 11.931 1.053 4.361 2.123 8.8 6.172 11.223 0-4.607-.3-9.215.082-13.757s3.423-5.958 8.788-5.448c4.41.412 5.151 3.012 4.657 6.715a28.765 28.765 0 0 0 3.176 17.822 23.171 23.171 0 0 1 2.156 14.811c-.411 3 1.415 6.3 2.238 9.463l1.744-.345v-34.231a32.429 32.429 0 0 1 .758-4.937c1.5.922 3.423 1.514 4.426 2.815 3.983 5.118 6.254 10.943 5.316 17.559-1.169 8.228.757 15.9 3.7 23.5a139.292 139.292 0 0 1 9.874 58.274c-.346 6.582 0 13.066 0 19.106-3.917-3.736-8.393-7.768-12.54-12.129a9.281 9.281 0 0 1 -1.909-5.085c-.971-9.726-1.646-19.5-2.65-29.227a41.15 41.15 0 0 0 -2.748-10.977c-.955-2.353-3.193-4.18-4.855-6.237z" fill="#fff"/><path d="m1504.452 2723.327-.658.576c-6.27 4.937-12.293 3.9-18.316-.609-4.082-3.061-8.41-5.776-12.557-8.755-7.8-5.6-13.527-4.591-19.551 2.913-.872 1.086-4.13 1.053-5.924.444-2.534-.855-4.213-3.291-2.534-5.957 6.039-9.677 12.968-18.415 25.244-21.525a25.312 25.312 0 0 0 -6.582.1c-6.32 1.794-10.8 6.023-14.4 11.52a34.036 34.036 0 0 1 -5.283 5.184c-.23-2.189-.592-4.378-.674-6.583-.2-4.8-.264-9.627-.362-14.432a13.591 13.591 0 0 1 6.747-12.458c8.047-5.135 16.638-5.447 25.7-3.522 13.84 2.946 25.525 9.874 35.991 18.991 4.131 3.637 8.13 7.422 12.7 11.6-6.336 1.86-10.384 4.937-12.985 10.45-.954 1.992-4.328 3.012-6.78 3.983a13.668 13.668 0 0 1 -4.739.1l-.115 1.283 7.915.823zm-8.656-.461.346-.543c-2.535-3.192-5.1-6.369-7.62-9.594-1.909-2.469-4.13-3.209-7.422-1.646z" fill="#fff"/><path d="m1335.112 3021.951c9.43-4.821 9.874-13.757 10.121-22.545 3.44-.955 6.731-1.646 9.874-2.8a9.875 9.875 0 0 0 7.11-9.874c0-4.657.444-9.315.691-13.955l1.185-.3c1.036 4.082 2.8 8.13 2.995 12.244.51 10.615.312 21.246.493 31.877a28.48 28.48 0 0 0 .971 4.641c1.514 7.883 3.292 15.8-1.481 23.286a3.576 3.576 0 0 0 -.576 1.169c-1.942 10.877-10.516 13.165-19.369 14.251a159.436 159.436 0 0 1 -21 .28c-3.423 0-5.48-1.465-4.411-5.595a7.21 7.21 0 0 0 -.74-5.4c-4.773-6.5-2.189-13.067-.971-20.374 6.747 4.608 13.676 4.542 20.966 3.522 5.957-.839 13.922 4.427 15.436 10.121.708 2.682-.312 5.809-.543 8.656 9.282-2.337 11.931-10.943 5.233-17.954-6.056-6.319-12.8-7.455-20.686-3.505-7.586 3.818-20.192.411-24.273-7.11a13.442 13.442 0 0 1 -.938-8.738c1.645-7.373 11.519-14.729 19.04-14.63a5.743 5.743 0 0 1 5.892 5.4c.955 6.472-.131 12.396-5.019 17.333z" fill="#fff"/><path d="m1378.97 2702.476c4.163 2.518 7.7 1.268 11.322-.2 6.089-2.452 12.145-5.036 18.4-6.994a22.856 22.856 0 0 1 19.386 2.5 57.84 57.84 0 0 0 6.238 3.176c4.1 1.86 5.694 5.151 5.743 9.66l-7.389-5.957-1.3 1.251c7.537 4.591 10.845 11.371 11.668 19.435l-1.136.872a22.674 22.674 0 0 1 -3.028-2.485c-2.946-3.439-5.4-7.4-8.755-10.351-2.32-2.04-5.776-2.913-8.837-3.966-.691-.247-1.893.79-2.8 1.333-2.156 1.267-4.163 3.489-6.418 3.719a47.73 47.73 0 0 0 -19.6 7.077 56.438 56.438 0 0 1 -11.421 5.414c-6.714 2.156-11.767-.461-15.6-6.369a90.989 90.989 0 0 0 -9.051-10.927c-1.646-1.794-2.8-3.291-.889-5.6 15.173-18.942 34.362-30.774 58.833-32.354 11.7-.757 11.651 1.826 16.342 11.092 1.645 3.291 0 6.418-2.37 8.7s-4.806.543-7.109-.872a9.725 9.725 0 0 0 -4.756-1.942c-13.314.444-26.331 2.09-36.436 12.162a10.259 10.259 0 0 0 -1.037 1.626zm-13.166 6.139-.74 1.547a26.114 26.114 0 0 0 3.373 4.13 13.988 13.988 0 0 0 13.3 2.321c10.055-2.963 20-6.4 29.968-9.66.2 0 .28-.461.527-.856l-3.292-4.312c-4.789 8.722-13.79 8.426-20.85 11.734-8.476 3.949-15.141-1.629-22.266-4.9z" fill="#fff"/><path d="m1298.743 2781.7-7.11 11.866.774.51 6.254-8.492c4.1 4.591 4.756 8.541 2.024 13.165-2.93 4.937-6.155 9.595-9.348 14.3-.493.724-1.942 1.646-2.238 1.514a6.4 6.4 0 0 1 -2.419-2.8c-2.534-6.83-2.139-13.923-.625-20.769a76.065 76.065 0 0 1 5.677-15.008c2.683-5.826 5.727-11.52 8.854-17.082s7.389-6.583 12.524-2.288a50.87 50.87 0 0 1 6.582 7.077c13.166 16.111 29.376 20.488 48.959 13.165 1.086-.395 2.189-.757 3.291-1.136.511 5.365-9.215 15.305-22.019 22.678 6.583.806 13.659-4.328 25.442-18.629-3.62 14.169-11.355 23.911-24.685 27.417-23.714 6.27-39.825-4.361-50.341-25.656zm37.521 6.254.724-2.008a29.113 29.113 0 0 1 -6.582-2.765c-8-5.973-17.3-10.433-22.76-19.468-1.909-3.16-4.592-3.045-6.583 0a77 77 0 0 0 -5.924 11.158c-.79 1.892-.428 4.278-.593 6.451a2.93 2.93 0 0 0 2.123-1.152c5.777-8.048 11.52-9.117 19.748-3.473 3.292 2.337 6.369 5.217 9.874 7.225a70.45 70.45 0 0 0 9.973 4z" fill="#fff"/><path d="m1313.57 3008.638c.494-3.028.955-5.135 1.185-7.29.872-7.949 1.646-15.931 2.5-23.879.625-5.48 1.086-11.026 2.2-16.457 1.283-6.138 7.389-8.59 12.458-4.723a279.065 279.065 0 0 1 22.694 19.238c3.966 3.785 7.537 8.771 4.739 14.811s-8.492 5.283-13.725 5.513a21.006 21.006 0 0 1 -3.933 0c-9.134-1.333-16.605 1.86-23.04 8.228-1.408 1.399-2.922 2.721-5.078 4.559z" fill="#fff"/><path d="m1395.887 2751.55a15.567 15.567 0 0 1 -10.828 10.368 43.7 43.7 0 0 1 -28.833-.329 93.37 93.37 0 0 1 -30.445-16.95c-6.22-5.365-7.043-5.448-14.136-1.087a72.473 72.473 0 0 1 -7.6 4.937c1.119-2.221 1.794-4.937 3.456-6.582 6.385-6.583 13.511-12.03 22.727-14.12a9.182 9.182 0 0 1 9.4 2.83c14.614 14.515 31.927 22.2 52.909 20.654h2.189a6.094 6.094 0 0 1 1.161.279zm-74.615-18.316a86.493 86.493 0 0 1 10.121 4.081c6.089 3.423 11.882 7.389 17.971 10.829 4.46 2.518 9.2 4.525 13.807 6.764q-17.542-11.093-35.464-21.3c-1.531-.818-3.884-.242-6.435-.374z" fill="#fff"/><path d="m1394.472 2758.462 12.77-11.849c-9.3.445-16.457-4.443-24.208-6.681-3.291 8.064-5.858 9.347-13.971 5.315-4.937-2.419-9-6.3-13.33-9.709-1.959-1.547-3.489-3.571-5.332-5.217-9.068-8.228-18.926-6.681-28.964-2.2-1.942.872-3.752 2.057-5.908 3.291 2.139-4.344 9.067-9.314 18.464-11.519 7.077-1.646 14.564-1.383 21.707-1.959-2.419-6.912-8.986-10.071-16.21-7.257q-4.591 1.8-9.167 3.637l-.526-1.366c4.789-1.843 9.479-4.049 14.4-5.431 4.658-1.316 8.509.609 11.388 4.608 3.144 4.394 6.484 8.64 9.759 12.951a24.815 24.815 0 0 0 17.543 9.611 34.964 34.964 0 0 1 9.743 2.271 37.484 37.484 0 0 0 19.221 3.242 14.651 14.651 0 0 1 4.773.132c.493.115 1.086 2.468.79 2.682-7.06 5.316-14.219 10.467-21.394 15.651a7.9 7.9 0 0 1 -1.548-.203z" fill="#fff"/><path d="m1287.618 2832.666c3.621-11.24 11.52-19.271 19.485-27.434 18.563 11.125 36.9 12.228 56.364-.411-4.525 7.29-8.228 14.482-13.066 20.7-4.427 5.611-10.813 5.677-18.432 2.468-6.583-2.8-13.445-5.348-20.324-7.537-8.327-2.633-15.19-.444-19.995 7.241a48.916 48.916 0 0 1 -4.032 4.973z" fill="#fff"/><path d="m1375.036 2768.007a17.153 17.153 0 0 1 -1.645 1.926c-10.3 7.5-29.03 6.994-38.855-1.119-5.167-4.279-10.088-8.887-15.42-12.935a91.151 91.151 0 0 0 -10.5-6.073c4.575-5.217 6.714-5.085 13.165-1.53a55.932 55.932 0 0 1 14.054 11.519c5.48 5.908 12.9 7.784 20.637 8.229 5.86.148 11.685-.017 18.564-.017z" fill="#fff"/><path d="m1476.558 2736.13c-4.229 3.539-8.311 2.222-12.606.906-5.957-1.844-12.046-3.292-18.1-4.937-10.22-2.732-19.567 1.119-29.063 3.85a59.626 59.626 0 0 1 -8.047 2.057 24.224 24.224 0 0 1 -7.587-.378c14.826-11.783 61.119-13.182 75.403-1.498z" fill="#fff"/><path d="m1416.376 2809.593c-7.356 5.069-14.976 6.188-22.925 2.749a19.385 19.385 0 0 1 -4.361-3.752c11.224-12.623 22.793-10.566 27.286 1.003z" fill="#fff"/><path d="m1385.881 2806.22c0-.807-.345-1.876 0-2.386 6.583-8.393 17.05-15.157 28.339-7.5a36.951 36.951 0 0 1 8.113 7.834c2.469 3.159 1.136 5.694-2.962 6.763-.494-6.582-7.718-13.609-14.038-13.955-8.113-.444-13.165 5.151-18.514 10.022z" fill="#fff"/><path d="m1492.669 2731.078c-2.649 2.8-5.381 1.646-8.228 0-3.127-1.826-6.188-3.818-9.446-5.348a14.4 14.4 0 0 0 -12.672-.264c-2.781 1.317-4.937.576-6.023-2.221-1.136-3.094 1.086-4.937 3.554-5.332a15.753 15.753 0 0 1 8.031.757c5.365 2.189 10.45 4.937 15.634 7.636 3.028 1.53 5.941 3.094 9.15 4.772z" fill="#fff"/><path d="m1413.1 2720.167c5.431-3.9 10.911-4.377 16.045.1 1.383 1.2 1.926 3.374 2.831 5.036-8.145 2.928-14.35 2.007-18.876-5.136z" fill="#fff"/><path d="m1415.438 2812.111c-8.739 9.529-21.806 9.1-27.977-.9 9.167 6.446 18.432 7.861 27.977.9z" fill="#fff"/><path d="m1466.388 2811.881c-2.617-2.37-4.756-4.937-2.617-8.689 7.439-4.937 14.976-4.937 22.579-.412 3.9 2.3 4 4.937.576 7.85-4.937 4.361-10.532 4.378-16.457 2.567z" fill="#fff"/></g><path d="m258.867 118.34-11.639 10.294 3.79 8.918 15.051-8.918z"/><path d="m454.94 128.634 11.702 8.918 3.369-6.577-14.827-7.889z"/></svg>